<?xml version="1.0" encoding="UTF-8" standalone="no"?>
<svg
   xmlns:dc="http://purl.org/dc/elements/1.1/"
   xmlns:cc="http://creativecommons.org/ns#"
   xmlns:rdf="http://www.w3.org/1999/02/22-rdf-syntax-ns#"
   xmlns:svg="http://www.w3.org/2000/svg"
   xmlns="http://www.w3.org/2000/svg"
   xmlns:sodipodi="http://sodipodi.sourceforge.net/DTD/sodipodi-0.dtd"
   xmlns:inkscape="http://www.inkscape.org/namespaces/inkscape"
   width="35.173126mm"
   height="21.986753mm"
   viewBox="0 0 35.173126 21.986753"
   version="1.1"
   id="svg1600"
   sodipodi:docname="02.svg"
   inkscape:version="1.0.1 (3bc2e813f5, 2020-09-07)">
  <defs
     id="defs1594" />
  <sodipodi:namedview
     id="base"
     pagecolor="#ffffff"
     bordercolor="#666666"
     borderopacity="1.0"
     inkscape:pageopacity="0.0"
     inkscape:pageshadow="2"
     inkscape:zoom="0.35"
     inkscape:cx="252.93693"
     inkscape:cy="409.58031"
     inkscape:document-units="mm"
     inkscape:current-layer="layer1"
     inkscape:document-rotation="0"
     showgrid="false"
     inkscape:window-width="1500"
     inkscape:window-height="1040"
     inkscape:window-x="208"
     inkscape:window-y="0"
     inkscape:window-maximized="0" />
  <metadata
     id="metadata1597">
    <rdf:RDF>
      <cc:Work
         rdf:about="">
        <dc:format>image/svg+xml</dc:format>
        <dc:type
           rdf:resource="http://purl.org/dc/dcmitype/StillImage" />
        <dc:title></dc:title>
      </cc:Work>
    </rdf:RDF>
  </metadata>
  <g
     inkscape:label="Слой 1"
     inkscape:groupmode="layer"
     id="layer1"
     transform="translate(-15.675337,-15.464961)">
    <g
       id="g871"
       transform="matrix(0.35277777,0,0,-0.35277777,24.468366,23.62986)">
      <path
         d="m 0,0 c 0,0.983 -0.797,1.78 -1.78,1.78 h -1.781 v 1.781 h 5.342 c 0.983,0 1.781,0.797 1.781,1.78 0,0.984 -0.798,1.781 -1.781,1.781 h -7.122 c -0.983,0 -1.78,-0.797 -1.78,-1.781 V -5.341 c 0,-0.984 0.797,-1.781 1.78,-1.781 0.984,0 1.78,0.797 1.78,1.781 V -1.78 H -1.78 C -0.797,-1.78 0,-0.983 0,0"
         style="fill:#dbad94;fill-opacity:1;fill-rule:nonzero;stroke:none"
         id="path873" />
    </g>
    <g
       id="g875"
       transform="matrix(0.35277777,0,0,-0.35277777,27.608926,22.37361)">
      <path
         d="m 0,0 h 2.671 c 0.491,0 0.89,-0.399 0.89,-0.891 0,-0.491 -0.399,-0.89 -0.89,-0.89 H 0 Z m -1.78,-10.683 c 0.983,0 1.78,0.797 1.78,1.781 v 2.831 l 4.077,-4.096 c 0.693,-0.697 1.819,-0.702 2.518,-0.01 0.004,0.004 0.007,0.007 0.01,0.01 0.699,0.693 0.704,1.82 0.011,2.519 -0.004,0.003 -0.008,0.006 -0.011,0.01 L 4.077,-5.11 C 6.407,-4.328 7.662,-1.804 6.88,0.526 6.272,2.335 4.579,3.556 2.671,3.561 H -1.78 c -0.984,0 -1.781,-0.797 -1.781,-1.781 V -8.902 c 0,-0.984 0.797,-1.781 1.781,-1.781"
         style="fill:#dbad94;fill-opacity:1;fill-rule:nonzero;stroke:none"
         id="path877" />
    </g>
    <g
       id="g879"
       transform="matrix(0.35277777,0,0,-0.35277777,31.377516,26.1422)">
      <path
         d="m 0,0 h 7.121 c 0.983,0 1.781,0.797 1.781,1.78 0,0.984 -0.798,1.781 -1.781,1.781 H 1.78 v 1.78 h 1.781 c 0.983,0 1.78,0.797 1.78,1.781 0,0.983 -0.797,1.78 -1.78,1.78 H 1.78 v 1.781 h 5.341 c 0.983,0 1.781,0.796 1.781,1.78 0,0.983 -0.798,1.78 -1.781,1.78 H 0 c -0.983,0 -1.78,-0.797 -1.78,-1.78 V 1.78 C -1.78,0.797 -0.983,0 0,0"
         style="fill:#dbad94;fill-opacity:1;fill-rule:nonzero;stroke:none"
         id="path881" />
    </g>
    <g
       id="g883"
       transform="matrix(0.35277777,0,0,-0.35277777,35.774146,26.1422)">
      <path
         d="m 0,0 h 7.121 c 0.983,0 1.78,0.797 1.78,1.78 0,0.984 -0.797,1.781 -1.78,1.781 H 1.78 v 1.78 h 1.781 c 0.983,0 1.78,0.797 1.78,1.781 0,0.983 -0.797,1.78 -1.78,1.78 H 1.78 v 1.781 h 5.341 c 0.983,0 1.78,0.796 1.78,1.78 0,0.983 -0.797,1.78 -1.78,1.78 H 0 c -0.983,0 -1.78,-0.797 -1.78,-1.78 V 1.78 C -1.78,0.797 -0.983,0 0,0"
         style="fill:#dbad94;fill-opacity:1;fill-rule:nonzero;stroke:none"
         id="path885" />
    </g>
    <g
       id="g887"
       transform="matrix(0.35277777,0,0,-0.35277777,48.901006,33.67923)">
      <path
         d="M 0,0 C -0.979,4.818 -5.677,7.931 -10.495,6.952 -13.998,6.241 -16.736,3.503 -17.447,0 h -1.959 v 19.584 h 14.065 l 7.3,-1.46 v -7.441 h -1.78 c -0.984,0 -1.782,-0.798 -1.782,-1.781 0,-0.983 0.798,-1.781 1.782,-1.781 h 1.78 L 1.959,0 Z m -8.724,-7.122 c -2.95,0 -5.34,2.392 -5.34,5.342 0,2.949 2.39,5.341 5.34,5.341 2.951,0 5.341,-2.392 5.341,-5.341 0,-2.95 -2.39,-5.342 -5.341,-5.342 m -60.534,0 c -2.949,0 -5.341,2.392 -5.341,5.342 0,2.949 2.392,5.341 5.341,5.341 2.95,0 5.342,-2.392 5.342,-5.341 0,-2.95 -2.392,-5.342 -5.342,-5.342 M -81.72,8.902 h 5.341 c 2.95,0 5.341,2.391 5.341,5.341 0,2.95 -2.391,5.341 -5.341,5.341 h -5.341 v 26.707 c 0,0.982 0.797,1.78 1.781,1.78 h 55.192 c 0.983,0 1.78,-0.798 1.78,-1.78 V 5.341 h -40.949 c -3.147,2.429 -7.536,2.429 -10.683,0 H -81.72 Z M -61.104,1.78 h 38.137 V 0 h -37.566 c -0.125,0.612 -0.317,1.209 -0.571,1.78 m 50.956,32.048 2.67,-10.683 h -4.806 v 3.561 c 0,0.983 -0.798,1.78 -1.78,1.78 -0.984,0 -1.782,-0.797 -1.782,-1.78 v -3.561 h -3.56 v 10.683 z m 14.243,-12.463 -7.798,1.567 -3.24,13.103 c -0.202,0.814 -0.943,1.378 -1.781,1.353 h -1.78 c 0,0.984 -0.797,1.781 -1.78,1.781 -0.984,0 -1.78,-0.797 -1.78,-1.781 h -5.342 v 8.903 c 0,2.949 -2.392,5.34 -5.341,5.34 h -55.192 c -2.951,0 -5.342,-2.391 -5.342,-5.34 V 19.584 h -7.121 c -0.984,0 -1.781,-0.797 -1.781,-1.78 0,-0.984 0.797,-1.781 1.781,-1.781 h 16.023 c 0.983,0 1.78,-0.796 1.78,-1.78 0,-0.983 -0.797,-1.78 -1.78,-1.78 h -10.683 c -0.983,0 -1.78,-0.797 -1.78,-1.78 0,-0.984 0.797,-1.781 1.78,-1.781 h 1.781 V 3.561 c 0,-0.984 0.798,-1.781 1.78,-1.781 h 6.09 C -77.665,1.209 -77.856,0.612 -77.981,0 h -1.958 c -0.984,0 -1.781,-0.797 -1.781,-1.78 0,-0.984 0.797,-1.781 1.781,-1.781 h 1.958 c 0.978,-4.818 5.677,-7.931 10.495,-6.953 3.504,0.712 6.241,3.45 6.953,6.953 h 43.086 c 0.977,-4.818 5.676,-7.931 10.495,-6.953 3.503,0.712 6.241,3.45 6.952,6.953 h 3.739 c 0.984,0 1.781,0.797 1.781,1.781 v 21.364 c 0.017,0.86 -0.583,1.609 -1.425,1.781"
         style="fill:#dbad94;fill-opacity:1;fill-rule:nonzero;stroke:none"
         id="path889" />
    </g>
    <g
       id="g891"
       transform="matrix(0.35277777,0,0,-0.35277777,16.303496,33.67923)">
      <path
         d="m 0,0 c 0.983,0 1.78,-0.797 1.78,-1.78 0,-0.984 -0.797,-1.781 -1.78,-1.781 -0.983,0 -1.78,0.797 -1.78,1.781 C -1.78,-0.797 -0.983,0 0,0"
         style="fill:#dbad94;fill-opacity:1;fill-rule:nonzero;stroke:none"
         id="path893" />
    </g>
    <g
       id="g895"
       transform="matrix(0.35277777,0,0,-0.35277777,18.187616,33.67923)">
      <path
         d="m 0,0 c 0.983,0 1.78,-0.797 1.78,-1.78 0,-0.984 -0.797,-1.781 -1.78,-1.781 -0.983,0 -1.78,0.797 -1.78,1.781 C -1.78,-0.797 -0.983,0 0,0"
         style="fill:#dbad94;fill-opacity:1;fill-rule:nonzero;stroke:none"
         id="path897" />
    </g>
  </g>
</svg>
