<?xml version="1.0" encoding="UTF-8" standalone="no"?>
<svg
   xmlns:dc="http://purl.org/dc/elements/1.1/"
   xmlns:cc="http://creativecommons.org/ns#"
   xmlns:rdf="http://www.w3.org/1999/02/22-rdf-syntax-ns#"
   xmlns:svg="http://www.w3.org/2000/svg"
   xmlns="http://www.w3.org/2000/svg"
   xmlns:sodipodi="http://sodipodi.sourceforge.net/DTD/sodipodi-0.dtd"
   xmlns:inkscape="http://www.inkscape.org/namespaces/inkscape"
   width="35.172916mm"
   height="35.172649mm"
   viewBox="0 0 35.172916 35.172649"
   version="1.1"
   id="svg1600"
   sodipodi:docname="03.svg"
   inkscape:version="1.0.1 (3bc2e813f5, 2020-09-07)">
  <defs
     id="defs1594" />
  <sodipodi:namedview
     id="base"
     pagecolor="#ffffff"
     bordercolor="#666666"
     borderopacity="1.0"
     inkscape:pageopacity="0.0"
     inkscape:pageshadow="2"
     inkscape:zoom="0.35"
     inkscape:cx="207.97686"
     inkscape:cy="384.61975"
     inkscape:document-units="mm"
     inkscape:current-layer="layer1"
     inkscape:document-rotation="0"
     showgrid="false"
     inkscape:window-width="1500"
     inkscape:window-height="1040"
     inkscape:window-x="208"
     inkscape:window-y="0"
     inkscape:window-maximized="0" />
  <metadata
     id="metadata1597">
    <rdf:RDF>
      <cc:Work
         rdf:about="">
        <dc:format>image/svg+xml</dc:format>
        <dc:type
           rdf:resource="http://purl.org/dc/dcmitype/StillImage" />
        <dc:title></dc:title>
      </cc:Work>
    </rdf:RDF>
  </metadata>
  <g
     inkscape:label="Слой 1"
     inkscape:groupmode="layer"
     id="layer1"
     transform="translate(-11.895685,-6.6041468)">
    <g
       id="g899"
       transform="matrix(0.35277777,0,0,-0.35277777,40.37429,22.025827)">
      <path
         d="m 0,0 -4.426,-2.437 v 8.88 L 0,8.874 Z m -36.49,-11.752 c -4.894,4.895 -11.401,7.59 -18.322,7.59 -1.309,0 -2.602,-0.097 -3.873,-0.286 v 21.603 l 34.943,-19.187 v -38.201 l -6.066,3.33 c 0.598,2.198 0.907,4.491 0.907,6.831 0,6.921 -2.696,13.427 -7.589,18.32 M -6.381,9.813 -41.166,28.914 -36.821,31.3 -2.035,12.199 Z m -15.421,-8.468 -34.785,19.1 11.375,6.247 34.785,-19.1 z m 0,38.202 L 12.982,20.445 2.01,14.42 -32.774,33.521 Z M 17.966,22.152 -20.865,43.475 c -0.583,0.32 -1.291,0.32 -1.874,0 l -14.636,-8.037 c -0.31,-0.081 -0.598,-0.236 -0.836,-0.459 L -61.569,22.152 c -0.623,-0.341 -1.01,-0.995 -1.01,-1.707 V -5.343 c -3.941,-1.232 -7.552,-3.405 -10.554,-6.409 -7.826,-7.824 -9.821,-19.76 -4.965,-29.697 0.472,-0.967 1.638,-1.367 2.604,-0.896 0.967,0.473 1.367,1.639 0.895,2.606 -4.126,8.443 -2.43,18.584 4.219,25.234 4.159,4.158 9.688,6.449 15.568,6.449 5.881,0 11.41,-2.291 15.569,-6.449 4.157,-4.158 6.448,-9.686 6.448,-15.567 0,-5.881 -2.291,-11.409 -6.449,-15.569 -6.651,-6.649 -16.791,-8.344 -25.235,-4.218 -0.966,0.471 -2.132,0.071 -2.604,-0.895 -0.472,-0.967 -0.072,-2.133 0.895,-2.604 3.62,-1.77 7.503,-2.629 11.36,-2.629 6.726,0 13.363,2.618 18.338,7.593 2.281,2.282 4.084,4.914 5.36,7.774 l 8.391,-4.608 c 0.292,-0.16 0.614,-0.24 0.937,-0.24 0.323,0 0.646,0.08 0.937,0.24 l 38.831,21.323 c 0.623,0.342 1.01,0.996 1.01,1.707 v 13.533 c 0,1.075 -0.872,1.947 -1.948,1.947 -1.075,0 -1.947,-0.872 -1.947,-1.947 v -12.381 l -34.93,-19.181 V -2.025 L -8.32,4.305 V -5.73 c 0,-0.689 0.363,-1.327 0.956,-1.676 0.305,-0.181 0.647,-0.272 0.991,-0.272 0.322,0 0.645,0.08 0.938,0.241 l 8.322,4.581 c 0.622,0.342 1.008,0.996 1.008,1.705 v 12.163 l 11.186,6.143 V 6.913 c 0,-1.076 0.872,-1.948 1.947,-1.948 1.076,0 1.948,0.872 1.948,1.948 v 13.532 c 0,0.711 -0.387,1.366 -1.01,1.707"
         style="fill:#dbad94;fill-opacity:1;fill-rule:nonzero;stroke:none"
         id="path901" />
    </g>
    <g
       id="g903"
       transform="matrix(0.35277777,0,0,-0.35277777,46.381499,21.644797)">
      <path
         d="m 0,0 c -0.512,0 -1.015,-0.208 -1.376,-0.57 -0.362,-0.362 -0.571,-0.865 -0.571,-1.377 0,-0.512 0.209,-1.014 0.571,-1.376 0.361,-0.363 0.864,-0.571 1.376,-0.571 0.513,0 1.015,0.208 1.377,0.571 0.362,0.362 0.57,0.864 0.57,1.376 0,0.512 -0.208,1.015 -0.57,1.377 C 1.015,-0.208 0.513,0 0,0"
         style="fill:#dbad94;fill-opacity:1;fill-rule:nonzero;stroke:none"
         id="path905" />
    </g>
    <g
       id="g907"
       transform="matrix(0.35277777,0,0,-0.35277777,18.728051,33.321597)">
      <path
         d="m 0,0 c 0.498,0 0.997,0.19 1.377,0.569 0.761,0.761 0.761,1.994 0,2.755 l -1.349,1.35 h 11.509 c 2.792,0 5.064,-2.272 5.064,-5.064 0,-2.792 -2.272,-5.062 -5.064,-5.062 H 4.718 c -1.076,0 -1.947,-0.872 -1.947,-1.948 0,-1.075 0.871,-1.947 1.947,-1.947 h 6.819 c 4.94,0 8.958,4.019 8.958,8.957 0,4.94 -4.018,8.957 -8.958,8.957 H 0.028 l 1.349,1.35 c 0.761,0.761 0.761,1.993 0,2.754 -0.76,0.76 -1.993,0.76 -2.754,0 L -6.051,7.998 c -0.76,-0.761 -0.76,-1.994 0,-2.755 L -1.377,0.57 C -0.996,0.19 -0.498,0 0,0"
         style="fill:#dbad94;fill-opacity:1;fill-rule:nonzero;stroke:none"
         id="path909" />
    </g>
    <g
       id="g911"
       transform="matrix(0.35277777,0,0,-0.35277777,15.060752,39.300587)">
      <path
         d="M 0,0 C -0.554,0 -1.104,0.236 -1.488,0.693 L -1.491,0.698 C -2.184,1.521 -2.077,2.749 -1.254,3.44 -0.432,4.134 0.797,4.027 1.489,3.204 2.181,2.381 2.077,1.15 1.254,0.458 0.888,0.151 0.442,0 0,0"
         style="fill:#dbad94;fill-opacity:1;fill-rule:nonzero;stroke:none"
         id="path913" />
    </g>
  </g>
</svg>
