<?xml version="1.0" encoding="UTF-8" standalone="no"?>
<svg
   xmlns:dc="http://purl.org/dc/elements/1.1/"
   xmlns:cc="http://creativecommons.org/ns#"
   xmlns:rdf="http://www.w3.org/1999/02/22-rdf-syntax-ns#"
   xmlns:svg="http://www.w3.org/2000/svg"
   xmlns="http://www.w3.org/2000/svg"
   xmlns:sodipodi="http://sodipodi.sourceforge.net/DTD/sodipodi-0.dtd"
   xmlns:inkscape="http://www.inkscape.org/namespaces/inkscape"
   width="35.172993mm"
   height="27.285755mm"
   viewBox="0 0 35.172993 27.285755"
   version="1.1"
   id="svg1600"
   sodipodi:docname="04.svg"
   inkscape:version="1.0.1 (3bc2e813f5, 2020-09-07)">
  <defs
     id="defs1594" />
  <sodipodi:namedview
     id="base"
     pagecolor="#ffffff"
     bordercolor="#666666"
     borderopacity="1.0"
     inkscape:pageopacity="0.0"
     inkscape:pageshadow="2"
     inkscape:zoom="0.35"
     inkscape:cx="157.30265"
     inkscape:cy="313.32624"
     inkscape:document-units="mm"
     inkscape:current-layer="layer1"
     inkscape:document-rotation="0"
     showgrid="false"
     inkscape:window-width="1500"
     inkscape:window-height="1040"
     inkscape:window-x="208"
     inkscape:window-y="0"
     inkscape:window-maximized="0" />
  <metadata
     id="metadata1597">
    <rdf:RDF>
      <cc:Work
         rdf:about="">
        <dc:format>image/svg+xml</dc:format>
        <dc:type
           rdf:resource="http://purl.org/dc/dcmitype/StillImage" />
        <dc:title></dc:title>
      </cc:Work>
    </rdf:RDF>
  </metadata>
  <g
     inkscape:label="Слой 1"
     inkscape:groupmode="layer"
     id="layer1"
     transform="translate(-13.407551,-18.863075)">
    <g
       id="g915"
       transform="matrix(0.35277777,0,0,-0.35277777,41.829939,42.16967)">
      <path
         d="m 0,0 c 0,-0.89 -0.721,-1.611 -1.611,-1.611 -0.89,0 -1.612,0.721 -1.612,1.611 0,0.89 0.722,1.611 1.612,1.611 C -0.722,1.61 -0.001,0.89 0,0 m 3.223,0 c 0,2.67 -2.164,4.834 -4.834,4.834 -2.669,0 -4.834,-2.164 -4.834,-4.834 0,-2.67 2.165,-4.834 4.834,-4.834 C 1.058,-4.831 3.22,-2.669 3.223,0"
         style="fill:#dbad94;fill-opacity:1;fill-rule:nonzero;stroke:none"
         id="path917" />
    </g>
    <g
       id="g919"
       transform="matrix(0.35277777,0,0,-0.35277777,20.228826,42.16967)">
      <path
         d="M 0,0 C 0,0.89 0.722,1.611 1.611,1.611 2.502,1.611 3.223,0.89 3.223,0 3.223,-0.89 2.502,-1.611 1.611,-1.611 0.722,-1.61 0.001,-0.89 0,0 m -3.223,0 c 0,-2.67 2.164,-4.834 4.834,-4.834 2.67,0 4.834,2.164 4.834,4.834 0,2.67 -2.164,4.834 -4.834,4.834 C -1.057,4.831 -3.22,2.668 -3.223,0"
         style="fill:#dbad94;fill-opacity:1;fill-rule:nonzero;stroke:none"
         id="path921" />
    </g>
    <g
       id="g923"
       transform="matrix(0.35277777,0,0,-0.35277777,15.11287,22.27389)">
      <path
         d="m 0,0 h 11.36 c -4.404,-6.883 -4.404,-15.699 0,-22.582 6.236,-9.744 19.191,-12.589 28.935,-6.353 9.745,6.236 12.59,19.19 6.353,28.935 H 58.009 V -41.896 H 0 Z m 0,-45.118 h 58.009 v -9.668 H 25.645 c -0.685,4.057 -3.865,7.236 -7.922,7.922 -5.264,0.888 -10.251,-2.658 -11.141,-7.922 H 0 Z m 9.668,-11.279 c 0,3.559 2.886,6.445 6.445,6.445 3.56,0 6.446,-2.886 6.446,-6.445 0,-3.56 -2.886,-6.446 -6.446,-6.446 -3.557,0.004 -6.441,2.887 -6.445,6.446 m 11.781,-8.057 c 2.228,1.477 3.746,3.809 4.196,6.445 h 38.946 c 0.449,-2.636 1.968,-4.968 4.196,-6.445 z m 46.228,8.057 c 0,3.559 2.886,6.445 6.445,6.445 3.561,0 6.446,-2.886 6.446,-6.445 0,-3.56 -2.885,-6.446 -6.446,-6.446 -3.558,0.004 -6.441,2.887 -6.445,6.446 m 8.055,9.533 c -5.264,0.888 -10.252,-2.658 -11.141,-7.922 h -3.36 v 41.895 h 16.79 l 0.921,-1.611 H 67.677 c -0.89,0 -1.612,-0.722 -1.612,-1.612 v -17.725 c 0,-0.89 0.722,-1.611 1.612,-1.611 h 22.559 v -1.612 h -3.222 c -2.67,0 -4.834,-2.164 -4.834,-4.834 0,-2.669 2.164,-4.833 4.834,-4.833 h 3.222 v -8.057 h -6.583 c -0.684,4.057 -3.864,7.236 -7.921,7.922 m 14.504,3.357 h -3.222 c -0.891,0 -1.612,0.722 -1.612,1.611 0,0.89 0.721,1.612 1.612,1.612 h 3.222 z m -1.167,11.279 H 69.288 v 14.503 h 11.495 z m -42.34,20.949 c 0,-9.79 -7.935,-17.725 -17.725,-17.725 -9.789,0 -17.725,7.935 -17.725,17.725 0,9.789 7.936,17.724 17.725,17.724 9.785,-0.01 17.714,-7.94 17.725,-17.724 M -3.223,1.611 v -58.008 c 0,-0.89 0.722,-1.612 1.612,-1.612 h 8.193 c 0.449,-2.636 1.968,-4.968 4.196,-6.445 H 3.223 c -0.89,0 -1.612,-0.722 -1.612,-1.611 0,-0.891 0.722,-1.612 1.612,-1.612 h 90.035 c 0.889,0 1.611,0.721 1.611,1.612 0,0.889 -0.722,1.611 -1.611,1.611 h -13.8 c 2.229,1.477 3.746,3.809 4.195,6.445 h 8.195 c 0.889,0 1.611,0.722 1.611,1.612 v 22.558 c 0,0.28 -0.073,0.557 -0.212,0.8 l -10.129,17.725 -2.762,4.834 c -0.288,0.502 -0.821,0.812 -1.4,0.812 H 61.231 V 1.611 c 0,0.89 -0.721,1.612 -1.611,1.612 H 45.118 C 44.835,3.224 44.557,3.148 44.313,3.005 44.041,3.297 43.762,3.58 43.474,3.856 35.134,11.847 21.895,11.563 13.904,3.223 H -1.611 c -0.89,0 -1.612,-0.722 -1.612,-1.612"
         style="fill:#dbad94;fill-opacity:1;fill-rule:nonzero;stroke:none"
         id="path925" />
    </g>
    <g
       id="g927"
       transform="matrix(0.35277777,0,0,-0.35277777,13.407551,45.58033)">
      <path
         d="m 0,0 c 0,-0.891 0.722,-1.611 1.611,-1.611 h 1.612 c 0.889,0 1.611,0.72 1.611,1.611 0,0.89 -0.722,1.611 -1.611,1.611 H 1.611 C 0.722,1.611 0,0.89 0,0"
         style="fill:#dbad94;fill-opacity:1;fill-rule:nonzero;stroke:none"
         id="path929" />
    </g>
    <g
       id="g931"
       transform="matrix(0.35277777,0,0,-0.35277777,23.512015,29.6867)">
      <path
         d="m 0,0 c -0.411,0.002 -0.792,-0.216 -0.998,-0.573 -0.315,-0.548 -0.128,-1.248 0.42,-1.564 0.547,-0.316 1.247,-0.129 1.563,0.419 h 4.9 c 0.1,-0.177 0.247,-0.323 0.424,-0.423 0.544,-0.311 1.237,-0.121 1.547,0.423 h 0.733 c 2.212,0.003 4.005,1.796 4.008,4.008 v 0.159 c 0.162,0.093 0.299,0.224 0.398,0.383 0.333,0.532 0.173,1.233 -0.359,1.567 0.17,1.233 1.12,2.214 2.347,2.423 0.228,-0.801 0.871,-1.416 1.681,-1.608 1.235,-0.292 2.474,0.472 2.767,1.707 0.292,1.235 -0.472,2.474 -1.707,2.767 C 16.488,9.98 15.25,9.216 14.958,7.98 13.116,7.746 11.676,6.279 11.475,4.434 11.288,4.333 11.133,4.182 11.028,3.997 10.718,3.453 10.907,2.76 11.452,2.449 V 2.29 C 11.45,0.71 10.169,-0.571 8.589,-0.573 H 7.855 C 7.755,-0.396 7.608,-0.25 7.432,-0.149 6.888,0.161 6.194,-0.028 5.884,-0.573 H 0.986 C 0.783,-0.22 0.408,-0.001 0.001,0 Z m -3.435,12.596 c 0,1.897 1.539,3.435 3.436,3.435 1.897,0 3.436,-1.538 3.436,-3.435 0,-1.897 -1.539,-3.435 -3.436,-3.435 -1.897,0.002 -3.434,1.539 -3.436,3.435 m -3.074,6.448 C -10.046,15.357 -9.952,9.508 -6.297,5.937 l 5.084,-5.082 c 0.671,-0.671 1.759,-0.67 2.43,0 l 5.082,5.082 c 3.653,3.573 3.746,9.421 0.207,13.107 -0.02,0.02 -0.039,0.039 -0.06,0.06 -3.593,3.561 -9.393,3.534 -12.955,-0.06"
         style="fill:#dbad94;fill-opacity:1;fill-rule:nonzero;stroke:none"
         id="path933" />
    </g>
  </g>
</svg>
