<?xml version="1.0" encoding="UTF-8" standalone="no"?>
<svg
   xmlns:dc="http://purl.org/dc/elements/1.1/"
   xmlns:cc="http://creativecommons.org/ns#"
   xmlns:rdf="http://www.w3.org/1999/02/22-rdf-syntax-ns#"
   xmlns:svg="http://www.w3.org/2000/svg"
   xmlns="http://www.w3.org/2000/svg"
   xmlns:sodipodi="http://sodipodi.sourceforge.net/DTD/sodipodi-0.dtd"
   xmlns:inkscape="http://www.inkscape.org/namespaces/inkscape"
   width="69.999969mm"
   height="77.466141mm"
   viewBox="0 0 69.999969 77.466141"
   version="1.1"
   id="svg2951"
   inkscape:version="1.0.1 (3bc2e813f5, 2020-09-07)"
   sodipodi:docname="01.svg">
  <defs
     id="defs2945" />
  <sodipodi:namedview
     id="base"
     pagecolor="#ffffff"
     bordercolor="#666666"
     borderopacity="1.0"
     inkscape:pageopacity="0.0"
     inkscape:pageshadow="2"
     inkscape:zoom="0.7"
     inkscape:cx="-9.9312704"
     inkscape:cy="206.28525"
     inkscape:document-units="mm"
     inkscape:current-layer="layer1"
     inkscape:document-rotation="0"
     showgrid="false"
     inkscape:window-width="1500"
     inkscape:window-height="1040"
     inkscape:window-x="156"
     inkscape:window-y="0"
     inkscape:window-maximized="0" />
  <metadata
     id="metadata2948">
    <rdf:RDF>
      <cc:Work
         rdf:about="">
        <dc:format>image/svg+xml</dc:format>
        <dc:type
           rdf:resource="http://purl.org/dc/dcmitype/StillImage" />
        <dc:title></dc:title>
      </cc:Work>
    </rdf:RDF>
  </metadata>
  <g
     inkscape:label="Слой 1"
     inkscape:groupmode="layer"
     id="layer1"
     transform="translate(-54.202406,-89.022893)">
    <path
       d="m 120.62019,148.30829 c -0.79234,11.65571 -1.81011,14.52876 -2.50896,14.87977 l -0.0226,1.65171 v -1.64854 c -0.70203,0 -2.46697,-1.3338 -4.02237,-2.51215 -2.2546,-1.70396 -5.05954,-3.82298 -8.67022,-5.50087 -8.650462,-4.02262 -9.71338,-10.65706 -10.102847,-17.67843 -0.168981,-3.02673 -0.174273,-7.82384 0.229659,-13.30565 0.494241,0.28116 0.995537,0.56586 1.506008,0.85619 l 1.722967,9.14217 c 0.148166,0.79237 0.840668,1.34302 1.616773,1.34302 0.10302,0 0.20603,-0.009 0.30939,-0.0292 0.89535,-0.16757 1.48449,-1.0305 1.3141,-1.92581 l -1.20615,-6.39869 c 3.02154,1.71274 5.61587,3.17889 6.26886,3.5486 0.25788,0.14464 0.53481,0.21237 0.81174,0.21237 0.57327,0 1.13348,-0.30268 1.43616,-0.83749 0.44803,-0.79234 0.16757,-1.80023 -0.62441,-2.2479 -1.66935,-0.94298 -4.32612,-2.44581 -7.07461,-4.00192 l 7.19349,-4.91913 c 0.75036,-0.51576 0.94368,-1.54305 0.4318,-2.29305 -0.51893,-0.75072 -1.54269,-0.93734 -2.29341,-0.4318 l -8.529105,5.83317 c -0.891116,-0.50482 -1.751541,-0.99236 -2.554816,-1.4478 0.517525,-4.98333 1.373716,-10.30781 2.78765,-15.3356 0.0095,-0.0384 1.165579,-3.8615 3.372201,-3.8615 0.99484,0 2.25743,0.7246 3.65549,2.09021 l 0.89817,0.87594 c 7.49476,7.28839 15.99071,15.54621 14.05502,43.94239 z M 83.112501,137.49978 c -0.392748,7.02454 -1.459053,13.65896 -10.103237,17.67843 -3.613608,1.68106 -6.41544,3.80023 -8.669901,5.50087 -1.558573,1.17835 -3.323697,2.51215 -4.022655,2.51215 h -0.01281 c -0.711623,-0.35418 -1.726142,-3.22723 -2.518516,-14.88294 -1.938884,-28.38983 6.553977,-36.65047 14.048282,-43.93921 l 0.901805,-0.87912 c 1.398024,-1.36561 2.66058,-2.09021 3.655519,-2.09021 2.206378,0 3.362537,3.82305 3.372203,3.85833 1.402433,4.9851 2.256648,10.26795 2.775761,15.2213 -0.858097,0.4886 -1.772566,1.00965 -2.711556,1.54446 l -8.496158,-5.81236 c -0.740693,-0.50554 -1.771192,-0.31892 -2.293056,0.4318 -0.511951,0.75 -0.318594,1.77729 0.43173,2.29305 l 7.168973,4.90432 c -3.762446,2.14312 -7.05612,4.0199 -7.05612,4.0199 l 0.591287,1.03595 1.04472,1.83037 v 0 0 0 c 0,0 2.848433,-1.62278 6.265122,-3.57082 l -1.208653,6.42444 c -0.16771,0.89531 0.418501,1.75824 1.313957,1.92581 0.103046,0.0197 0.205987,0.0292 0.309209,0.0292 0.776112,0 1.468579,-0.55065 1.61671,-1.34302 l 1.727236,-9.17886 c 0.551638,-0.31432 1.098021,-0.62547 1.630362,-0.92921 0.412184,5.52591 0.408057,10.36535 0.239782,13.41536 z m 25.752069,-35.49784 -0.89182,-0.8696 c -2.05493,-2.00942 -4.058,-3.030711 -5.96124,-3.030711 -3.784596,0 -5.897384,3.938761 -6.547905,6.261101 -1.313391,4.67183 -2.187575,9.64177 -2.752373,14.45225 -0.894643,-0.50871 -1.501423,-0.85443 -1.649941,-0.94192 -0.136525,-0.19932 -0.299861,-0.93098 -0.341842,-1.51624 V 90.671776 c 0,-0.911578 -0.737307,-1.648883 -1.648849,-1.648883 -0.911154,0 -1.648989,0.737305 -1.648989,1.648883 v 25.755604 c 0,0.006 0.0036,0.0116 0.0036,0.018 0,0.007 -0.0036,0.0134 -0.0036,0.0208 0.0098,0.46037 -0.08364,1.20755 0.01611,1.22378 -0.197874,0.11254 -0.852453,0.48472 -1.760008,1.00154 -0.566103,-4.77379 -1.437289,-9.69927 -2.739144,-14.3256 -0.650558,-2.32551 -2.763238,-6.264276 -6.547591,-6.264276 -1.903342,0 -3.906484,1.021292 -5.961415,3.030716 l -0.89542,0.87277 c -8.00642,7.78756 -17.082302,16.61547 -15.040186,46.52888 0.863066,12.66017 1.861314,17.95184 5.819576,17.95501 h 0.0032 c 1.807033,0 3.568594,-1.33353 6.009922,-3.17858 2.128908,-1.6072 4.779292,-3.61059 8.07406,-5.14338 10.289786,-4.7862 11.571782,-12.74095 12.003405,-20.48344 0.224612,-4.06576 0.173744,-9.51932 -0.345475,-15.41459 1.573282,-0.89676 2.726442,-1.55398 3.00563,-1.71309 0.02299,-0.013 0.03168,-0.0384 0.05401,-0.0522 0.0043,0.002 0.0065,0.008 0.01035,0.0106 0.298064,0.1898 1.527001,0.90065 3.204811,1.86055 -0.511527,5.85929 -0.557035,11.27055 -0.331965,15.30876 0.428625,7.73892 1.707092,15.69724 12.003619,20.48344 3.29459,1.53279 5.94184,3.53618 8.07085,5.14338 2.44122,1.84505 4.20581,3.17858 6.01274,3.17858 3.95852,0 4.96006,-5.29484 5.82295,-17.95501 2.03904,-29.92011 -7.03688,-38.74414 -15.04705,-46.53206"
       style="fill:#496f3b;fill-opacity:1;fill-rule:nonzero;stroke:none;stroke-width:0;stroke-miterlimit:4;stroke-dasharray:none"
       id="path2331"
       sodipodi:nodetypes="scccccccccsccccscccccccccsccsssccsccccsccccccccccccccccscccssccsccccsssssccccscccsscccccccccccscc" />
  </g>
</svg>
