<?xml version="1.0" encoding="UTF-8" standalone="no"?>
<svg
   xmlns:dc="http://purl.org/dc/elements/1.1/"
   xmlns:cc="http://creativecommons.org/ns#"
   xmlns:rdf="http://www.w3.org/1999/02/22-rdf-syntax-ns#"
   xmlns:svg="http://www.w3.org/2000/svg"
   xmlns="http://www.w3.org/2000/svg"
   xmlns:sodipodi="http://sodipodi.sourceforge.net/DTD/sodipodi-0.dtd"
   xmlns:inkscape="http://www.inkscape.org/namespaces/inkscape"
   width="69.999931mm"
   height="70.01046mm"
   viewBox="0 0 69.999931 70.01046"
   version="1.1"
   id="svg2951"
   sodipodi:docname="02.svg"
   inkscape:version="1.0.1 (3bc2e813f5, 2020-09-07)">
  <defs
     id="defs2945" />
  <sodipodi:namedview
     id="base"
     pagecolor="#ffffff"
     bordercolor="#666666"
     borderopacity="1.0"
     inkscape:pageopacity="0.0"
     inkscape:pageshadow="2"
     inkscape:zoom="0.35"
     inkscape:cx="59.684905"
     inkscape:cy="-61.368057"
     inkscape:document-units="mm"
     inkscape:current-layer="layer1"
     inkscape:document-rotation="0"
     showgrid="false"
     inkscape:window-width="1500"
     inkscape:window-height="1040"
     inkscape:window-x="192"
     inkscape:window-y="23"
     inkscape:window-maximized="0" />
  <metadata
     id="metadata2948">
    <rdf:RDF>
      <cc:Work
         rdf:about="">
        <dc:format>image/svg+xml</dc:format>
        <dc:type
           rdf:resource="http://purl.org/dc/dcmitype/StillImage" />
        <dc:title></dc:title>
      </cc:Work>
    </rdf:RDF>
  </metadata>
  <g
     inkscape:label="Слой 1"
     inkscape:groupmode="layer"
     id="layer1"
     transform="translate(-98.803607,-138.10786)">
    <path
       d="m 136.2866,205.54953 c 2.57245,-2.24554 6.04837,-4.59673 9.94057,-6.6996 3.35633,-1.81296 8.22854,-3.97482 12.37897,-3.97482 1.43651,0 2.38266,0.26596 2.91712,0.48369 -0.10795,0.49816 -0.38241,1.30415 -1.07386,2.36457 -2.03023,3.11326 -5.98981,5.94402 -9.06921,7.82616 z m -20.0593,0 c -3.07975,-1.88214 -7.03933,-4.7129 -9.06956,-7.82616 -0.69145,-1.06042 -0.96591,-1.86641 -1.07386,-2.36457 0.53411,-0.21773 1.48061,-0.48369 2.91712,-0.48369 4.15043,0 9.02264,2.16186 12.37933,3.97482 3.89184,2.10287 7.36776,4.45406 9.94057,6.6996 z m 10.59251,-14.8802 c 1.21179,-2.97215 1.88842,-6.74797 2.06904,-11.53654 2.5915,-4.04992 3.70064,-8.04196 4.15643,-10.31737 0.13899,-0.69533 -0.31186,-1.37231 -1.00754,-1.5113 -0.69462,-0.139 -1.3723,0.3115 -1.51165,1.00682 -0.51823,2.58904 -1.95756,7.60624 -5.77462,12.11721 -2.81234,3.32356 -9.10766,3.60426 -11.78243,3.56197 0.19544,-2.06513 0.96309,-6.55243 3.96346,-11.60989 2.15054,-3.62549 5.28426,-6.084 9.57933,-7.51557 3.96875,-1.32292 6.04767,-3.87633 6.45513,-7.97278 0.27517,0.0437 0.55421,0.067 0.83643,0.067 0.28258,0 0.56163,-0.0233 0.83679,-0.067 0.40781,4.09645 2.48638,6.64986 6.45513,7.97278 4.29507,1.43157 7.4288,3.89008 9.57933,7.51557 2.98415,5.02987 3.7592,9.53732 3.95993,11.60989 -2.67582,0.0416 -8.96832,-0.2406 -11.7789,-3.56197 -4.30565,-5.08882 -5.195,-10.29582 -5.52979,-12.25585 -0.11924,-0.69921 -0.78317,-1.16911 -1.48237,-1.04987 -0.69921,0.11924 -1.16911,0.78317 -1.04987,1.48202 0.46355,2.71287 1.36984,6.52181 3.92501,10.53152 0.18097,4.78715 0.8576,8.56187 2.06904,11.53336 1.03681,2.54346 2.49837,4.50384 4.35257,5.84909 -0.0448,0.0239 -0.0893,0.0475 -0.13441,0.0719 -4.45135,2.40481 -8.4081,5.14833 -11.20246,7.74097 -2.794,-2.59264 -6.75075,-5.33577 -11.2021,-7.74097 -0.0448,-0.0244 -0.0893,-0.048 -0.13441,-0.0719 1.8542,-1.34525 3.31576,-3.30563 4.35293,-5.84909 z m 2.29799,-44.22144 c 0,-3.8294 1.57656,-5.77109 4.68559,-5.77109 3.10939,0 4.68595,1.94169 4.68595,5.77109 0,4.3053 -2.14595,7.94209 -4.68595,7.94209 -2.53964,0 -4.68559,-3.63679 -4.68559,-7.94209 z m 38.40163,59.10164 h -11.48821 c 8.54745,-6.16769 8.18656,-10.57219 8.10542,-11.10795 -0.0466,-0.3091 -0.20461,-0.59023 -0.4438,-0.79128 -0.16404,-0.13765 -1.69897,-1.34373 -5.0867,-1.34373 -3.0801,0 -6.70489,0.96629 -10.80382,2.87514 -0.0702,-0.0608 -0.14711,-0.11508 -0.23213,-0.16094 -3.30129,-1.77768 -5.28178,-5.79536 -6.01098,-12.23148 3.49638,3.31502 9.51266,3.7779 12.60052,3.7779 1.10137,0 1.83021,-0.0586 1.93957,-0.0681 0.65405,-0.0565 1.16029,-0.59764 1.17334,-1.25416 0.005,-0.26776 0.0801,-6.64242 -4.38891,-14.17528 -2.47932,-4.17971 -6.06989,-7.00652 -10.97597,-8.642 -3.2445,-1.08126 -4.65032,-3.01554 -4.76673,-6.61493 0.72636,-0.53764 1.38888,-1.2566 1.96215,-2.14277 1.26082,-1.94804 1.95474,-4.51309 1.95474,-7.22207 0,-5.22217 -2.71181,-8.34002 -7.25453,-8.34002 -4.54236,0 -7.25416,3.11785 -7.25416,8.34002 0,2.70898 0.69426,5.27403 1.95474,7.22207 0.57326,0.88618 1.23578,1.60514 1.96215,2.14313 -0.11642,3.59903 -1.52224,5.53331 -4.76674,6.61458 -4.90608,1.63548 -8.49665,4.46228 -10.97597,8.642 -4.46864,7.53286 -4.3942,13.90752 -4.38891,14.17528 0.0134,0.65652 0.51929,1.19764 1.17369,1.25416 0.10936,0.01 0.83785,0.0681 1.93957,0.0681 3.08822,0 9.10449,-0.46316 12.60052,-3.77832 -0.72919,6.43653 -2.70969,10.45421 -6.01133,12.23189 -0.085,0.0459 -0.16193,0.10016 -0.23178,0.16094 -4.09928,-1.90927 -7.72407,-2.87514 -10.80417,-2.87514 -3.38878,0 -4.92301,1.20647 -5.08705,1.34402 -0.23883,0.20076 -0.39688,0.48231 -0.44345,0.79099 -0.0811,0.53577 -0.44203,4.94027 8.10578,11.10795 h -11.48821 c -0.709435,0 -1.284463,0.57492 -1.284463,1.28404 0,0.70944 0.575028,1.28475 1.284463,1.28475 h 15.77975 17.25824 1.35502 17.25824 15.78011 c 0.70908,0 1.28411,-0.57531 1.28411,-1.28475 0,-0.70912 -0.57503,-1.28404 -1.28411,-1.28404"
       style="fill:#496f3b;fill-opacity:1;fill-rule:nonzero;stroke:none;stroke-width:0.0352777"
       id="path2333" />
  </g>
</svg>
