<?xml version="1.0" encoding="UTF-8" standalone="no"?>
<svg
   xmlns:dc="http://purl.org/dc/elements/1.1/"
   xmlns:cc="http://creativecommons.org/ns#"
   xmlns:rdf="http://www.w3.org/1999/02/22-rdf-syntax-ns#"
   xmlns:svg="http://www.w3.org/2000/svg"
   xmlns="http://www.w3.org/2000/svg"
   xmlns:sodipodi="http://sodipodi.sourceforge.net/DTD/sodipodi-0.dtd"
   xmlns:inkscape="http://www.inkscape.org/namespaces/inkscape"
   width="70.001518mm"
   height="60.463997mm"
   viewBox="0 0 70.001518 60.463997"
   version="1.1"
   id="svg2951"
   sodipodi:docname="03.svg"
   inkscape:version="1.0.1 (3bc2e813f5, 2020-09-07)">
  <defs
     id="defs2945" />
  <sodipodi:namedview
     id="base"
     pagecolor="#ffffff"
     bordercolor="#666666"
     borderopacity="1.0"
     inkscape:pageopacity="0.0"
     inkscape:pageshadow="2"
     inkscape:zoom="0.35"
     inkscape:cx="0.5426652"
     inkscape:cy="-118.53397"
     inkscape:document-units="mm"
     inkscape:current-layer="layer1"
     inkscape:document-rotation="0"
     showgrid="false"
     inkscape:window-width="1500"
     inkscape:window-height="1040"
     inkscape:window-x="192"
     inkscape:window-y="23"
     inkscape:window-maximized="0" />
  <metadata
     id="metadata2948">
    <rdf:RDF>
      <cc:Work
         rdf:about="">
        <dc:format>image/svg+xml</dc:format>
        <dc:type
           rdf:resource="http://purl.org/dc/dcmitype/StillImage" />
        <dc:title></dc:title>
      </cc:Work>
    </rdf:RDF>
  </metadata>
  <g
     inkscape:label="Слой 1"
     inkscape:groupmode="layer"
     id="layer1"
     transform="translate(-15.648051,-15.125147)">
    <path
       d="m 43.873979,18.218265 c -2.18229,0.156278 -4.32753,0.575738 -6.41068,1.253418 -14.26845,4.64503 -22.09729,20.03425 -17.45262,34.3027 4.64573,14.26849 20.03425,22.0938 34.30199,17.45121 2.08174,-0.6773 4.06224,-1.60157 5.91891,-2.76091 -10.72727,-2.06375 -19.51955,-9.71186 -22.96936,-20.30688 v 0 c -3.44947,-10.59497 -0.84455,-21.95477 6.61176,-29.939538 z m 2.03517,57.370878 c -12.74233,9.8e-4 -24.62036,-8.12243 -28.77291,-20.8788 -5.16184,-15.85423 3.53766,-32.9516 19.39079,-38.114856 3.62267,-1.178277 7.41327,-1.651705 11.25749,-1.408289 0.61842,0.03986 1.15076,0.451909 1.34196,1.041048 0.19192,0.588786 0.005,1.235427 -0.47166,1.631244 -8.64552,7.174093 -11.9888,18.699343 -8.51782,29.362043 v 0 c 3.47204,10.66299 12.95965,18.01001 24.17128,18.71875 0.61841,0.0395 1.15076,0.45155 1.34196,1.04069 0.19191,0.5891 0.005,1.23582 -0.47166,1.6316 -2.96933,2.46267 -6.31049,4.30992 -9.92999,5.48954 -3.09739,1.0083 -6.24452,1.48703 -9.33944,1.48703"
       style="fill:#496f3b;fill-opacity:1;fill-rule:nonzero;stroke:none;stroke-width:0.0352777"
       id="path2335" />
    <path
       d="m 51.231859,37.573063 2.33504,1.16805 c 0.29245,0.14605 0.53022,0.38382 0.67627,0.67592 l 1.16699,2.33433 1.16699,-2.33433 c 0.14641,-0.2921 0.38418,-0.52987 0.67628,-0.67592 l 2.33539,-1.16805 -2.33539,-1.16628 c -0.2921,-0.14605 -0.52987,-0.38382 -0.67628,-0.67628 l -1.16699,-2.33574 -1.16699,2.33574 c -0.14605,0.29246 -0.38382,0.53023 -0.67627,0.67628 z m 4.1783,9.07133 c -0.57291,0 -1.09608,-0.32315 -1.35255,-0.83538 l -2.29411,-4.58893 -4.58893,-2.29447 c -0.51224,-0.25717 -0.83574,-0.77964 -0.83574,-1.35255 0,-0.57291 0.3235,-1.09678 0.83574,-1.35255 l 4.58893,-2.2927 2.29411,-4.59035 c 0.51259,-1.02481 2.19287,-1.02481 2.7051,0 l 2.29447,4.59035 4.58893,2.2927 c 0.51223,0.25577 0.83538,0.77964 0.83538,1.35255 0,0.57291 -0.32315,1.09538 -0.83538,1.35255 l -4.58893,2.29447 -2.29447,4.58893 c -0.25611,0.51223 -0.77964,0.83538 -1.35255,0.83538"
       style="fill:#496f3b;fill-opacity:1;fill-rule:nonzero;stroke:none;stroke-width:0.0352777"
       id="path2337" />
    <path
       d="m 69.373809,28.501733 3.34328,1.67147 c 0.29245,0.14605 0.53022,0.38382 0.67627,0.67627 l 1.67146,3.34257 1.67146,-3.34257 c 0.14605,-0.29245 0.38383,-0.53022 0.67593,-0.67627 l 3.34362,-1.67147 -3.34362,-1.67146 c -0.2921,-0.14605 -0.52988,-0.38382 -0.67593,-0.67592 l -1.67146,-3.34292 -1.67146,3.34292 c -0.14605,0.2921 -0.38382,0.52987 -0.67627,0.67592 z m 5.69101,10.58334 c -0.57291,0 -1.09643,-0.3235 -1.35255,-0.83573 l -2.79788,-5.59753 -5.59717,-2.79753 c -0.51223,-0.25717 -0.83573,-0.77963 -0.83573,-1.35255 0,-0.57255 0.3235,-1.09572 0.83573,-1.35255 l 5.59717,-2.79788 2.79788,-5.59717 c 0.51224,-1.024465 2.19287,-1.024465 2.7051,0 l 2.79753,5.59717 5.59858,2.79788 c 0.51153,0.25683 0.83609,0.78 0.83609,1.35255 0,0.57292 -0.32456,1.09538 -0.83609,1.35255 l -5.59858,2.79753 -2.79753,5.59753 c -0.25611,0.51223 -0.77964,0.83573 -1.35255,0.83573"
       style="fill:#496f3b;fill-opacity:1;fill-rule:nonzero;stroke:none;stroke-width:0.0352777"
       id="path2339" />
    <path
       d="m 72.040809,54.203643 h -3.02366 v -9.0709 h 3.02366 v 9.0709"
       style="fill:#496f3b;fill-opacity:1;fill-rule:nonzero;stroke:none;stroke-width:0.0352777"
       id="path2341" />
    <path
       d="m 75.064819,51.180093 h -9.07133 v -3.0237 h 9.07133 v 3.0237"
       style="fill:#496f3b;fill-opacity:1;fill-rule:nonzero;stroke:none;stroke-width:0.0352777"
       id="path2343" />
  </g>
</svg>
