<?xml version="1.0" encoding="UTF-8" standalone="no"?>
<svg
   xmlns:dc="http://purl.org/dc/elements/1.1/"
   xmlns:cc="http://creativecommons.org/ns#"
   xmlns:rdf="http://www.w3.org/1999/02/22-rdf-syntax-ns#"
   xmlns:svg="http://www.w3.org/2000/svg"
   xmlns="http://www.w3.org/2000/svg"
   xmlns:sodipodi="http://sodipodi.sourceforge.net/DTD/sodipodi-0.dtd"
   xmlns:inkscape="http://www.inkscape.org/namespaces/inkscape"
   width="70.001694mm"
   height="77.135971mm"
   viewBox="0 0 70.001694 77.135971"
   version="1.1"
   id="svg2951"
   sodipodi:docname="04.svg"
   inkscape:version="1.0.1 (3bc2e813f5, 2020-09-07)">
  <defs
     id="defs2945" />
  <sodipodi:namedview
     id="base"
     pagecolor="#ffffff"
     bordercolor="#666666"
     borderopacity="1.0"
     inkscape:pageopacity="0.0"
     inkscape:pageshadow="2"
     inkscape:zoom="0.35"
     inkscape:cx="-64.313529"
     inkscape:cy="-167.051"
     inkscape:document-units="mm"
     inkscape:current-layer="layer1"
     inkscape:document-rotation="0"
     showgrid="false"
     inkscape:window-width="1500"
     inkscape:window-height="1040"
     inkscape:window-x="192"
     inkscape:window-y="23"
     inkscape:window-maximized="0" />
  <metadata
     id="metadata2948">
    <rdf:RDF>
      <cc:Work
         rdf:about="">
        <dc:format>image/svg+xml</dc:format>
        <dc:type
           rdf:resource="http://purl.org/dc/dcmitype/StillImage" />
        <dc:title></dc:title>
      </cc:Work>
    </rdf:RDF>
  </metadata>
  <g
     inkscape:label="Слой 1"
     inkscape:groupmode="layer"
     id="layer1"
     transform="translate(-17.159868,-12.836797)">
    <path
       d="m 65.388115,59.265496 c -1.6263,1.29783 -3.45369,2.75731 -4.64255,5.55279 l -16.10784,4.22412 c -0.61383,-5.66169 -3.12561,-7.61259 -5.55977,-9.49744 -2.73403,-2.11889 -5.31637,-4.12048 -5.8667,-12.47744 -0.27164,-4.12891 1.24883,-8.18479 4.28272,-11.42047 3.63361,-3.88126 9.11578,-6.19795 14.66498,-6.19795 5.58447,0 11.09133,2.33609 14.732,6.24487 3.01272,3.23144 4.50849,7.26616 4.21569,11.36473 -0.57503,8.11001 -3.07269,10.10113 -5.71853,12.20679 z m 8.85472,-11.98524 c 0.35278,-4.97664 -1.43933,-9.85132 -5.05177,-13.72835 -4.28625,-4.60375 -10.49514,-7.24464 -17.03211,-7.24464 -6.49817,0 -12.67884,2.61973 -16.95803,7.19137 -3.63361,3.87703 -5.45395,8.76865 -5.12586,13.77351 0.64205,9.77014 4.06047,12.41957 7.07672,14.75563 2.29658,1.77973 4.10986,3.18421 4.43794,8.20385 0.0212,0.3175 0.13406,0.60565 0.31398,0.84215 0.007,0.0986 0.0212,0.19883 0.0459,0.29806 0.18697,0.70556 0.82197,1.17228 1.52047,1.17228 0.13053,0 0.26458,-0.0149 0.39864,-0.0508 l 18.3268,-4.80702 c 0.0988,-0.0183 0.19403,-0.0455 0.28928,-0.0821 0.0141,-0.006 0.0318,-0.0124 0.0494,-0.0183 0.0282,-0.0124 0.0564,-0.0226 0.0811,-0.0364 0.49036,-0.22434 0.82197,-0.68048 0.89958,-1.19807 0.87136,-2.26508 2.2472,-3.36476 3.83117,-4.62619 2.91747,-2.32354 6.223,-4.95804 6.8968,-14.44491"
       style="fill:#496f3b;fill-opacity:1;fill-rule:nonzero;stroke:none;stroke-width:0.0352777"
       id="path2345" />
    <path
       d="m 52.166005,86.830796 c -1.53105,0 -2.95275,-0.57283 -3.90525,-1.55221 l 8.91822,-2.33881 c -0.17639,2.16916 -2.35302,3.89102 -5.01297,3.89102 z m 9.39447,-8.28875 -18.48908,4.8489 c -0.83961,0.21939 -1.34056,1.07844 -1.12183,1.91836 0.18697,0.70556 0.82197,1.17229 1.52047,1.17229 0.13053,0 0.26458,-0.0151 0.39864,-0.0515 l 1.25236,-0.32837 c 0.0423,0.2395 0.13405,0.4735 0.2928,0.68047 1.524,1.99926 4.04637,3.19057 6.75217,3.19057 4.50497,0 8.17386,-3.28014 8.17386,-7.31271 0,-0.1845 -0.0388,-0.35951 -0.0988,-0.52391 l 2.11667,-0.55495 c 0.83961,-0.21939 1.34056,-1.07802 1.12183,-1.91809 -0.21872,-0.83785 -1.0795,-1.34511 -1.91911,-1.12102"
       style="fill:#496f3b;fill-opacity:1;fill-rule:nonzero;stroke:none;stroke-width:0.0352777"
       id="path2347" />
    <path
       d="m 61.560475,71.572176 -18.48908,4.85098 c -0.83961,0.21953 -1.34056,1.07886 -1.12183,1.91851 0.18697,0.70556 0.82197,1.17232 1.52047,1.17232 0.13053,0 0.26458,-0.0149 0.39864,-0.0513 l 18.48908,-4.85094 c 0.83961,-0.21982 1.34056,-1.07848 1.12183,-1.91838 -0.22225,-0.84006 -1.0795,-1.34305 -1.91911,-1.12119"
       style="fill:#496f3b;fill-opacity:1;fill-rule:nonzero;stroke:none;stroke-width:0.0352777"
       id="path2349" />
    <path
       d="m 52.793955,22.189286 c 0.86783,0 1.57338,-0.70308 1.57338,-1.57092 v -6.21065 c 0,-0.86748 -0.70555,-1.570919 -1.57338,-1.570919 -0.86784,0 -1.57339,0.703439 -1.57339,1.570919 v 6.21065 c 0,0.86784 0.70555,1.57092 1.57339,1.57092"
       style="fill:#496f3b;fill-opacity:1;fill-rule:nonzero;stroke:none;stroke-width:0.0352777"
       id="path2351" />
    <path
       d="m 74.232255,21.886606 -4.39208,4.39314 c -0.61384,0.61383 -0.61384,1.6069 0,2.22074 0.30691,0.30691 0.70908,0.46037 1.11125,0.46037 0.40216,0 0.80433,-0.15346 1.11125,-0.46037 l 4.39208,-4.39279 c 0.61383,-0.61383 0.61383,-1.60726 0,-2.22109 -0.61383,-0.61383 -1.60867,-0.61383 -2.2225,0"
       style="fill:#496f3b;fill-opacity:1;fill-rule:nonzero;stroke:none;stroke-width:0.0352777"
       id="path2353" />
    <path
       d="m 85.588175,45.622196 h -6.21242 c -0.86783,0 -1.56986,0.70344 -1.56986,1.57092 0,0.86748 0.70203,1.57057 1.56986,1.57057 h 6.21242 c 0.86783,0 1.57339,-0.70309 1.57339,-1.57057 0,-0.86748 -0.70556,-1.57092 -1.57339,-1.57092"
       style="fill:#496f3b;fill-opacity:1;fill-rule:nonzero;stroke:none;stroke-width:0.0352777"
       id="path2355" />
    <path
       d="m 71.163085,64.877546 c -0.61383,-0.6139 -1.60866,-0.6139 -2.2225,0 -0.61383,0.61377 -0.61383,1.6068 0,2.22099 l 4.39561,4.39289 c 0.30692,0.30692 0.70909,0.45999 1.11125,0.45999 0.40217,0 0.80434,-0.15307 1.11125,-0.45999 0.61384,-0.6139 0.61384,-1.60732 0,-2.22112 l -4.39561,-4.39276"
       style="fill:#496f3b;fill-opacity:1;fill-rule:nonzero;stroke:none;stroke-width:0.0352777"
       id="path2357" />
    <path
       d="m 33.154815,28.498366 c 0.30691,0.30692 0.70908,0.46038 1.11125,0.46038 0.40216,0 0.80433,-0.15346 1.11125,-0.46038 0.61383,-0.61383 0.61383,-1.60937 0,-2.22074 l -4.39209,-4.39102 c -0.61383,-0.61383 -1.60866,-0.61383 -2.2225,0 -0.61383,0.61383 -0.61383,1.60937 0,2.22109 l 4.39209,4.39067"
       style="fill:#496f3b;fill-opacity:1;fill-rule:nonzero;stroke:none;stroke-width:0.0352777"
       id="path2359" />
    <path
       d="m 24.945675,44.353966 h -6.212419 c -0.867833,0 -1.573388,0.70344 -1.573388,1.57092 0,0.86748 0.705555,1.57092 1.573388,1.57092 h 6.212419 c 0.8643,0 1.56986,-0.70344 1.56986,-1.57092 0,-0.86748 -0.70556,-1.57092 -1.56986,-1.57092"
       style="fill:#496f3b;fill-opacity:1;fill-rule:nonzero;stroke:none;stroke-width:0.0352777"
       id="path2361" />
    <path
       d="m 32.258755,64.877546 -4.39208,4.39276 c -0.61384,0.6138 -0.61384,1.60722 0,2.22112 0.30691,0.30692 0.70908,0.45999 1.11125,0.45999 0.40216,0 0.80433,-0.15307 1.11125,-0.45999 l 4.39208,-4.39289 c 0.61383,-0.61419 0.61383,-1.60722 0,-2.22099 -0.61383,-0.6139 -1.60867,-0.6139 -2.2225,0"
       style="fill:#496f3b;fill-opacity:1;fill-rule:nonzero;stroke:none;stroke-width:0.0352777"
       id="path2363" />
    <path
       d="m 62.424785,40.419436 c -0.75142,-0.43286 -1.7145,-0.16404 -2.14136,0.59231 l -8.9535,15.80483 -5.30931,-7.31312 c -0.51153,-0.70308 -1.49578,-0.85901 -2.19428,-0.3496 -0.70202,0.51153 -0.86077,1.49437 -0.34925,2.19569 l 6.74512,9.28832 c 0.29633,0.40915 0.76905,0.64795 1.27,0.64795 0.0317,0 0.06,0 0.0917,-0.002 0.53269,-0.0301 1.01247,-0.32812 1.27705,-0.79513 l 10.15648,-17.9292 c 0.42686,-0.75459 0.16227,-1.7138 -0.59267,-2.13995"
       style="fill:#496f3b;fill-opacity:1;fill-rule:nonzero;stroke:none;stroke-width:0.0352777"
       id="path2365" />
  </g>
</svg>
