<svg xmlns="http://www.w3.org/2000/svg" height="512pt" viewBox="0 -11 512.001 512" width="512pt"><path fill="#496f3b" d="M449.418 339.477c6.8 0 12.75-4.618 14.5-11.192L511.5 149.094a15.026 15.026 0 00-2.332-12.633 15 15 0 00-11.242-6.207l-410.528-25.36-11.132-68.53a15.01 15.01 0 00-7.977-10.95L21.836 1.648C14.46-2.122 5.422.797 1.648 8.172c-3.773 7.375-.851 16.41 6.524 20.183l39.7 20.313 44.792 275.75-7.531 47.52c-28.195 4.824-49.727 29.437-49.727 59.003 0 33.02 26.848 60.047 59.848 60.047 30.559 0 55.828-23.511 59.394-52.511h204.797c3.567 29 28.836 52.511 59.395 52.511 33 0 59.848-26.945 59.848-59.965 0-33.015-26.848-59.753-59.848-59.753-24.934 0-46.344 15.207-55.328 37.207h-212.93c-6.477-16-19.414-28.133-35.473-33.805l5.559-35.195zm-30.578 61.586c16.457 0 29.848 13.402 29.848 29.878 0 16.477-13.391 29.883-29.848 29.883-16.453 0-29.844-13.406-29.844-29.883 0-16.476 13.39-29.878 29.844-29.878zM125.098 430.94c0 16.477-13.387 29.883-29.844 29.883s-29.848-13.406-29.848-29.883c0-16.476 13.39-29.878 29.848-29.878 16.457 0 29.844 13.402 29.844 29.878zm-32.77-295.644l385.477 23.832-39.922 150.348h-317.27zm0 0"/></svg>