<?xml version="1.0" encoding="UTF-8" standalone="no"?>
<svg
   xmlns:dc="http://purl.org/dc/elements/1.1/"
   xmlns:cc="http://creativecommons.org/ns#"
   xmlns:rdf="http://www.w3.org/1999/02/22-rdf-syntax-ns#"
   xmlns:svg="http://www.w3.org/2000/svg"
   xmlns="http://www.w3.org/2000/svg"
   height="512pt"
   viewBox="0 -11 512.00089 512"
   width="512pt"
   version="1.1"
   id="svg901">
  <metadata
     id="metadata907">
    <rdf:RDF>
      <cc:Work
         rdf:about="">
        <dc:format>image/svg+xml</dc:format>
        <dc:type
           rdf:resource="http://purl.org/dc/dcmitype/StillImage" />
        <dc:title></dc:title>
      </cc:Work>
    </rdf:RDF>
  </metadata>
  <defs
     id="defs905" />
  <path
    fill="#496f3b"
     d="m449.417969 339.476562c6.800781 0 12.75-4.617187 14.5-11.191406l47.582031-179.191406c1.152344-4.34375.296875-8.988281-2.332031-12.632812-2.628907-3.648438-6.753907-5.929688-11.242188-6.207032l-410.527343-25.359375-11.132813-68.53125c-.765625-4.707031-3.726563-8.773437-7.976563-10.949219l-46.453124-23.765624c-7.375-3.769532-16.414063-.851563-20.1875 6.523437-3.773438 7.375-.851563 16.410156 6.523437 20.183594l39.699219 20.3125 44.792968 275.75-7.53125 47.519531c-28.195312 4.824219-49.726562 29.4375-49.726562 59.003906 0 33.019532 26.847656 60.046875 59.847656 60.046875 30.558594 0 55.828125-23.511719 59.394532-52.511719h204.796874c3.566407 29 28.835938 52.511719 59.394532 52.511719 33 0 59.847656-26.945312 59.847656-59.964843 0-33.015626-26.847656-59.753907-59.847656-59.753907-24.933594 0-46.34375 15.207031-55.328125 37.207031h-212.929688c-6.476562-16-19.414062-28.132812-35.472656-33.804687l5.558594-35.195313zm-30.578125 61.585938c16.457031 0 29.847656 13.402344 29.847656 29.878906 0 16.476563-13.390625 29.882813-29.847656 29.882813-16.453125 0-29.84375-13.40625-29.84375-29.882813 0-16.476562 13.390625-29.878906 29.84375-29.878906zm-293.742188 29.878906c0 16.476563-13.386718 29.882813-29.84375 29.882813-16.457031 0-29.847656-13.40625-29.847656-29.882813 0-16.476562 13.390625-29.878906 29.847656-29.878906 16.457032 0 29.84375 13.402344 29.84375 29.878906zm-32.769531-295.644531 385.476563 23.832031-39.921876 150.347656h-317.269531zm0 0"
     id="path897" />
</svg>
