<?xml version="1.0" encoding="utf-8"?>
<!-- Svg Vector Icons : http://www.onlinewebfonts.com/icon -->
<!DOCTYPE svg PUBLIC "-//W3C//DTD SVG 1.1//EN" "http://www.w3.org/Graphics/SVG/1.1/DTD/svg11.dtd">
<svg fill="#fff" version="1.1" xmlns="http://www.w3.org/2000/svg" xmlns:xlink="http://www.w3.org/1999/xlink" x="0px" y="0px" viewBox="0 0 1000 1000" enable-background="new 0 0 1000 1000" xml:space="preserve">
<metadata> Svg Vector Icons : http://www.onlinewebfonts.com/icon </metadata>
<g><path d="M500,990C229.4,990,10,770.6,10,500C10,229.4,229.4,10,500,10c270.6,0,490,219.4,490,490C990,770.6,770.6,990,500,990z M173.3,657.5c0,25.8,24.4,46.7,54.4,46.7h544.5c30.1,0,54.4-20.9,54.4-46.7v-315c0-25.8-24.4-46.7-54.4-46.7H227.8c-30.1,0-54.4,20.9-54.4,46.7V657.5z M373.7,500.4L249.1,392.9c-10.3-8.9-10.3-23.2,0-32.1c10.4-8.9,27.1-8.9,37.4,0l198.7,170.6c8,6.8,21.2,6.8,29.1,0l199-170.6c10.3-8.9,27.1-8.9,37.4,0c10.3,8.9,10.3,23.2,0,32.1L626.2,500.4l124.7,106.7c10.3,8.9,10.3,23.2,0,32.1c-10.3,8.9-27.1,8.9-37.4,0L588.9,532.5c0,0-38.9,33.9-46,40c-11,9.2-26.3,14.9-42.9,14.9c-16.9,0-32.1-5.8-43.2-15.3c-7.2-6-45.9-39.6-45.9-39.6L286.6,639.2c-10.3,8.9-27.1,8.9-37.4,0c-10.3-8.9-10.3-23.2,0-32.1L373.7,500.4z"/></g>
</svg>