<svg fill="#fff" xmlns="http://www.w3.org/2000/svg" width="47.834" height="20.834"><path d="M20.56 17.572l2.433-14.266h-3.89l-2.431 14.266zm-7.148-14.25l-3.808 9.73-.406-1.47c-.751-1.77-2.883-4.312-5.386-5.914l3.482 11.897 4.114-.007L17.53 3.32z"/><path d="M7.722 4.343c-.226-.869-.881-1.128-1.694-1.159H0l-.05.284c4.69 1.138 7.795 3.88 9.083 7.177zm23.151 1.698a7.178 7.178 0 012.91.546l.35.165.527-3.092c-.77-.289-1.977-.599-3.483-.599-3.842 0-6.55 1.935-6.571 4.708-.025 2.05 1.929 3.193 3.405 3.876 1.515.7 2.023 1.145 2.016 1.77-.012.955-1.208 1.393-2.325 1.393-1.557 0-2.384-.215-3.661-.747l-.501-.228-.547 3.193c.91.4 2.589.742 4.332.76 4.087 0 6.743-1.912 6.77-4.875.018-1.62-1.02-2.858-3.266-3.873-1.36-.662-2.192-1.102-2.184-1.77 0-.593.706-1.227 2.228-1.227zm13.765-2.719h-3.004c-.933 0-1.627.254-2.037 1.184L33.824 17.58h4.083s.666-1.758.817-2.143l4.979.006c.116.498.474 2.137.474 2.137h3.607zm-4.795 9.195c.32-.819 1.549-3.987 1.549-3.987-.021.04.317-.825.518-1.362l.262 1.23.9 4.12z"/></svg>