<?xml version="1.0" encoding="UTF-8" standalone="no"?>
<svg
   xmlns:dc="http://purl.org/dc/elements/1.1/"
   xmlns:cc="http://creativecommons.org/ns#"
   xmlns:rdf="http://www.w3.org/1999/02/22-rdf-syntax-ns#"
   xmlns:svg="http://www.w3.org/2000/svg"
   xmlns="http://www.w3.org/2000/svg"
   xmlns:sodipodi="http://sodipodi.sourceforge.net/DTD/sodipodi-0.dtd"
   xmlns:inkscape="http://www.inkscape.org/namespaces/inkscape"
   width="1554.29pt"
   height="192.1116pt"
   viewBox="0 0 1554.29 192.1116"
   version="1.1"
   id="svg1040"
   sodipodi:docname="logo-raespira-copper2.svg"
   inkscape:version="1.0.1 (0767f8302a, 2020-10-17)">
  <metadata
     id="metadata1046">
    <rdf:RDF>
      <cc:Work
         rdf:about="">
        <dc:format>image/svg+xml</dc:format>
        <dc:type
           rdf:resource="http://purl.org/dc/dcmitype/StillImage" />
        <dc:title></dc:title>
      </cc:Work>
    </rdf:RDF>
  </metadata>
  <defs
     id="defs1044" />
  <sodipodi:namedview
     pagecolor="#ffffff"
     bordercolor="#666666"
     borderopacity="1"
     objecttolerance="10"
     gridtolerance="10"
     guidetolerance="10"
     inkscape:pageopacity="0"
     inkscape:pageshadow="2"
     inkscape:window-width="1920"
     inkscape:window-height="972"
     id="namedview1042"
     showgrid="false"
     inkscape:zoom="0.52748963"
     inkscape:cx="974.93333"
     inkscape:cy="-448.23997"
     inkscape:window-x="0"
     inkscape:window-y="27"
     inkscape:window-maximized="1"
     inkscape:current-layer="svg1040" />
  <g
     id="#d19676ff"
     transform="translate(-214.72705,-167.77766)">
    <path
       fill="#d19676"
       opacity="1"
       d="m 793.56,188.52 c 15.43,-10.01 34.45,-12.42 52.47,-11.71 18.03,0.91 36.36,5.13 51.7,14.98 -3.23,8.19 -6.69,16.29 -9.86,24.5 -17.62,-10.2 -38.48,-15.42 -58.8,-12.68 -7.25,0.97 -14.75,3.19 -20.04,8.5 -5.55,5.32 -7.4,14.16 -4.29,21.21 2.8,5.74 8.76,9.04 14.42,11.41 17.07,6.25 35.26,8.7 52.34,14.93 10.79,3.6 20.7,10.22 27.4,19.5 6.07,9.43 7.06,21.38 5.08,32.21 -2.49,13.04 -11.27,24.39 -22.77,30.84 -19.28,11.19 -42.66,12.03 -64.26,9.26 -17.3,-2.68 -34.95,-7.82 -48.71,-19.09 3.59,-8.19 7.32,-16.32 10.87,-24.52 17.36,12.92 39.29,19.42 60.88,18.68 9.49,-0.52 19.77,-1.85 27.27,-8.25 5.38,-4.4 7.74,-11.94 5.92,-18.63 -1.01,-4.29 -4.16,-7.71 -7.73,-10.11 -6.39,-4.44 -14.08,-6.28 -21.45,-8.37 -14.33,-3.87 -28.96,-6.79 -42.81,-12.24 -8.77,-3.47 -16.69,-9.22 -22.42,-16.74 -6.38,-8.97 -7.77,-20.6 -6.4,-31.29 1.76,-13.27 9.9,-25.31 21.19,-32.39 z"
       id="path999" />
    <path
       fill="#d19676"
       opacity="1"
       d="m 232.81,177.93 c 26.74,0.02 53.48,-0.07 80.23,0.04 16.35,0.16 33.02,6.63 43.74,19.26 9.76,11.08 14.6,26.02 14.17,40.7 0.03,12.37 -4.38,24.96 -13.25,33.76 -5.21,5.44 -11.74,9.34 -18.41,12.71 12.76,22.76 25.61,45.47 38.4,68.22 -10.93,-0.04 -21.86,0.13 -32.79,-0.09 -11.54,-20.8 -23.47,-41.38 -35.06,-62.16 -16.08,-0.03 -32.16,-0.01 -48.24,-0.01 -0.01,20.74 0.05,41.49 -0.03,62.24 -9.58,0.06 -19.17,0.02 -28.76,0.03 -0.01,-30.28 -0.01,-60.55 0,-90.82 26.42,-0.02 52.84,0.03 79.27,-0.02 8.58,-0.05 17.98,-2.03 23.97,-8.66 5.94,-6.41 6.67,-16.01 4.76,-24.18 -1.89,-8.57 -7.77,-16.3 -15.89,-19.81 -5.28,-2.38 -11.16,-2.8 -16.87,-2.75 -25.08,0.02 -50.17,0 -75.25,0.01 0.01,-9.49 0,-18.98 0.01,-28.47 z"
       id="path1001" />
    <path
       fill="#d19676"
       opacity="1"
       d="m 1225.02,178.2 c 8.34,-0.04 16.67,-0.01 25.01,-0.02 0.01,58.15 0.01,116.29 0,174.44 -8.34,0.07 -16.68,0.06 -25.02,0.01 -0.03,-58.14 -0.05,-116.29 0.01,-174.43 z"
       id="path1003" />
    <path
       fill="#d19676"
       opacity="1"
       d="m 1358.61,177.92 c 26.49,0.03 52.98,-0.04 79.47,0.03 15.46,0.09 31.31,5.55 42.16,16.85 15.24,15.35 20.27,39.52 13.65,59.93 -4.47,13.65 -15.98,23.84 -28.88,29.48 12.59,22.91 25.59,45.62 38.43,68.39 -10.89,0.06 -21.79,0.02 -32.68,0.02 -11.76,-20.75 -23.53,-41.5 -35.25,-62.27 -16.07,0 -32.14,0.02 -48.21,-0.01 0.03,20.76 0,41.53 0.01,62.29 -9.57,0 -19.14,0 -28.71,0 0.01,-30.28 0,-60.55 0,-90.83 26.8,-0.02 53.59,0.07 80.38,-0.04 9.84,-0.14 21.08,-3.57 25.8,-12.97 6.33,-13.33 1.13,-31.45 -12.03,-38.6 -5.66,-3.2 -12.31,-3.85 -18.7,-3.8 -25.15,0.02 -50.31,-0.02 -75.46,0.02 0.03,-9.5 0,-18.99 0.02,-28.49 z"
       id="path1005" />
    <path
       fill="#d19676"
       opacity="1"
       d="m 1657.3,178.16 c 7.17,-0.05 14.35,-0.09 21.53,-0.03 26.73,58.19 53.51,116.35 80.26,174.52 -9.15,0.02 -18.3,0.01 -27.43,0.01 -21.2,-45.91 -42.2,-91.91 -63.46,-137.79 -20.46,45.96 -41.12,91.83 -61.6,137.79 -9.13,0 -18.25,0.03 -27.38,-0.02 26.08,-58.14 52.11,-116.3 78.08,-174.48 z"
       id="path1007" />
    <path
       fill="#d19676"
       opacity="1"
       d="m 1000.27,178.77 c 20.57,0.01 41.15,0 61.72,0 5.99,0.04 12.04,-0.25 17.99,0.76 16.04,2.54 30.65,12.47 39.17,26.26 8.26,12.99 10.69,29.47 6.69,44.32 -4.88,18.82 -20.09,34.52 -38.74,40 -5.56,1.73 -11.4,2.38 -17.2,2.38 -14.87,0.06 -29.74,0 -44.6,0.03 -0.02,20.05 -0.01,40.09 0,60.14 -8.35,0.01 -16.69,0 -25.03,0 0,-57.96 0,-115.93 0,-173.89 m 25.03,88.71 c 15.88,-0.06 31.77,0.14 47.65,-0.1 16.16,-0.57 30.05,-15.28 29.76,-31.44 0.58,-16.27 -13.26,-31.31 -29.53,-32.04 -15.96,-0.23 -31.92,-0.01 -47.89,-0.11 0,21.23 -0.01,42.46 0.01,63.69 z"
       id="path1009" />
    <path
       fill="#d19676"
       opacity="1"
       d="m 546.11,180.6 c 45.34,0.01 90.69,0 136.04,0.01 -0.01,8.31 0,16.62 -0.01,24.94 -32.25,0.11 -64.49,0.01 -96.74,0.05 -0.01,15.12 -0.01,30.24 0,45.37 28.37,0.05 56.75,-0.06 85.13,0.06 0.03,8.32 0.05,16.64 -0.01,24.96 -28.38,0.04 -56.75,0 -85.12,0.02 -0.02,17.24 0.01,34.47 -0.02,51.71 32.26,-0.02 64.51,-0.01 96.76,-0.01 0,8.32 0.01,16.64 0,24.95 -40.58,0.01 -81.15,0.02 -121.73,0 -0.02,-13.82 0.01,-27.63 -0.01,-41.45 -20.06,0.01 -40.11,-0.03 -60.17,0.02 -7.82,13.83 -15.78,27.59 -23.59,41.44 -9.58,0 -19.16,0 -28.74,0 32.72,-57.37 65.49,-114.7 98.21,-172.07 m 1.42,47.85 c -11,19.24 -21.96,38.5 -32.99,57.73 15.29,0.01 30.58,0 45.86,0 -0.07,-26.53 0.17,-53.07 -0.12,-79.6 -4.6,7.07 -8.45,14.6 -12.75,21.87 z"
       id="path1011" />
  </g>
</svg>
