<?xml version="1.0" encoding="UTF-8" standalone="no"?>
<svg
   xmlns:dc="http://purl.org/dc/elements/1.1/"
   xmlns:cc="http://creativecommons.org/ns#"
   xmlns:rdf="http://www.w3.org/1999/02/22-rdf-syntax-ns#"
   xmlns:svg="http://www.w3.org/2000/svg"
   xmlns="http://www.w3.org/2000/svg"
   xmlns:xlink="http://www.w3.org/1999/xlink"
   xmlns:sodipodi="http://sodipodi.sourceforge.net/DTD/sodipodi-0.dtd"
   xmlns:inkscape="http://www.inkscape.org/namespaces/inkscape"
   width="1554.5703pt"
   height="197.11903pt"
   viewBox="0 0 1554.5703 197.11903"
   version="1.1"
   id="svg1190"
   sodipodi:docname="logo-raespira-white2.svg"
   inkscape:version="1.0.1 (0767f8302a, 2020-10-17)">
  <metadata
     id="metadata1196">
    <rdf:RDF>
      <cc:Work
         rdf:about="">
        <dc:format>image/svg+xml</dc:format>
        <dc:type
           rdf:resource="http://purl.org/dc/dcmitype/StillImage" />
        <dc:title></dc:title>
      </cc:Work>
    </rdf:RDF>
  </metadata>
  <defs
     id="defs1194">
    <color-profile
       name="Artifex-PS-RGB-Profile"
       xlink:href="file:///snap/inkscape/8049/usr/share/color/icc/ghostscript/ps_rgb.icc"
       id="color-profile1759" />
  </defs>
  <sodipodi:namedview
     pagecolor="#ffffff"
     bordercolor="#666666"
     borderopacity="1"
     objecttolerance="10"
     gridtolerance="10"
     guidetolerance="10"
     inkscape:pageopacity="0"
     inkscape:pageshadow="2"
     inkscape:window-width="1920"
     inkscape:window-height="972"
     id="namedview1192"
     showgrid="false"
     inkscape:zoom="0.43680715"
     inkscape:cx="927.7151"
     inkscape:cy="-325.56971"
     inkscape:window-x="0"
     inkscape:window-y="27"
     inkscape:window-maximized="1"
     inkscape:current-layer="#ffffffff" />
  <g
     id="#ffffffff"
     style="stroke:#000000;stroke-opacity:1"
     transform="translate(-232.29947,-176.19777)">
    <path
       fill="#ffffff"
       opacity="1"
       d="m 808.55798,197.16351 c 16.2,-10.19 36.06,-12.27 54.78,-11.15 17.05,1.24 34.28,5.49 48.79,14.82 -3.25,8.19 -6.68,16.3 -9.88,24.5 -17.64,-10.22 -38.55,-15.43 -58.89,-12.67 -7.19,0.98 -14.62,3.19 -19.89,8.44 -5.53,5.28 -7.4,14.01 -4.43,21.06 2.59,5.58 8.25,8.86 13.65,11.27 16.78,6.37 34.74,8.73 51.64,14.74 11.84,3.74 23.01,10.84 29.81,21.41 7.19,13.07 6.74,29.81 -0.08,42.95 -6.67,12.86 -19.75,21.04 -33.27,25.2 -16.44,4.95 -34.01,4.96 -50.9,2.58 -16.8,-2.81 -33.89,-7.91 -47.26,-18.89 3.59,-8.19 7.32,-16.32 10.87,-24.53 17.33,12.92 39.23,19.41 60.79,18.7 9.53,-0.53 19.83,-1.85 27.37,-8.26 5.58,-4.57 7.9,-12.54 5.68,-19.4 -1.29,-4.47 -4.92,-7.77 -8.75,-10.16 -6.8,-4.25 -14.73,-5.96 -22.35,-8.13 -13.67,-3.58 -27.58,-6.51 -40.77,-11.7 -8.73,-3.48 -16.61,-9.22 -22.32,-16.71 -6.38,-8.99 -7.78,-20.64 -6.38,-31.35 1.81,-13.5 10.22,-25.68 21.79,-32.72 z"
       id="path1149"
       style="stroke:#ffffff;stroke-opacity:1" />
    <path
       fill="#ffffff"
       opacity="1"
       d="m 247.18798,186.96351 c 26.4,0.01 52.8,-0.02 79.2,0.02 13.65,0.05 27.54,4.12 38.18,12.87 13.65,11 21.1,28.68 20.78,46.08 0.2,11.97 -3.59,24.26 -11.75,33.19 -5.47,6.12 -12.44,10.75 -19.86,14.15 12.51,22.94 25.61,45.57 38.34,68.39 -10.9,-0.01 -21.81,0.07 -32.72,-0.04 -11.62,-20.78 -23.51,-41.41 -35.12,-62.21 -16.08,-0.03 -32.16,0 -48.25,-0.02 -0.01,20.75 0.05,41.5 -0.02,62.25 -9.59,0.07 -19.18,0.02 -28.77,0.03 -0.01,-30.27 0,-60.55 -0.01,-90.82 26.4,-0.02 52.8,0.02 79.2,-0.02 8.62,-0.04 18.06,-2.02 24.07,-8.69 5.69,-6.12 6.56,-15.24 4.97,-23.12 -1.57,-8.22 -6.67,-15.83 -14.09,-19.84 -5.14,-2.85 -11.09,-3.71 -16.88,-3.74 -25.76,0 -51.52,-0.01 -77.27,0 0.01,-9.49 0,-18.99 0,-28.48 z"
       id="path1151"
       style="stroke:#ffffff;stroke-opacity:1" />
    <path
       fill="#ffffff"
       opacity="1"
       d="m 1239.408,187.25351 c 8.33,-0.06 16.67,-0.01 25.01,-0.03 0.01,58.15 0.01,116.3 0,174.45 -8.34,0.06 -16.68,0.05 -25.02,0 -0.04,-58.14 -0.04,-116.28 0.01,-174.42 z"
       id="path1153"
       style="stroke:#ffffff;stroke-opacity:1" />
    <path
       fill="#ffffff"
       opacity="1"
       d="m 1372.988,186.96351 c 26.49,0.03 52.98,-0.04 79.47,0.03 16.16,0.06 32.74,6.1 43.61,18.38 14.14,15.39 18.6,38.66 12.21,58.41 -4.47,13.67 -16.01,23.82 -28.89,29.49 12.64,22.89 25.59,45.61 38.44,68.38 -10.89,0.05 -21.79,0.01 -32.68,0.02 -11.76,-20.75 -23.53,-41.5 -35.25,-62.28 -16.07,0 -32.14,0.02 -48.21,-0.01 0.03,20.76 0,41.53 0.01,62.29 -9.57,0 -19.14,0 -28.71,0 0.01,-30.27 0,-60.55 0,-90.83 26.8,-0.02 53.6,0.07 80.4,-0.04 9.83,-0.15 21.05,-3.57 25.78,-12.96 6.33,-13.34 1.13,-31.47 -12.04,-38.61 -6.88,-3.92 -15.05,-3.9 -22.73,-3.8 -23.81,0.02 -47.61,-0.01 -71.42,0.02 0.03,-9.5 0,-18.99 0.01,-28.49 z"
       id="path1155"
       style="stroke:#ffffff;stroke-opacity:1" />
    <path
       fill="#ffffff"
       opacity="1"
       d="m 1671.688,187.19351 c 7.17,-0.04 14.35,-0.08 21.53,-0.02 26.73,58.19 53.51,116.35 80.26,174.53 -9.15,0.01 -18.29,0 -27.44,0 -21.19,-45.91 -42.2,-91.91 -63.45,-137.8 -20.45,45.97 -41.12,91.84 -61.6,137.8 -9.13,-0.01 -18.26,0.03 -27.38,-0.02 26.08,-58.14 52.11,-116.3 78.08,-174.49 z"
       id="path1157"
       style="stroke:#ffffff;stroke-opacity:1" />
    <path
       fill="#ffffff"
       opacity="1"
       d="m 1014.658,187.81351 c 20.91,0.01 41.82,0 62.72,0 5.4,0.03 10.84,-0.2 16.21,0.65 16.35,2.33 31.31,12.36 39.96,26.38 6.78,10.68 9.65,23.74 8.2,36.28 -1.84,17 -11.99,32.79 -26.51,41.77 -8.97,5.72 -19.62,8.7 -30.25,8.63 -15.1,0.09 -30.2,0.01 -45.3,0.04 -0.01,20.05 -0.01,40.1 0,60.14 -8.35,0 -16.69,0 -25.03,0 0,-57.96 0,-115.93 0,-173.89 m 25.03,88.71 c 15.24,0 30.48,0.02 45.72,-0.01 7.33,0.01 14.6,-2.64 20.23,-7.32 9,-7.32 13.3,-19.81 10.77,-31.12 -2.71,-13.95 -15.79,-25.02 -30.04,-25.19 -15.56,-0.1 -31.13,0.01 -46.69,-0.05 0.01,21.23 -0.01,42.46 0.01,63.69 z"
       id="path1159"
       style="stroke:#ffffff;stroke-opacity:1" />
    <path
       fill="#ffffff"
       opacity="1"
       d="m 560.48798,189.64351 c 45.35,0.01 90.7,0 136.05,0 -0.02,8.32 0,16.64 -0.01,24.95 -32.25,0.1 -64.49,0.02 -96.74,0.05 0,15.12 -0.01,30.25 0,45.37 28.37,0.01 56.74,0 85.11,0.01 0.07,8.33 0.06,16.67 0.01,25 -28.37,0.06 -56.75,0.01 -85.12,0.03 -0.02,17.24 0.02,34.47 -0.02,51.71 32.26,-0.03 64.51,-0.01 96.77,-0.01 -0.01,8.32 0,16.64 -0.01,24.96 -40.58,0 -81.15,0.01 -121.73,-0.01 -0.02,-13.81 0.01,-27.63 -0.01,-41.45 -20.06,0.01 -40.12,-0.03 -60.18,0.02 -7.8,13.84 -15.77,27.59 -23.57,41.44 -9.59,0 -19.18,0 -28.76,0 32.73,-57.36 65.5,-114.7 98.21,-172.07 m -31.56,105.58 c 15.29,0.01 30.57,0 45.86,0 -0.09,-26.56 0.18,-53.13 -0.13,-79.69 -15.53,26.39 -30.4,53.18 -45.73,79.69 z"
       id="path1161"
       style="stroke:#ffffff;stroke-opacity:1" />
  </g>
</svg>
