<?xml version="1.0" encoding="UTF-8" ?>
<!DOCTYPE svg PUBLIC "-//W3C//DTD SVG 1.1//EN" "http://www.w3.org/Graphics/SVG/1.1/DTD/svg11.dtd">
<svg width="1928pt" height="591pt" viewBox="0 0 1928 591" version="1.1" xmlns="http://www.w3.org/2000/svg">
<g id="#d19676ff">
<path fill="#d19676" opacity="1.00" d=" M 793.56 188.52 C 808.99 178.51 828.01 176.10 846.03 176.81 C 864.06 177.72 882.39 181.94 897.73 191.79 C 894.50 199.98 891.04 208.08 887.87 216.29 C 870.25 206.09 849.39 200.87 829.07 203.61 C 821.82 204.58 814.32 206.80 809.03 212.11 C 803.48 217.43 801.63 226.27 804.74 233.32 C 807.54 239.06 813.50 242.36 819.16 244.73 C 836.23 250.98 854.42 253.43 871.50 259.66 C 882.29 263.26 892.20 269.88 898.90 279.16 C 904.97 288.59 905.96 300.54 903.98 311.37 C 901.49 324.41 892.71 335.76 881.21 342.21 C 861.93 353.40 838.55 354.24 816.95 351.47 C 799.65 348.79 782.00 343.65 768.24 332.38 C 771.83 324.19 775.56 316.06 779.11 307.86 C 796.47 320.78 818.40 327.28 839.99 326.54 C 849.48 326.02 859.76 324.69 867.26 318.29 C 872.64 313.89 875.00 306.35 873.18 299.66 C 872.17 295.37 869.02 291.95 865.45 289.55 C 859.06 285.11 851.37 283.27 844.00 281.18 C 829.67 277.31 815.04 274.39 801.19 268.94 C 792.42 265.47 784.50 259.72 778.77 252.20 C 772.39 243.23 771.00 231.60 772.37 220.91 C 774.13 207.64 782.27 195.60 793.56 188.52 Z" />
<path fill="#d19676" opacity="1.00" d=" M 232.81 177.93 C 259.55 177.95 286.29 177.86 313.04 177.97 C 329.39 178.13 346.06 184.60 356.78 197.23 C 366.54 208.31 371.38 223.25 370.95 237.93 C 370.98 250.30 366.57 262.89 357.70 271.69 C 352.49 277.13 345.96 281.03 339.29 284.40 C 352.05 307.16 364.90 329.87 377.69 352.62 C 366.76 352.58 355.83 352.75 344.90 352.53 C 333.36 331.73 321.43 311.15 309.84 290.37 C 293.76 290.34 277.68 290.36 261.60 290.36 C 261.59 311.10 261.65 331.85 261.57 352.60 C 251.99 352.66 242.40 352.62 232.81 352.63 C 232.80 322.35 232.80 292.08 232.81 261.81 C 259.23 261.79 285.65 261.84 312.08 261.79 C 320.66 261.74 330.06 259.76 336.05 253.13 C 341.99 246.72 342.72 237.12 340.81 228.95 C 338.92 220.38 333.04 212.65 324.92 209.14 C 319.64 206.76 313.76 206.34 308.05 206.39 C 282.97 206.41 257.88 206.39 232.80 206.40 C 232.81 196.91 232.80 187.42 232.81 177.93 Z" />
<path fill="#d19676" opacity="1.00" d=" M 1225.02 178.20 C 1233.36 178.16 1241.69 178.19 1250.03 178.18 C 1250.04 236.33 1250.04 294.47 1250.03 352.62 C 1241.69 352.69 1233.35 352.68 1225.01 352.63 C 1224.98 294.49 1224.96 236.34 1225.02 178.20 Z" />
<path fill="#d19676" opacity="1.00" d=" M 1358.61 177.92 C 1385.10 177.95 1411.59 177.88 1438.08 177.95 C 1453.54 178.04 1469.39 183.50 1480.24 194.80 C 1495.48 210.15 1500.51 234.32 1493.89 254.73 C 1489.42 268.38 1477.91 278.57 1465.01 284.21 C 1477.60 307.12 1490.60 329.83 1503.44 352.60 C 1492.55 352.66 1481.65 352.62 1470.76 352.62 C 1459.00 331.87 1447.23 311.12 1435.51 290.35 C 1419.44 290.35 1403.37 290.37 1387.30 290.34 C 1387.33 311.10 1387.30 331.87 1387.31 352.63 C 1377.74 352.63 1368.17 352.63 1358.60 352.63 C 1358.61 322.35 1358.60 292.08 1358.60 261.80 C 1385.40 261.78 1412.19 261.87 1438.98 261.76 C 1448.82 261.62 1460.06 258.19 1464.78 248.79 C 1471.11 235.46 1465.91 217.34 1452.75 210.19 C 1447.09 206.99 1440.44 206.34 1434.05 206.39 C 1408.90 206.41 1383.74 206.37 1358.59 206.41 C 1358.62 196.91 1358.59 187.42 1358.61 177.92 Z" />
<path fill="#d19676" opacity="1.00" d=" M 1657.30 178.16 C 1664.47 178.11 1671.65 178.07 1678.83 178.13 C 1705.56 236.32 1732.34 294.48 1759.09 352.65 C 1749.94 352.67 1740.79 352.66 1731.66 352.66 C 1710.46 306.75 1689.46 260.75 1668.20 214.87 C 1647.74 260.83 1627.08 306.70 1606.60 352.66 C 1597.47 352.66 1588.35 352.69 1579.22 352.64 C 1605.30 294.50 1631.33 236.34 1657.30 178.16 Z" />
<path fill="#d19676" opacity="1.00" d=" M 1000.27 178.77 C 1020.84 178.78 1041.42 178.77 1061.99 178.77 C 1067.98 178.81 1074.03 178.52 1079.98 179.53 C 1096.02 182.07 1110.63 192.00 1119.15 205.79 C 1127.41 218.78 1129.84 235.26 1125.84 250.11 C 1120.96 268.93 1105.75 284.63 1087.10 290.11 C 1081.54 291.84 1075.70 292.49 1069.90 292.49 C 1055.03 292.55 1040.16 292.49 1025.30 292.52 C 1025.28 312.57 1025.29 332.61 1025.30 352.66 C 1016.95 352.67 1008.61 352.66 1000.27 352.66 C 1000.27 294.70 1000.27 236.73 1000.27 178.77 M 1025.30 267.48 C 1041.18 267.42 1057.07 267.62 1072.95 267.38 C 1089.11 266.81 1103.00 252.10 1102.71 235.94 C 1103.29 219.67 1089.45 204.63 1073.18 203.90 C 1057.22 203.67 1041.26 203.89 1025.29 203.79 C 1025.29 225.02 1025.28 246.25 1025.30 267.48 Z" />
<path fill="#d19676" opacity="1.00" d=" M 546.11 180.60 C 591.45 180.61 636.80 180.60 682.15 180.61 C 682.14 188.92 682.15 197.23 682.14 205.55 C 649.89 205.66 617.65 205.56 585.40 205.60 C 585.39 220.72 585.39 235.84 585.40 250.97 C 613.77 251.02 642.15 250.91 670.53 251.03 C 670.56 259.35 670.58 267.67 670.52 275.99 C 642.14 276.03 613.77 275.99 585.40 276.01 C 585.38 293.25 585.41 310.48 585.38 327.72 C 617.64 327.70 649.89 327.71 682.14 327.71 C 682.14 336.03 682.15 344.35 682.14 352.66 C 641.56 352.67 600.99 352.68 560.41 352.66 C 560.39 338.84 560.42 325.03 560.40 311.21 C 540.34 311.22 520.29 311.18 500.23 311.23 C 492.41 325.06 484.45 338.82 476.64 352.67 C 467.06 352.67 457.48 352.67 447.90 352.67 C 480.62 295.30 513.39 237.97 546.11 180.60 M 547.53 228.45 C 536.53 247.69 525.57 266.95 514.54 286.18 C 529.83 286.19 545.12 286.18 560.40 286.18 C 560.33 259.65 560.57 233.11 560.28 206.58 C 555.68 213.65 551.83 221.18 547.53 228.45 Z" />
<path fill="#d19676" opacity="1.00" d=" M 531.73 426.60 C 538.83 426.68 545.94 426.47 553.04 426.69 C 558.69 426.82 564.50 430.91 564.77 436.90 C 565.49 440.81 562.96 444.15 559.79 446.07 C 564.45 448.18 567.06 453.53 565.64 458.49 C 564.59 463.79 559.02 466.51 554.07 466.81 C 546.63 467.21 539.17 467.00 531.73 466.95 C 531.75 453.50 531.74 440.05 531.73 426.60 M 539.09 433.31 C 539.09 436.49 539.08 439.68 539.10 442.87 C 543.39 442.83 547.68 442.98 551.97 442.81 C 553.97 442.71 556.51 442.12 557.17 439.94 C 558.33 436.93 555.73 433.74 552.72 433.46 C 548.19 433.10 543.63 433.41 539.09 433.31 M 539.09 449.39 C 539.09 452.96 539.08 456.53 539.10 460.11 C 543.51 460.03 547.92 460.25 552.33 460.03 C 555.11 459.83 558.83 458.43 558.67 455.06 C 558.60 451.56 554.91 449.75 551.87 449.47 C 547.62 449.25 543.35 449.47 539.09 449.39 Z" />
<path fill="#d19676" opacity="1.00" d=" M 606.61 426.48 C 613.09 426.73 619.58 426.54 626.07 426.61 C 629.85 426.53 633.63 427.96 636.43 430.52 C 641.20 435.11 641.64 443.35 637.50 448.48 C 635.63 450.83 632.70 451.85 629.96 452.76 C 634.24 457.43 638.35 462.26 642.63 466.94 C 639.10 466.45 634.22 468.60 631.81 465.13 C 628.40 461.22 625.04 457.26 621.58 453.39 C 619.06 453.39 616.54 453.39 614.03 453.40 C 614.02 457.92 614.02 462.44 614.03 466.96 C 611.55 467.00 609.07 467.02 606.61 467.03 C 606.61 453.51 606.60 439.99 606.61 426.48 M 614.04 433.41 C 614.01 437.84 614.02 442.28 614.03 446.71 C 618.81 446.51 623.68 447.17 628.42 446.34 C 634.10 445.09 634.42 435.83 628.98 434.04 C 624.12 432.75 619.00 433.64 614.04 433.41 Z" />
<path fill="#d19676" opacity="1.00" d=" M 680.49 466.99 C 680.41 453.53 680.47 440.07 680.46 426.60 C 690.54 426.60 700.62 426.62 710.70 426.59 C 710.70 428.98 710.70 431.38 710.71 433.78 C 703.09 433.77 695.47 433.78 687.85 433.77 C 687.85 436.96 687.85 440.15 687.86 443.34 C 695.20 443.34 702.54 443.35 709.89 443.33 C 709.88 445.65 709.87 447.97 709.88 450.30 C 702.53 450.26 695.19 450.29 687.84 450.28 C 687.86 453.41 687.86 456.54 687.84 459.68 C 695.46 459.67 703.08 459.68 710.71 459.67 C 710.70 462.11 710.69 464.55 710.67 467.00 C 700.61 467.03 690.55 467.05 680.49 466.99 Z" />
<path fill="#d19676" opacity="1.00" d=" M 747.57 466.96 C 753.70 453.55 759.68 440.06 765.71 426.60 C 768.44 426.60 771.18 426.60 773.92 426.60 C 779.98 440.07 785.99 453.56 792.06 467.03 C 789.34 467.03 786.63 467.02 783.93 466.96 C 782.83 464.41 781.71 461.87 780.59 459.35 C 773.39 459.35 766.19 459.33 758.99 459.36 C 757.92 461.94 756.77 464.48 755.57 467.01 C 752.90 467.03 750.23 467.01 747.57 466.96 M 762.07 452.37 C 767.22 452.42 772.37 452.42 777.52 452.38 C 775.00 446.48 772.48 440.58 769.82 434.74 C 767.19 440.59 764.65 446.49 762.07 452.37 Z" />
<path fill="#d19676" opacity="1.00" d=" M 821.62 426.59 C 832.71 426.60 843.80 426.63 854.89 426.58 C 854.87 428.83 854.87 431.08 854.88 433.34 C 850.54 433.30 846.21 433.31 841.88 433.32 C 841.92 444.55 841.88 455.79 841.89 467.02 C 839.46 467.02 837.03 467.02 834.61 467.02 C 834.61 455.78 834.59 444.54 834.62 433.30 C 830.28 433.32 825.95 433.30 821.62 433.32 C 821.62 431.08 821.62 428.83 821.62 426.59 Z" />
<path fill="#d19676" opacity="1.00" d=" M 894.64 426.59 C 897.12 426.60 899.62 426.60 902.11 426.61 C 902.11 432.32 902.11 438.03 902.12 443.75 C 908.84 443.74 915.58 443.75 922.31 443.74 C 922.30 438.03 922.31 432.31 922.31 426.60 C 924.77 426.60 927.24 426.60 929.72 426.59 C 929.71 440.09 929.72 453.58 929.71 467.07 C 927.24 467.07 924.77 467.07 922.31 467.07 C 922.30 461.59 922.31 456.11 922.31 450.64 C 915.57 450.63 908.84 450.63 902.12 450.64 C 902.10 456.12 902.11 461.60 902.11 467.08 C 899.62 467.07 897.13 467.07 894.65 467.08 C 894.64 453.58 894.67 440.09 894.64 426.59 Z" />
<path fill="#d19676" opacity="1.00" d=" M 971.85 426.61 C 981.93 426.60 992.02 426.60 1002.10 426.61 C 1002.09 428.99 1002.09 431.38 1002.10 433.77 C 994.48 433.77 986.87 433.79 979.26 433.76 C 979.25 436.95 979.25 440.15 979.26 443.34 C 986.60 443.34 993.94 443.34 1001.29 443.34 C 1001.27 445.65 1001.27 447.97 1001.28 450.28 C 993.94 450.27 986.59 450.29 979.25 450.27 C 979.25 453.41 979.26 456.55 979.25 459.69 C 986.86 459.66 994.48 459.68 1002.10 459.68 C 1002.09 462.10 1002.09 464.53 1002.11 466.96 C 992.02 467.06 981.93 467.06 971.85 466.95 C 971.86 453.50 971.86 440.05 971.85 426.61 Z" />
<path fill="#d19676" opacity="1.00" d=" M 1076.44 467.02 C 1076.33 453.55 1076.42 440.07 1076.39 426.60 C 1086.06 426.60 1095.73 426.62 1105.40 426.59 C 1105.38 428.98 1105.39 431.38 1105.41 433.78 C 1098.22 433.77 1091.04 433.78 1083.85 433.77 C 1083.85 437.55 1083.85 441.33 1083.86 445.11 C 1090.66 445.10 1097.46 445.11 1104.27 445.11 C 1104.25 447.36 1104.25 449.63 1104.27 451.89 C 1097.46 451.89 1090.66 451.90 1083.86 451.89 C 1083.85 456.93 1083.85 461.97 1083.86 467.02 C 1081.37 467.02 1078.90 467.02 1076.44 467.02 Z" />
<path fill="#d19676" opacity="1.00" d=" M 1145.82 426.52 C 1152.22 426.66 1158.64 426.58 1165.05 426.60 C 1169.07 426.52 1173.23 427.91 1176.03 430.89 C 1180.69 435.71 1180.78 444.28 1176.13 449.13 C 1174.31 451.08 1171.68 451.87 1169.28 452.80 C 1173.51 457.48 1177.62 462.26 1181.85 466.94 C 1178.81 467.00 1175.78 467.03 1172.76 467.02 C 1168.78 462.50 1164.82 457.96 1160.90 453.40 C 1158.34 453.39 1155.80 453.39 1153.27 453.38 C 1153.28 457.91 1153.27 462.43 1153.29 466.96 C 1150.79 467.00 1148.30 467.00 1145.81 466.97 C 1145.83 453.48 1145.82 440.00 1145.82 426.52 M 1153.28 433.39 C 1153.28 437.83 1153.28 442.27 1153.27 446.72 C 1158.00 446.55 1162.78 447.06 1167.48 446.42 C 1173.31 445.24 1173.84 435.74 1168.11 434.03 C 1163.28 432.77 1158.20 433.65 1153.28 433.39 Z" />
<path fill="#d19676" opacity="1.00" d=" M 1219.70 426.60 C 1229.77 426.60 1239.83 426.64 1249.90 426.58 C 1249.88 428.98 1249.88 431.38 1249.90 433.79 C 1242.31 433.76 1234.71 433.78 1227.12 433.78 C 1227.11 436.96 1227.11 440.14 1227.12 443.33 C 1234.46 443.35 1241.79 443.33 1249.14 443.34 C 1249.13 445.65 1249.13 447.96 1249.15 450.28 C 1241.80 450.28 1234.46 450.28 1227.12 450.28 C 1227.11 453.41 1227.11 456.54 1227.12 459.68 C 1234.71 459.66 1242.30 459.70 1249.90 459.65 C 1249.88 462.10 1249.88 464.56 1249.89 467.02 C 1239.83 466.98 1229.76 467.10 1219.70 466.95 C 1219.72 453.50 1219.72 440.05 1219.70 426.60 Z" />
<path fill="#d19676" opacity="1.00" d=" M 1290.81 426.60 C 1300.89 426.61 1310.98 426.60 1321.06 426.61 C 1321.05 428.99 1321.05 431.38 1321.06 433.77 C 1313.44 433.77 1305.83 433.78 1298.23 433.77 C 1298.22 436.96 1298.22 440.15 1298.23 443.34 C 1305.56 443.34 1312.90 443.34 1320.25 443.35 C 1320.23 445.65 1320.23 447.97 1320.25 450.28 C 1312.90 450.28 1305.56 450.29 1298.22 450.28 C 1298.22 453.41 1298.22 456.54 1298.22 459.68 C 1305.83 459.66 1313.44 459.68 1321.06 459.68 C 1321.05 462.10 1321.05 464.53 1321.06 466.96 C 1310.98 467.06 1300.89 467.07 1290.81 466.95 C 1290.82 453.50 1290.82 440.05 1290.81 426.60 Z" />
<path fill="#d19676" opacity="1.00" d=" M 1362.10 426.58 C 1364.56 426.60 1367.02 426.60 1369.50 426.61 C 1369.51 437.79 1369.50 448.96 1369.51 460.14 C 1376.47 460.14 1383.44 460.14 1390.42 460.14 C 1390.39 462.43 1390.38 464.72 1390.39 467.02 C 1380.96 467.02 1371.53 467.02 1362.11 467.02 C 1362.10 453.54 1362.11 440.06 1362.10 426.58 Z" />
<path fill="#d19676" opacity="1.00" d=" M 1421.19 426.59 C 1424.19 426.61 1427.21 426.61 1430.23 426.60 C 1433.72 432.22 1437.12 437.89 1440.68 443.48 C 1444.33 437.86 1447.91 432.20 1451.57 426.59 C 1454.60 426.61 1457.64 426.60 1460.70 426.60 C 1455.19 434.38 1449.94 442.34 1444.40 450.09 C 1444.37 455.74 1444.39 461.38 1444.39 467.03 C 1441.88 467.02 1439.40 467.01 1436.92 466.96 C 1436.81 461.38 1437.14 455.78 1436.78 450.21 C 1431.82 442.20 1426.41 434.44 1421.19 426.59 Z" />
</g>
</svg>
