<?xml version="1.0" encoding="UTF-8" ?>
<!DOCTYPE svg PUBLIC "-//W3C//DTD SVG 1.1//EN" "http://www.w3.org/Graphics/SVG/1.1/DTD/svg11.dtd">
<svg width="1928pt" height="591pt" viewBox="0 0 1928 591" version="1.1" xmlns="http://www.w3.org/2000/svg">
<g id="#ffffffff">
<path fill="#ffffff" opacity="1.00" d=" M 794.17 188.12 C 810.37 177.93 830.23 175.85 848.95 176.97 C 866.00 178.21 883.23 182.46 897.74 191.79 C 894.49 199.98 891.06 208.09 887.86 216.29 C 870.22 206.07 849.31 200.86 828.97 203.62 C 821.78 204.60 814.35 206.81 809.08 212.06 C 803.55 217.34 801.68 226.07 804.65 233.12 C 807.24 238.70 812.90 241.98 818.30 244.39 C 835.08 250.76 853.04 253.12 869.94 259.13 C 881.78 262.87 892.95 269.97 899.75 280.54 C 906.94 293.61 906.49 310.35 899.67 323.49 C 893.00 336.35 879.92 344.53 866.40 348.69 C 849.96 353.64 832.39 353.65 815.50 351.27 C 798.70 348.46 781.61 343.36 768.24 332.38 C 771.83 324.19 775.56 316.06 779.11 307.85 C 796.44 320.77 818.34 327.26 839.90 326.55 C 849.43 326.02 859.73 324.70 867.27 318.29 C 872.85 313.72 875.17 305.75 872.95 298.89 C 871.66 294.42 868.03 291.12 864.20 288.73 C 857.40 284.48 849.47 282.77 841.85 280.60 C 828.18 277.02 814.27 274.09 801.08 268.90 C 792.35 265.42 784.47 259.68 778.76 252.19 C 772.38 243.20 770.98 231.55 772.38 220.84 C 774.19 207.34 782.60 195.16 794.17 188.12 Z" />
<path fill="#ffffff" opacity="1.00" d=" M 232.80 177.92 C 259.20 177.93 285.60 177.90 312.00 177.94 C 325.65 177.99 339.54 182.06 350.18 190.81 C 363.83 201.81 371.28 219.49 370.96 236.89 C 371.16 248.86 367.37 261.15 359.21 270.08 C 353.74 276.20 346.77 280.83 339.35 284.23 C 351.86 307.17 364.96 329.80 377.69 352.62 C 366.79 352.61 355.88 352.69 344.97 352.58 C 333.35 331.80 321.46 311.17 309.85 290.37 C 293.77 290.34 277.69 290.37 261.60 290.35 C 261.59 311.10 261.65 331.85 261.58 352.60 C 251.99 352.67 242.40 352.62 232.81 352.63 C 232.80 322.36 232.81 292.08 232.80 261.81 C 259.20 261.79 285.60 261.83 312.00 261.79 C 320.62 261.75 330.06 259.77 336.07 253.10 C 341.76 246.98 342.63 237.86 341.04 229.98 C 339.47 221.76 334.37 214.15 326.95 210.14 C 321.81 207.29 315.86 206.43 310.07 206.40 C 284.31 206.40 258.55 206.39 232.80 206.40 C 232.81 196.91 232.80 187.41 232.80 177.92 Z" />
<path fill="#ffffff" opacity="1.00" d=" M 1225.02 178.21 C 1233.35 178.15 1241.69 178.20 1250.03 178.18 C 1250.04 236.33 1250.04 294.48 1250.03 352.63 C 1241.69 352.69 1233.35 352.68 1225.01 352.63 C 1224.97 294.49 1224.97 236.35 1225.02 178.21 Z" />
<path fill="#ffffff" opacity="1.00" d=" M 1358.60 177.92 C 1385.09 177.95 1411.58 177.88 1438.07 177.95 C 1454.23 178.01 1470.81 184.05 1481.68 196.33 C 1495.82 211.72 1500.28 234.99 1493.89 254.74 C 1489.42 268.41 1477.88 278.56 1465.00 284.23 C 1477.64 307.12 1490.59 329.84 1503.44 352.61 C 1492.55 352.66 1481.65 352.62 1470.76 352.63 C 1459.00 331.88 1447.23 311.13 1435.51 290.35 C 1419.44 290.35 1403.37 290.37 1387.30 290.34 C 1387.33 311.10 1387.30 331.87 1387.31 352.63 C 1377.74 352.63 1368.17 352.63 1358.60 352.63 C 1358.61 322.36 1358.60 292.08 1358.60 261.80 C 1385.40 261.78 1412.20 261.87 1439.00 261.76 C 1448.83 261.61 1460.05 258.19 1464.78 248.80 C 1471.11 235.46 1465.91 217.33 1452.74 210.19 C 1445.86 206.27 1437.69 206.29 1430.01 206.39 C 1406.20 206.41 1382.40 206.38 1358.59 206.41 C 1358.62 196.91 1358.59 187.42 1358.60 177.92 Z" />
<path fill="#ffffff" opacity="1.00" d=" M 1657.30 178.15 C 1664.47 178.11 1671.65 178.07 1678.83 178.13 C 1705.56 236.32 1732.34 294.48 1759.09 352.66 C 1749.94 352.67 1740.80 352.66 1731.65 352.66 C 1710.46 306.75 1689.45 260.75 1668.20 214.86 C 1647.75 260.83 1627.08 306.70 1606.60 352.66 C 1597.47 352.65 1588.34 352.69 1579.22 352.64 C 1605.30 294.50 1631.33 236.34 1657.30 178.15 Z" />
<path fill="#ffffff" opacity="1.00" d=" M 1000.27 178.77 C 1021.18 178.78 1042.09 178.77 1062.99 178.77 C 1068.39 178.80 1073.83 178.57 1079.20 179.42 C 1095.55 181.75 1110.51 191.78 1119.16 205.80 C 1125.94 216.48 1128.81 229.54 1127.36 242.08 C 1125.52 259.08 1115.37 274.87 1100.85 283.85 C 1091.88 289.57 1081.23 292.55 1070.60 292.48 C 1055.50 292.57 1040.40 292.49 1025.30 292.52 C 1025.29 312.57 1025.29 332.62 1025.30 352.66 C 1016.95 352.66 1008.61 352.66 1000.27 352.66 C 1000.27 294.70 1000.27 236.73 1000.27 178.77 M 1025.30 267.48 C 1040.54 267.48 1055.78 267.50 1071.02 267.47 C 1078.35 267.48 1085.62 264.83 1091.25 260.15 C 1100.25 252.83 1104.55 240.34 1102.02 229.03 C 1099.31 215.08 1086.23 204.01 1071.98 203.84 C 1056.42 203.74 1040.85 203.85 1025.29 203.79 C 1025.30 225.02 1025.28 246.25 1025.30 267.48 Z" />
<path fill="#ffffff" opacity="1.00" d=" M 546.10 180.60 C 591.45 180.61 636.80 180.60 682.15 180.60 C 682.13 188.92 682.15 197.24 682.14 205.55 C 649.89 205.65 617.65 205.57 585.40 205.60 C 585.40 220.72 585.39 235.85 585.40 250.97 C 613.77 250.98 642.14 250.97 670.51 250.98 C 670.58 259.31 670.57 267.65 670.52 275.98 C 642.15 276.04 613.77 275.99 585.40 276.01 C 585.38 293.25 585.42 310.48 585.38 327.72 C 617.64 327.69 649.89 327.71 682.15 327.71 C 682.14 336.03 682.15 344.35 682.14 352.67 C 641.56 352.67 600.99 352.68 560.41 352.66 C 560.39 338.85 560.42 325.03 560.40 311.21 C 540.34 311.22 520.28 311.18 500.22 311.23 C 492.42 325.07 484.45 338.82 476.65 352.67 C 467.06 352.67 457.47 352.67 447.89 352.67 C 480.62 295.31 513.39 237.97 546.10 180.60 M 514.54 286.18 C 529.83 286.19 545.11 286.18 560.40 286.18 C 560.31 259.62 560.58 233.05 560.27 206.49 C 544.74 232.88 529.87 259.67 514.54 286.18 Z" />
<path fill="#ffffff" opacity="1.00" d=" M 922.30 426.59 C 924.77 426.60 927.24 426.60 929.72 426.59 C 929.70 440.08 929.72 453.58 929.71 467.07 C 927.24 467.08 924.77 467.07 922.31 467.07 C 922.30 461.59 922.31 456.11 922.31 450.64 C 915.57 450.64 908.84 450.63 902.12 450.64 C 902.11 456.12 902.11 461.60 902.11 467.08 C 899.62 467.07 897.13 467.07 894.65 467.08 C 894.64 453.58 894.67 440.09 894.64 426.59 C 897.12 426.60 899.62 426.60 902.12 426.60 C 902.11 432.32 902.11 438.03 902.12 443.75 C 908.84 443.74 915.58 443.74 922.31 443.74 C 922.30 438.03 922.31 432.31 922.30 426.59 Z" />
<path fill="#ffffff" opacity="1.00" d=" M 1076.39 426.60 C 1086.41 426.63 1096.44 426.57 1106.47 426.62 L 1105.38 427.03 C 1105.36 429.27 1105.39 431.53 1105.42 433.78 C 1098.23 433.77 1091.04 433.78 1083.85 433.77 C 1083.86 437.55 1083.85 441.33 1083.86 445.11 C 1090.66 445.10 1097.46 445.11 1104.27 445.10 C 1104.25 447.36 1104.25 449.63 1104.28 451.90 C 1097.47 451.89 1090.66 451.90 1083.86 451.89 C 1083.86 456.93 1083.85 461.98 1083.86 467.02 C 1081.37 467.02 1078.90 467.02 1076.43 467.02 C 1076.34 453.55 1076.42 440.07 1076.39 426.60 Z" />
<path fill="#ffffff" opacity="1.00" d=" M 531.73 426.60 C 538.80 426.67 545.88 426.49 552.95 426.68 C 558.62 426.79 564.50 430.86 564.76 436.89 C 565.51 440.80 562.95 444.12 559.81 446.07 C 565.63 448.57 567.74 456.18 564.43 461.47 C 562.01 465.29 557.23 466.72 552.94 466.89 C 545.87 467.14 538.80 467.03 531.73 466.96 C 531.75 453.50 531.75 440.05 531.73 426.60 M 539.09 433.31 C 539.09 436.49 539.08 439.68 539.10 442.87 C 544.34 442.58 549.77 443.56 554.90 442.23 C 559.11 440.71 557.53 434.25 553.50 433.62 C 548.74 432.94 543.88 433.48 539.09 433.31 M 539.09 449.39 C 539.09 452.96 539.08 456.54 539.10 460.11 C 543.49 460.04 547.90 460.23 552.30 460.04 C 555.11 459.84 558.87 458.42 558.68 454.99 C 558.55 451.58 554.99 449.81 552.01 449.48 C 547.71 449.26 543.39 449.46 539.09 449.39 Z" />
<path fill="#ffffff" opacity="1.00" d=" M 606.61 426.47 C 613.07 426.73 619.55 426.54 626.02 426.60 C 631.02 426.52 636.28 428.99 638.69 433.51 C 641.22 438.14 640.83 444.31 637.52 448.46 C 635.65 450.82 632.71 451.84 629.97 452.77 C 634.25 457.46 638.41 462.27 642.64 467.01 C 639.53 466.86 636.32 467.41 633.28 466.69 C 629.25 462.38 625.55 457.77 621.59 453.40 C 619.07 453.39 616.54 453.39 614.03 453.40 C 614.01 457.94 614.07 462.48 613.96 467.02 C 611.50 467.02 609.05 467.01 606.60 467.02 C 606.60 453.50 606.60 439.99 606.61 426.47 M 614.04 433.42 C 614.02 437.84 614.02 442.28 614.03 446.71 C 618.84 446.50 623.75 447.18 628.50 446.31 C 634.16 444.98 634.38 435.71 628.89 434.02 C 624.06 432.77 618.97 433.64 614.04 433.42 Z" />
<path fill="#ffffff" opacity="1.00" d=" M 680.49 467.02 C 680.41 453.55 680.48 440.07 680.45 426.60 C 690.54 426.60 700.62 426.62 710.71 426.59 C 710.69 428.98 710.70 431.38 710.71 433.78 C 703.09 433.77 695.47 433.78 687.85 433.77 C 687.86 436.96 687.86 440.15 687.85 443.34 C 695.20 443.33 702.54 443.35 709.89 443.33 C 709.88 445.65 709.87 447.97 709.89 450.30 C 702.54 450.26 695.19 450.29 687.84 450.28 C 687.86 453.41 687.86 456.54 687.84 459.68 C 695.46 459.67 703.08 459.68 710.71 459.67 C 710.70 462.11 710.70 464.56 710.67 467.02 C 700.61 467.03 690.55 467.02 680.49 467.02 Z" />
<path fill="#ffffff" opacity="1.00" d=" M 765.70 426.60 C 768.44 426.60 771.18 426.60 773.93 426.60 C 779.98 440.08 785.99 453.56 792.06 467.03 C 789.34 467.03 786.63 467.02 783.93 466.96 C 782.82 464.41 781.71 461.87 780.59 459.35 C 773.39 459.35 766.19 459.34 759.00 459.35 C 757.93 461.91 756.78 464.44 755.62 466.96 C 752.93 467.03 750.25 467.02 747.57 466.97 C 753.69 453.55 759.68 440.07 765.70 426.60 M 769.81 434.73 C 767.20 440.60 764.65 446.49 762.07 452.37 C 767.22 452.42 772.37 452.41 777.53 452.38 C 774.99 446.48 772.48 440.57 769.81 434.73 Z" />
<path fill="#ffffff" opacity="1.00" d=" M 821.62 426.59 C 832.71 426.60 843.80 426.63 854.89 426.58 C 854.87 428.83 854.87 431.08 854.89 433.34 C 850.54 433.29 846.21 433.32 841.87 433.32 C 841.92 444.55 841.88 455.79 841.89 467.03 C 839.46 467.02 837.02 467.02 834.60 467.02 C 834.61 455.78 834.58 444.54 834.62 433.30 C 830.28 433.32 825.95 433.30 821.62 433.32 C 821.62 431.08 821.62 428.83 821.62 426.59 Z" />
<path fill="#ffffff" opacity="1.00" d=" M 971.85 426.60 C 981.93 426.60 992.02 426.60 1002.11 426.60 C 1002.09 428.99 1002.09 431.38 1002.10 433.78 C 994.48 433.77 986.87 433.79 979.26 433.76 C 979.25 436.95 979.25 440.15 979.26 443.34 C 986.60 443.34 993.94 443.34 1001.29 443.34 C 1001.27 445.65 1001.27 447.97 1001.29 450.29 C 993.94 450.27 986.59 450.29 979.25 450.27 C 979.26 453.41 979.26 456.55 979.25 459.69 C 986.86 459.66 994.48 459.68 1002.10 459.67 C 1002.09 462.10 1002.09 464.53 1002.11 466.96 C 992.02 467.06 981.93 467.06 971.85 466.96 C 971.86 453.51 971.86 440.05 971.85 426.60 Z" />
<path fill="#ffffff" opacity="1.00" d=" M 1145.82 426.51 C 1152.21 426.67 1158.60 426.58 1165.00 426.60 C 1169.04 426.50 1173.23 427.90 1176.04 430.90 C 1180.51 435.53 1180.75 443.58 1176.67 448.54 C 1174.83 450.85 1171.94 451.81 1169.28 452.81 C 1173.51 457.48 1177.63 462.26 1181.85 466.95 C 1178.81 467.01 1175.78 467.03 1172.76 467.02 C 1168.78 462.50 1164.82 457.96 1160.89 453.39 C 1158.34 453.39 1155.80 453.39 1153.27 453.38 C 1153.29 457.91 1153.27 462.43 1153.29 466.97 C 1150.79 467.01 1148.30 467.01 1145.81 466.97 C 1145.82 453.48 1145.82 440.00 1145.82 426.51 M 1153.27 433.39 C 1153.28 437.83 1153.28 442.27 1153.27 446.72 C 1157.54 446.65 1161.82 446.84 1166.09 446.63 C 1168.66 446.60 1171.08 444.79 1171.82 442.32 C 1173.13 438.84 1171.06 434.35 1167.22 433.76 C 1162.62 432.98 1157.91 433.58 1153.27 433.39 Z" />
<path fill="#ffffff" opacity="1.00" d=" M 1219.70 426.60 C 1229.77 426.60 1239.83 426.63 1249.90 426.58 C 1249.88 428.98 1249.88 431.38 1249.90 433.79 C 1242.31 433.76 1234.71 433.78 1227.12 433.78 C 1227.11 436.96 1227.11 440.15 1227.12 443.33 C 1234.46 443.35 1241.80 443.33 1249.14 443.34 C 1249.13 445.65 1249.13 447.97 1249.15 450.28 C 1241.80 450.28 1234.46 450.28 1227.12 450.28 C 1227.11 453.41 1227.11 456.54 1227.12 459.68 C 1234.71 459.66 1242.30 459.70 1249.90 459.65 C 1249.88 462.10 1249.88 464.56 1249.89 467.02 C 1239.83 466.98 1229.76 467.09 1219.70 466.96 C 1219.72 453.50 1219.72 440.05 1219.70 426.60 Z" />
<path fill="#ffffff" opacity="1.00" d=" M 1290.81 426.60 C 1300.89 426.61 1310.98 426.60 1321.07 426.60 C 1321.05 428.99 1321.05 431.38 1321.06 433.78 C 1313.44 433.77 1305.83 433.78 1298.23 433.77 C 1298.22 436.96 1298.22 440.15 1298.23 443.34 C 1305.56 443.34 1312.90 443.34 1320.25 443.34 C 1320.23 445.65 1320.23 447.97 1320.25 450.29 C 1312.90 450.27 1305.56 450.29 1298.22 450.28 C 1298.22 453.41 1298.22 456.54 1298.22 459.68 C 1305.83 459.66 1313.45 459.68 1321.06 459.67 C 1321.05 462.10 1321.05 464.53 1321.06 466.96 C 1310.98 467.06 1300.89 467.07 1290.81 466.96 C 1290.82 453.50 1290.82 440.05 1290.81 426.60 Z" />
<path fill="#ffffff" opacity="1.00" d=" M 1362.10 426.58 C 1364.56 426.60 1367.02 426.60 1369.51 426.61 C 1369.50 437.78 1369.50 448.96 1369.51 460.14 C 1376.47 460.14 1383.44 460.15 1390.42 460.13 C 1390.38 462.42 1390.38 464.72 1390.39 467.02 C 1380.96 467.02 1371.53 467.02 1362.11 467.02 C 1362.10 453.54 1362.11 440.06 1362.10 426.58 Z" />
<path fill="#ffffff" opacity="1.00" d=" M 1421.19 426.59 C 1424.19 426.60 1427.21 426.61 1430.24 426.60 C 1433.72 432.22 1437.13 437.89 1440.67 443.48 C 1444.32 437.86 1447.91 432.20 1451.56 426.59 C 1454.60 426.61 1457.64 426.60 1460.70 426.59 C 1455.19 434.38 1449.94 442.34 1444.39 450.10 C 1444.38 455.74 1444.38 461.39 1444.39 467.03 C 1441.88 467.02 1439.40 467.01 1436.92 466.96 C 1436.81 461.35 1437.14 455.73 1436.77 450.14 C 1431.77 442.18 1426.41 434.42 1421.19 426.59 Z" />
</g>
</svg>
