<?xml version="1.0" encoding="UTF-8" standalone="no"?>
<svg
   xmlns:dc="http://purl.org/dc/elements/1.1/"
   xmlns:cc="http://creativecommons.org/ns#"
   xmlns:rdf="http://www.w3.org/1999/02/22-rdf-syntax-ns#"
   xmlns:svg="http://www.w3.org/2000/svg"
   xmlns="http://www.w3.org/2000/svg"
   xmlns:sodipodi="http://sodipodi.sourceforge.net/DTD/sodipodi-0.dtd"
   xmlns:inkscape="http://www.inkscape.org/namespaces/inkscape"
   width="48.748329mm"
   height="48.90591mm"
   viewBox="0 0 48.748329 48.90591"
   version="1.1"
   id="svg999"
   inkscape:version="1.0.1 (3bc2e813f5, 2020-09-07)"
   sodipodi:docname="01.svg">
  <defs
     id="defs993" />
  <sodipodi:namedview
     id="base"
     pagecolor="#ffffff"
     bordercolor="#666666"
     borderopacity="1.0"
     inkscape:pageopacity="0.0"
     inkscape:pageshadow="2"
     inkscape:zoom="1.4"
     inkscape:cx="292.58393"
     inkscape:cy="130.9855"
     inkscape:document-units="mm"
     inkscape:current-layer="layer1"
     inkscape:document-rotation="0"
     showgrid="false"
     inkscape:window-width="1500"
     inkscape:window-height="1040"
     inkscape:window-x="52"
     inkscape:window-y="0"
     inkscape:window-maximized="0" />
  <metadata
     id="metadata996">
    <rdf:RDF>
      <cc:Work
         rdf:about="">
        <dc:format>image/svg+xml</dc:format>
        <dc:type
           rdf:resource="http://purl.org/dc/dcmitype/StillImage" />
        <dc:title></dc:title>
      </cc:Work>
    </rdf:RDF>
  </metadata>
  <g
     inkscape:label="Слой 1"
     inkscape:groupmode="layer"
     id="layer1"
     transform="translate(-128.31631,-205.34466)">
    <g
       id="g22"
       transform="matrix(0.35277777,0,0,-0.35277777,132.52949,251.66443)"
       style="fill:#8e8e8e;fill-opacity:1">
      <path
         d="m 0,0 c 2.426,2.638 5.861,4.183 9.577,4.183 h 2.209 c 3.718,0 7.153,-1.545 9.58,-4.183 z M 11.789,8.366 H 9.58 C 6.771,8.366 4.107,7.665 1.726,6.447 2.51,7.221 3.394,7.9 4.39,8.444 l 9.122,4.979 c 1.069,0.583 2.034,1.302 2.907,2.107 l 5.082,-2.905 c 4.874,-2.787 10.417,-4.259 16.033,-4.259 3.72,0 7.132,1.872 9.211,4.829 0.35,-0.233 0.711,-0.452 1.092,-0.646 L 62.699,5.119 C 64.806,4.065 66.301,2.198 66.884,0 h -40.37 c -3.106,5.177 -8.61,8.366 -14.725,8.366 m 24.568,25.021 -1.148,-4.024 6.848,-1.958 v -5.501 c 0,-2.071 0.609,-4.026 1.684,-5.686 -1.232,-2.231 -3.608,-3.669 -6.207,-3.669 -4.887,0 -9.716,1.281 -13.959,3.708 l -4.476,2.556 c 1.315,2.22 2.042,4.786 2.042,7.462 v 8.788 l 6.834,13.668 -5.974,4.482 c -1.849,1.386 -2.952,3.595 -2.952,5.906 0,0.798 0.128,1.582 0.377,2.332 l 0.347,1.041 c 0.468,1.401 1.781,2.347 3.261,2.347 0.917,0 1.783,-0.358 2.431,-1.006 l 3.237,-3.234 1.786,8.939 c 0.622,3.095 2.128,5.911 4.355,8.139 2.662,2.661 5.899,4.285 9.462,4.792 l 6.688,0.957 c 1.747,-1.155 3.831,-1.854 6.066,-1.854 h 0.546 c 1.867,0 3.689,0.257 5.454,0.704 1.276,-1.969 2.003,-4.262 2.003,-6.62 v -4.67 c 0,-3.032 0.824,-6.008 2.384,-8.61 l 3.352,-5.579 -0.07,-0.07 C 69.235,55.236 67.172,54.382 65.064,54.382 H 62.973 V 48.106 H 52.515 V 44.64 c 0,-3.849 2.607,-7.185 6.338,-8.116 l 2.026,-0.509 c 0.002,-3.713 -3.02,-6.733 -6.73,-6.733 -2.28,0 -4.544,0.32 -6.732,0.944 z m 21.248,52.369 h -0.546 c -1.89,0 -3.629,0.768 -4.85,1.994 -1.977,-0.114 -3.731,-0.384 -4.727,-0.556 0.008,-0.013 -3.768,-0.583 -3.768,-0.583 -4.465,-0.638 -8.52,-2.67 -11.723,-5.873 -2.92,-2.92 -4.821,-6.47 -5.605,-10.382 l -0.387,-1.929 c -0.926,0.392 -1.93,0.596 -2.965,0.596 -3.284,0 -6.189,-2.094 -7.229,-5.209 l -0.348,-1.04 c -0.39,-1.176 -0.591,-2.405 -0.591,-3.655 0,-3.621 1.731,-7.08 4.625,-9.25 l 3.182,-2.388 -4.259,-8.52 -7.671,6.973 c -8.014,7.284 -12.61,17.677 -12.61,28.506 0,21.246 17.282,38.528 38.522,38.528 l 13.507,-0.006 h 0.018 c 5.321,0 10.019,3.177 12.058,7.943 7.8,-2.092 13.232,-9.137 13.248,-17.24 C 75.494,98.886 73.638,94.389 70.26,91.003 66.882,87.62 62.387,85.756 57.605,85.756 M -6.05,-2.092 v -2.092 h 77.389 v 2.092 c 0,4.667 -2.593,8.863 -6.771,10.952 l -14.861,7.431 c -2.136,1.069 -3.467,3.218 -3.467,5.613 v 4.309 l 0.026,-0.011 c 2.563,-0.732 5.216,-1.103 7.883,-1.103 6.018,0 10.915,4.897 10.915,10.916 0,1.923 -1.301,3.594 -3.173,4.057 l -2.027,0.51 c -1.631,0.408 -2.828,1.731 -3.108,3.342 h 6.214 c 2.309,0 4.184,1.877 4.184,4.182 v 2.275 c 2.455,0.434 4.756,1.616 6.528,3.389 l 2.38,2.378 -5.028,8.383 c -1.166,1.948 -1.786,4.183 -1.786,6.455 v 4.67 c 0,2.842 -0.748,5.634 -2.139,8.087 2.236,1.066 4.309,2.499 6.11,4.306 4.171,4.175 6.461,9.723 6.45,15.624 -0.015,10.116 -6.881,18.9 -16.691,21.361 l -3.618,0.909 -0.505,-2.031 c -1.001,-3.985 -4.565,-6.766 -8.672,-6.766 h -0.016 l -13.509,0.005 C 13.109,117.151 -6.05,97.992 -6.05,74.44 -6.05,62.434 -0.952,50.915 7.93,42.841 l 9.028,-8.209 v -8.357 c 0,-3.83 -2.087,-7.349 -5.452,-9.181 L 2.384,12.115 C -2.819,9.281 -6.05,3.835 -6.05,-2.092"
         style="fill:#8e8e8e;fill-opacity:1;fill-rule:nonzero;stroke:none"
         id="path24" />
    </g>
    <g
       id="g26"
       transform="matrix(0.35277777,0,0,-0.35277777,170.97814,234.69353)"
       style="fill:#8e8e8e;fill-opacity:1">
      <path
         d="M 0,0 H -33.466 V -4.183 H 0 c 8.072,0 14.642,6.568 14.642,14.641 C 14.642,18.532 8.072,25.1 0,25.1 -5.767,25.1 -10.458,20.408 -10.458,14.642 -10.458,8.875 -5.767,4.184 0,4.184 H 2.092 V 8.366 H 0 c -3.459,0 -6.274,2.816 -6.274,6.276 0,3.459 2.815,6.275 6.274,6.275 5.767,0 10.458,-4.692 10.458,-10.459 C 10.458,4.691 5.767,0 0,0"
         style="fill:#8e8e8e;fill-opacity:1;fill-rule:nonzero;stroke:none"
         id="path28" />
    </g>
    <g
       id="g30"
       transform="matrix(0.35277777,0,0,-0.35277777,168.02669,237.64494)"
       style="fill:#8e8e8e;fill-opacity:1">
      <path
         d="M 0,0 H -25.1 V -4.184 H 0 c 3.459,0 6.275,-2.815 6.275,-6.274 0,-3.46 -2.816,-6.274 -6.275,-6.274 -1.155,0 -2.092,0.938 -2.092,2.09 0,1.153 0.937,2.092 2.092,2.092 h 2.092 v 4.184 H 0 c -3.459,0 -6.275,-2.816 -6.275,-6.276 0,-3.459 2.816,-6.274 6.275,-6.274 5.767,0 10.458,4.691 10.458,10.458 C 10.458,-4.691 5.767,0 0,0"
         style="fill:#8e8e8e;fill-opacity:1;fill-rule:nonzero;stroke:none"
         id="path32" />
    </g>
  </g>
</svg>
