<?xml version="1.0" encoding="UTF-8" standalone="no"?>
<svg
   xmlns:dc="http://purl.org/dc/elements/1.1/"
   xmlns:cc="http://creativecommons.org/ns#"
   xmlns:rdf="http://www.w3.org/1999/02/22-rdf-syntax-ns#"
   xmlns:svg="http://www.w3.org/2000/svg"
   xmlns="http://www.w3.org/2000/svg"
   xmlns:sodipodi="http://sodipodi.sourceforge.net/DTD/sodipodi-0.dtd"
   xmlns:inkscape="http://www.inkscape.org/namespaces/inkscape"
   width="48.748291mm"
   height="74.523018mm"
   viewBox="0 0 48.748291 74.523018"
   version="1.1"
   id="svg1622"
   inkscape:version="1.0.1 (3bc2e813f5, 2020-09-07)"
   sodipodi:docname="02.svg">
  <defs
     id="defs1616" />
  <sodipodi:namedview
     id="base"
     pagecolor="#ffffff"
     bordercolor="#666666"
     borderopacity="1.0"
     inkscape:pageopacity="0.0"
     inkscape:pageshadow="2"
     inkscape:zoom="1.4"
     inkscape:cx="226.08348"
     inkscape:cy="130.37518"
     inkscape:document-units="mm"
     inkscape:current-layer="layer1"
     inkscape:document-rotation="0"
     showgrid="false"
     inkscape:window-width="1500"
     inkscape:window-height="1040"
     inkscape:window-x="78"
     inkscape:window-y="0"
     inkscape:window-maximized="0" />
  <metadata
     id="metadata1619">
    <rdf:RDF>
      <cc:Work
         rdf:about="">
        <dc:format>image/svg+xml</dc:format>
        <dc:type
           rdf:resource="http://purl.org/dc/dcmitype/StillImage" />
        <dc:title></dc:title>
      </cc:Work>
    </rdf:RDF>
  </metadata>
  <g
     inkscape:label="Слой 1"
     inkscape:groupmode="layer"
     id="layer1"
     transform="translate(-110.17347,-173.6379)">
    <path
       d="m 152.32837,223.91103 c 0.26775,0.64981 0.34466,0.81068 0.67592,0.98777 0.10407,0.0564 0.18309,0.0716 0.2413,0.0829 0.091,0.018 0.1404,0.0275 0.31291,0.38277 0.28963,0.5909 0.32738,0.66675 0.71473,0.86042 0.0614,0.0307 0.11924,0.0575 0.1718,0.0811 0.24377,0.11218 0.30127,0.14499 0.30516,0.31186 0.0148,0.56832 0.53869,1.2259 0.86889,1.2259 0.0956,0 0.19826,-0.0536 0.23812,-0.19509 0.0836,0.0586 0.17851,0.10548 0.27623,0.15417 0.30444,0.15169 0.61842,0.30868 0.78281,0.84843 0.0191,0.0617 0.0783,0.25153 0.23354,0.25153 0.0466,0 0.1143,-0.018 0.17074,-0.10513 0.1136,-0.17286 0.15946,-0.59302 0.0533,-0.83714 -0.4138,-0.96203 -1.0615,-1.67816 -1.42628,-1.7907 -0.31538,-0.0938 -0.4826,-0.15346 -0.54081,-0.36865 -0.096,-0.34961 -0.24976,-0.76871 -0.58772,-0.91229 -0.36125,-0.15063 -0.5708,-0.3817 -0.62301,-0.68333 -0.0416,-0.24835 -0.35666,-0.59513 -0.72143,-0.99589 -0.32667,-0.35878 -0.69603,-0.76482 -0.83255,-1.07139 -0.66993,-1.89018 -1.25871,-4.10739 -1.8281,-6.25192 -0.85443,-3.22016 -1.66158,-6.26252 -2.65606,-7.88988 -0.0314,-0.0508 -0.0568,-0.13652 -0.0825,-0.21907 -0.0254,-0.0829 -0.0519,-0.16793 -0.0871,-0.23601 -0.0476,-0.0907 -0.12348,-0.16969 -0.22719,-0.23566 -0.12594,-0.079 -0.33585,-0.11712 -0.64206,-0.11712 -1.50177,0 -5.41337,1.02482 -7.29932,2.70016 -0.0892,0.0794 -0.16052,0.13476 -0.1965,0.1584 -0.0233,-0.008 -0.0684,-0.0272 -0.15628,-0.0727 -0.0575,-0.0293 -0.11853,-0.12136 -0.11818,-0.21767 0.006,-0.63994 -0.0847,-0.97613 -0.22119,-1.28481 -0.003,-0.005 -0.005,-0.0106 -0.007,-0.0148 0.0106,-2.7e-4 0.0198,-0.001 0.0198,-0.001 0.65863,0.0575 1.03646,-0.16369 1.23366,-0.34643 0.14535,-0.13512 0.27799,-0.23813 0.36372,-0.28258 2.6035,-1.34937 7.26898,-9.08896 7.81967,-11.08745 0.0275,-0.0991 0.121,-0.2039 0.20919,-0.23354 0.45474,-0.15063 1.16276,-0.48366 1.9551,-1.21779 0.0293,-0.0265 0.0578,-0.0914 0.0547,-0.13052 -0.003,-0.0399 -0.0201,-0.0695 -0.043,-0.0945 0.13688,-0.10654 0.35454,-0.25753 0.56762,-0.40429 0.33161,-0.2293 0.64558,-0.44556 0.77717,-0.57785 0.031,-0.0317 0.0526,-0.1023 0.0409,-0.14569 -0.0212,-0.078 -0.0914,-0.11113 -0.16828,-0.13582 0.28505,-0.27447 0.59126,-0.53975 0.8435,-0.75742 0.49424,-0.42721 0.55668,-0.48577 0.53939,-0.59231 -10e-4,-0.006 -0.003,-0.0123 -0.005,-0.019 0.13794,-0.10866 0.17039,-0.1457 0.18062,-0.23001 0.009,-0.0702 0.15523,-0.27411 0.42404,-0.5902 0.10548,-0.127 0.20391,-0.23389 0.2981,-0.32103 0.12665,-0.11888 0.19015,-0.17886 0.15452,-0.27587 -0.008,-0.0219 -0.0257,-0.0423 -0.0473,-0.0582 0.004,-0.019 0.0134,-0.0448 0.0339,-0.0741 0.254,-0.35595 0.85055,-0.43815 1.28623,-0.49848 0.34995,-0.0483 0.56091,-0.0776 0.59901,-0.24447 0.0328,-0.14464 -0.11006,-0.26247 -0.26952,-0.36865 -0.32138,-0.21202 -0.69744,-0.32915 -1.05974,-0.32915 -0.62442,0 -1.13418,0.32809 -1.40547,0.9017 -0.0356,-0.03 -0.0787,-0.0452 -0.12312,-0.0452 -0.12735,0 -0.23495,0.1136 -0.36089,0.37853 -0.0476,0.10125 -0.28998,0.6276 -0.40182,1.09009 -0.013,0.0557 -0.0226,0.0677 -0.0487,0.0991 -0.0233,0.0282 -0.0497,0.0607 -0.0811,0.11747 -0.0215,0.0388 -0.0469,0.0868 -0.0751,0.14076 -0.11465,0.21766 -0.28116,0.53305 -0.49036,0.78458 -0.0434,-0.0995 -0.0942,-0.20602 -0.20637,-0.20602 -0.0321,0 -0.0854,0.0222 -0.10936,0.0448 -0.17569,0.16862 -0.35278,0.43215 -0.54116,0.7112 -0.13018,0.19473 -0.26353,0.39299 -0.39935,0.56303 -0.006,-0.0198 -0.0152,-0.0381 -0.03,-0.0543 -0.0441,-0.0505 -0.15205,-0.0526 -0.2032,-0.0109 -0.19085,0.15628 -0.40534,0.3496 -0.62689,0.54857 -0.32773,0.29492 -0.66534,0.59937 -0.95567,0.80821 -0.1076,0.0769 -0.30762,0.1778 -0.42722,0.23813 -0.95179,0.47907 -1.29928,1.1176 -2.44862,3.23426 -0.31433,0.57927 -0.69039,1.27036 -1.15535,2.1015 -2.75308,4.91455 -4.09399,5.64868 -4.64891,5.64868 -0.0631,0 -0.12382,-0.01 -0.18027,-0.0286 -0.13687,-0.0452 -0.26917,-0.0677 -0.39546,-0.0677 -0.46073,0 -0.75248,0.29069 -0.98672,0.52423 l -0.0949,0.0886 c -0.004,-8e-4 -0.0183,-0.0116 -0.0289,-0.0452 -0.5334,-1.70286 -2.07292,-3.19617 -2.97039,-3.95288 1.81257,-0.22225 2.60209,-1.02411 3.59375,-2.21862 1.62277,-1.9632 0.13441,-5.98029 -0.5909,-7.63799 l -0.0356,-0.0684 c 0,-0.0109 0.006,-0.06 0.0903,-0.21801 0.0688,-0.12842 0.10336,-0.25965 0.10336,-0.38877 l 8e-4,-0.28257 c 2.6e-4,-0.121 0.0445,-0.32032 0.0959,-0.43568 0.22013,-0.49072 0.43039,-0.98143 0.63817,-1.46544 0.85196,-1.98508 1.65629,-3.86009 2.84903,-5.14279 0.0561,-0.06 0.12207,-0.16863 0.20109,-0.33162 0.067,-0.13829 0.14076,-0.36618 0.17462,-0.50764 0.33163,-1.40753 1.324,-6.19261 0.17429,-8.66347 -0.29573,-0.63676 -0.67497,-0.73166 -0.8757,-0.73166 -0.23318,0 -0.46672,0.12347 -0.64099,0.33867 -0.22825,0.28081 -0.3235,0.67451 -0.24906,1.02764 0.78493,3.79589 1.05551,6.38457 0.80503,7.69197 -0.024,0.12453 -0.1083,0.32067 -0.17145,0.42615 -0.13723,0.22754 -0.33584,0.54434 -0.50341,0.76377 -1.11584,1.46826 -1.90606,3.50696 -2.90618,6.08788 -0.03,0.0762 -0.13653,0.14394 -0.23813,0.15064 -0.0825,0.006 -0.15981,0.0187 -0.23036,0.0381 -0.0977,0.0279 -0.18098,0.0109 -0.21943,-0.0459 -0.27411,-0.41804 -0.55633,-0.75389 -0.86289,-1.02553 -0.079,-0.0699 -0.14076,-0.21343 -0.13512,-0.31256 0.018,-0.29845 0.007,-0.51929 -0.0321,-0.65616 -0.0183,-0.0649 -0.0741,-0.26318 -0.71579,-0.69074 -0.12488,-0.0832 -0.23424,-0.0751 -0.29739,0.003 -0.0441,0.0529 -0.055,0.12947 -0.0346,0.23283 0.0261,0.13441 0.0363,0.34537 -0.0568,0.58773 -0.0247,0.0628 -0.13123,0.11077 -0.22436,0.096 -0.19121,-0.0317 -0.39229,-0.0487 -0.58667,-0.0317 -0.0511,0.005 -0.13371,0.005 -0.18415,0 -0.19544,-0.0162 -0.39617,7.1e-4 -0.58667,0.0317 -0.0907,0.0138 -0.20003,-0.0321 -0.22366,-0.0952 -0.0949,-0.24307 -0.0836,-0.45403 -0.0575,-0.58773 0.0205,-0.10407 0.009,-0.18062 -0.0346,-0.23354 -0.0639,-0.0773 -0.17286,-0.0854 -0.29739,-0.002 -0.64241,0.42722 -0.69745,0.62583 -0.71544,0.69003 -0.0395,0.13794 -0.0511,0.35878 -0.0325,0.65688 0.006,0.10054 -0.0557,0.24377 -0.13476,0.31291 -0.30621,0.27058 -0.58843,0.60643 -0.86325,1.02517 -0.0378,0.0575 -0.1217,0.0744 -0.21978,0.0462 -0.0706,-0.0198 -0.14816,-0.0325 -0.23107,-0.0381 -0.10054,-0.007 -0.20708,-0.0744 -0.23671,-0.14993 -1.00048,-2.58091 -1.79141,-4.61962 -2.90724,-6.08823 -0.16722,-0.21908 -0.36619,-0.53622 -0.50271,-0.76377 -0.0631,-0.10548 -0.14746,-0.30162 -0.17145,-0.42615 -0.25047,-1.3074 0.0198,-3.89537 0.80504,-7.69161 0.0744,-0.35314 -0.0208,-0.74684 -0.24906,-1.028 -0.17463,-0.21519 -0.40817,-0.33867 -0.64135,-0.33867 -0.20038,0 -0.57997,0.0949 -0.87525,0.73167 -1.1497,2.4705 -0.15804,7.25593 0.17428,8.66316 0.0332,0.14111 0.10795,0.36971 0.17462,0.50729 0.0783,0.16299 0.14429,0.27129 0.20073,0.33161 1.19274,1.2827 1.99743,3.15772 2.84939,5.14245 0.20778,0.48365 0.41839,0.97437 0.63817,1.46508 0.0515,0.11536 0.0956,0.31503 0.096,0.43568 l 7.2e-4,0.28223 c 0,0.12911 0.0346,0.26035 0.10336,0.38876 0.0797,0.14922 0.0892,0.20143 0.0945,0.20143 0,0 3.4e-4,0 7.2e-4,-3.4e-4 l -0.0515,0.10724 c -0.71438,1.63583 -2.20275,5.65291 -0.58068,7.61683 0.99201,1.19415 1.78118,1.99637 3.5934,2.21862 -0.89676,0.75706 -2.43664,2.25037 -2.96969,3.95323 -0.01,0.031 -0.0247,0.0445 -0.0533,0.0286 l -0.0716,-0.0709 c -0.23495,-0.2339 -0.52634,-0.52423 -0.98742,-0.52423 -0.12665,0 -0.25929,0.0229 -0.39582,0.0681 -0.0557,0.019 -0.11677,0.0282 -0.18027,0.0282 -0.55421,0 -1.89582,-0.73378 -4.64855,-5.64868 -0.46531,-0.8308 -0.84067,-1.52224 -1.15535,-2.10115 -1.14935,-2.11702 -1.49683,-2.75555 -2.44898,-3.23462 -0.11924,-0.0603 -0.31926,-0.16122 -0.42686,-0.23812 -0.28999,-0.2092 -0.62795,-0.514 -0.95568,-0.80822 -0.22154,-0.19896 -0.43532,-0.39264 -0.62759,-0.54927 -0.0512,-0.0409 -0.1591,-0.0384 -0.20249,0.0116 -0.0141,0.0169 -0.0236,0.0346 -0.03,0.0547 -0.13617,-0.1711 -0.26917,-0.36936 -0.39934,-0.56303 -0.18768,-0.27905 -0.36548,-0.54293 -0.54222,-0.71226 -0.0236,-0.0219 -0.0755,-0.0441 -0.10795,-0.0441 -0.11254,0 -0.16334,0.10618 -0.20638,0.20602 -0.2092,-0.25153 -0.37571,-0.56656 -0.49036,-0.78458 -0.0286,-0.054 -0.0536,-0.10195 -0.0755,-0.14076 -0.0318,-0.0568 -0.0579,-0.0892 -0.0808,-0.11712 -0.0258,-0.0318 -0.0353,-0.0437 -0.049,-0.0991 -0.11184,-0.46284 -0.35384,-0.98919 -0.40182,-1.09079 -0.12559,-0.26529 -0.23318,-0.37782 -0.36018,-0.37782 -0.0448,0 -0.0879,0.0152 -0.12348,0.0448 -0.27128,-0.57397 -0.78105,-0.9017 -1.40546,-0.9017 -0.36231,0 -0.73801,0.11712 -1.0594,0.32949 -0.1598,0.10584 -0.30338,0.22331 -0.26952,0.36795 0.0378,0.16757 0.24906,0.19685 0.59902,0.24518 0.43568,0.06 1.03152,0.14217 1.28623,0.49812 0.0201,0.0293 0.03,0.0557 0.0335,0.0748 -0.0215,0.0155 -0.0388,0.036 -0.0469,0.0579 -0.0356,0.097 0.0279,0.15734 0.1591,0.28081 0.0889,0.0826 0.18768,0.18909 0.29387,0.3175 0.26811,0.31503 0.41451,0.51894 0.42298,0.58914 0.0109,0.084 0.043,0.12136 0.18062,0.23001 -0.002,0.006 -0.004,0.0123 -0.005,0.0187 -0.0176,0.10619 0.0448,0.16475 0.53904,0.59232 0.25259,0.21837 0.55916,0.48365 0.84385,0.75776 -0.0773,0.0243 -0.14746,0.0575 -0.16863,0.13582 -0.0109,0.0437 0.0106,0.11466 0.0427,0.14676 0.13053,0.13123 0.44344,0.34748 0.77576,0.57644 0.21272,0.14675 0.4318,0.29739 0.56726,0.40463 -0.0212,0.0236 -0.0392,0.0536 -0.042,0.0949 -0.004,0.0392 0.0247,0.10337 0.0533,0.13018 0.7934,0.73413 1.50142,1.0675 1.95615,1.21814 0.0879,0.0289 0.18168,0.13405 0.2092,0.23424 0.55139,1.99884 5.21759,9.73843 7.81968,11.0864 0.0857,0.0441 0.21836,0.14746 0.36441,0.28328 0.19615,0.18238 0.57397,0.40499 1.23296,0.34643 l 0.0162,-0.12524 h 3.5e-4 l 0.007,0.10301 c 0,0 7.1e-4,0.0113 -0.0106,0.0374 -0.13653,0.30868 -0.22649,0.64523 -0.22155,1.28446 7.2e-4,0.0963 -0.0607,0.18804 -0.11818,0.21767 -0.09,0.0466 -0.13546,0.0656 -0.15557,0.073 -0.0353,-0.0233 -0.10725,-0.079 -0.19685,-0.1591 -1.88595,-1.67499 -5.7972,-2.69981 -7.29968,-2.69981 -0.30586,0 -0.51612,0.0381 -0.64276,0.11783 -0.10301,0.0653 -0.17957,0.14428 -0.22649,0.23495 -0.0353,0.0681 -0.0617,0.15345 -0.0871,0.236 -0.0254,0.0832 -0.0515,0.16863 -0.0822,0.21943 -0.99483,1.62737 -1.80164,4.66937 -2.65642,7.88988 -0.56938,2.14453 -1.15817,4.36174 -1.82421,6.24275 -0.1397,0.31539 -0.50976,0.72179 -0.83608,1.08021 -0.36548,0.4004 -0.68016,0.74683 -0.72179,0.99518 -0.0522,0.30233 -0.26176,0.5327 -0.62371,0.68404 -0.33725,0.14287 -0.49107,0.56268 -0.58702,0.91264 -0.0575,0.21519 -0.22507,0.2741 -0.54187,0.36865 -0.36336,0.11253 -1.01106,0.82867 -1.42487,1.78929 -0.10689,0.24518 -0.0603,0.66534 0.0529,0.83749 0.0564,0.0875 0.12453,0.10583 0.1711,0.10583 0.15557,0 0.21413,-0.18979 0.23389,-0.25258 0.16404,-0.5387 0.47872,-0.69533 0.78211,-0.84738 0.097,-0.0483 0.1905,-0.0945 0.27657,-0.15522 0.0392,0.14217 0.14182,0.19615 0.23813,0.19615 0.3302,0 0.85407,-0.65758 0.86889,-1.22626 0.004,-0.16651 0.061,-0.19932 0.30515,-0.31115 0.0526,-0.024 0.11007,-0.0508 0.17181,-0.0818 0.3877,-0.19332 0.42474,-0.26917 0.71472,-0.86078 0.17251,-0.35454 0.22225,-0.36406 0.31292,-0.38205 0.0575,-0.0109 0.13688,-0.0265 0.24059,-0.0825 0.33232,-0.17745 0.40852,-0.33797 0.67663,-0.98814 0.14852,-0.36018 0.0931,-0.5655 0.0564,-0.70061 -0.0296,-0.1083 -0.031,-0.11536 0.096,-0.19544 0.0765,-0.0487 0.13582,-0.0526 0.20355,-0.0557 0.33091,-0.0187 0.47237,-0.1517 0.75389,-1.57057 0.30621,-1.55434 1.149,-3.78531 1.96462,-5.94219 0.94544,-2.50119 1.92299,-5.08847 2.08562,-6.67843 0.005,-0.0522 0.0243,-0.0522 0.0335,-0.0522 0.008,0 0.0215,0.001 0.0416,0.01 0.0346,0.0152 0.0713,0.0289 0.10901,0.0427 0.15875,0.0575 0.40675,0.0949 0.52776,0.10689 1.09573,0.11536 1.44109,0.36195 1.91911,0.70308 0.53481,0.38206 1.1998,0.8576 3.10797,1.3836 0.49424,0.0949 0.87842,0.31997 1.22943,0.54222 0.0861,0.0547 0.19685,0.18626 0.27799,0.28222 l 0.0399,0.0466 c 0.12206,0.14217 0.34996,0.31891 0.7433,0.35207 0.0924,0.008 0.17957,0.0744 0.19791,0.15169 0.0617,0.25894 0.12735,0.47943 0.18062,0.65617 0.0236,0.079 -0.0194,0.19156 -0.0938,0.24448 -0.26035,0.18697 -0.49918,0.41204 -0.63888,0.60078 -0.0385,0.0529 -0.0723,0.10477 -0.0991,0.14781 -0.012,0.0187 -0.0219,0.0356 -0.0314,0.0483 -0.007,0.002 -0.0141,0.005 -0.0212,0.007 -3.56376,1.38995 -6.74864,4.5025 -6.75957,5.9817 0,0.11642 0.004,0.21767 0.0134,0.30022 0.008,0.0586 0.0243,0.12735 0.0409,0.19932 0.0219,0.0921 0.0469,0.19649 0.0448,0.26634 -0.0258,1.14582 0.0981,2.5393 0.2413,4.15185 0.23848,2.67934 0.53481,6.0138 0.30233,9.94374 -0.006,0.10054 -0.0833,0.25471 -0.16898,0.33655 -0.54469,0.51717 -1.00013,1.31233 -1.01318,1.77412 -0.008,0.34431 -0.20108,0.63182 -0.57256,0.85407 -0.34431,0.2032 -0.4445,0.68157 -0.49424,1.07563 -0.0317,0.25047 -0.2159,0.34889 -0.53975,0.49953 -0.3743,0.17427 -0.96626,1.05022 -1.26683,2.16147 -0.0734,0.27058 0.0307,0.69003 0.16863,0.87065 0.0547,0.0713 0.11677,0.1076 0.18345,0.1076 0.11994,0 0.19685,-0.1016 0.22824,-0.30233 0.096,-0.61771 0.43145,-0.84984 0.72708,-1.05375 0.10407,-0.0727 0.20426,-0.14181 0.28998,-0.22507 0.0646,0.16686 0.18733,0.18838 0.24483,0.18838 0.11289,0 0.23213,-0.0713 0.35631,-0.21025 0.25082,-0.28328 0.47801,-0.80363 0.42439,-1.24919 -0.0215,-0.19014 0.0374,-0.23601 0.28963,-0.39934 0.0533,-0.0342 0.11148,-0.0716 0.17462,-0.11571 0.38912,-0.27235 0.41663,-0.35984 0.63712,-1.04176 0.13617,-0.42227 0.19121,-0.44097 0.29104,-0.4766 0.06,-0.0212 0.14217,-0.0497 0.24448,-0.12594 0.33372,-0.24836 0.39123,-0.43392 0.58032,-1.17722 0.0691,-0.27411 0.0765,-0.47166 0.0815,-0.6156 0.01,-0.25082 0.012,-0.31856 0.3249,-0.49142 0.12806,-0.0706 0.20567,-0.0825 0.25259,-0.0892 0.0416,-0.006 0.10407,-0.0152 0.14217,-0.0765 0.0395,-0.0649 0.0198,-0.12417 -0.0134,-0.22154 -0.0508,-0.14852 -0.16827,-0.49601 -0.29774,-1.30528 -0.23495,-1.45344 -0.1778,-3.5567 -0.11713,-5.78308 0.0808,-2.96863 0.1644,-6.03815 -0.4953,-7.56074 -0.0395,-0.0924 -0.0268,-0.23036 0.0279,-0.29633 0.75742,-0.90488 1.70498,-1.36948 2.70863,-1.85985 1.0862,-0.53163 2.31775,-1.13488 3.50873,-2.401 0.0663,-0.072 0.12171,-0.14146 0.16757,-0.20779 0.06,-0.0875 0.19191,-0.17286 0.2928,-0.19014 0.0617,-0.0106 0.12559,-0.0243 0.18945,-0.0427 0.0169,-0.005 0.0335,-0.008 0.0504,-0.008 0.0321,0 0.0896,0.01 0.11183,0.0741 0.3436,1.00929 0.63464,1.68486 0.86395,2.0073 0.0557,0.0787 0.10301,0.19226 0.0695,0.27693 -0.0935,0.23424 -0.2346,0.63288 -0.3743,1.20192 -0.11042,0.42862 -0.0811,0.82867 0.091,1.258 0.0289,0.0706 0.002,0.14887 -0.0621,0.18062 -3.22439,1.60161 -5.00168,4.2538 -5.28214,7.88388 -0.27905,3.61209 1.02482,7.17444 1.82668,8.97643 0.13018,0.2928 0.2533,0.5976 0.37571,0.90205 0.3616,0.89747 0.73554,1.82528 1.282,2.38231 0.0663,0.0684 0.16792,0.21872 0.27904,0.41275 0.0501,0.0864 0.0984,0.19579 0.15911,0.33055 0.127,0.28082 0.30056,0.66569 0.62194,1.18534 0.0529,0.0892 0.19191,0.25894 0.33832,0.4392 0.12029,0.14853 0.24518,0.30163 0.28398,0.36372 0.13512,0.22296 0.20426,0.38558 0.27094,0.54257 0.0642,0.15064 0.12453,0.29281 0.23389,0.4692 0.0737,0.11853 0.22225,0.24906 0.36548,0.375 0.0967,0.0847 0.19649,0.1718 0.23636,0.22613 0.44591,0.6163 0.68156,0.89464 0.95391,1.21779 0.0811,0.0956 0.1658,0.19579 0.26141,0.31044 0.0892,0.10795 0.23565,0.18556 0.41134,0.21767 0.0748,0.0134 0.17321,0.0208 0.27763,0.0208 0.10478,0 0.2032,-0.007 0.27764,-0.0208 0.17568,-0.0314 0.32208,-0.10901 0.41134,-0.21696 0.0956,-0.11536 0.18027,-0.21555 0.2614,-0.31115 0.27235,-0.32315 0.50836,-0.60219 0.95356,-1.21744 0.0402,-0.0547 0.1397,-0.14252 0.23672,-0.22719 0.14322,-0.12559 0.29174,-0.25611 0.36618,-0.375 0.10866,-0.17568 0.16898,-0.3182 0.23319,-0.46884 0.067,-0.15734 0.13652,-0.32032 0.27058,-0.54222 0.0388,-0.0628 0.16369,-0.21625 0.28469,-0.36477 0.1464,-0.17992 0.28504,-0.34996 0.33725,-0.4371 0.32209,-0.52105 0.49566,-0.90557 0.62266,-1.18639 0.0607,-0.13546 0.10971,-0.24447 0.1591,-0.33126 0.11112,-0.19402 0.21272,-0.3436 0.27905,-0.41239 0.54574,-0.55739 0.92004,-1.48484 1.28199,-2.38231 0.12242,-0.3041 0.24553,-0.6089 0.37536,-0.90241 0.80221,-1.80199 2.10608,-5.36469 1.82703,-8.97643 -0.28116,-3.62973 -2.0581,-6.28191 -5.28214,-7.88387 -0.0646,-0.0317 -0.091,-0.10936 -0.0621,-0.18062 0.17216,-0.42934 0.20109,-0.82868 0.0914,-1.25695 -0.14005,-0.57044 -0.28152,-0.96873 -0.375,-1.20227 -0.0335,-0.085 0.0138,-0.19932 0.0702,-0.27763 0.22895,-0.32244 0.52035,-0.99766 0.8636,-2.0066 0.0226,-0.0653 0.079,-0.0748 0.11183,-0.0748 0.0166,0 0.0332,0.003 0.0515,0.008 0.0638,0.0183 0.12665,0.0321 0.18838,0.0427 0.10089,0.0177 0.23248,0.10265 0.29281,0.18979 0.0459,0.067 0.10089,0.13617 0.16827,0.2092 1.19027,1.26541 2.42182,1.86831 3.50802,2.39994 1.0033,0.49107 1.95087,0.95497 2.70828,1.85985 0.0547,0.066 0.0677,0.2039 0.0282,0.29668 -0.6597,1.52259 -0.57609,4.59211 -0.49565,7.56074 0.061,2.22673 0.11817,4.32928 -0.11678,5.78343 -0.12946,0.80857 -0.24729,1.15676 -0.29774,1.30528 -0.0332,0.0974 -0.0533,0.15664 -0.0134,0.22155 0.0377,0.0617 0.10054,0.0713 0.14217,0.0765 0.0469,0.007 0.12418,0.0183 0.25259,0.0892 0.31256,0.17286 0.31503,0.24059 0.32491,0.49142 0.005,0.14393 0.0124,0.34149 0.0815,0.61595 0.18874,0.74365 0.24589,0.92851 0.58067,1.17686 0.10195,0.0755 0.18415,0.10478 0.24412,0.12594 0.0998,0.0346 0.15522,0.0543 0.29105,0.47661 0.22048,0.68156 0.248,0.76941 0.63782,1.04175 0.0624,0.0434 0.12065,0.0808 0.17391,0.11536 0.25259,0.16333 0.31115,0.2092 0.28964,0.39864 -0.0529,0.44626 0.17356,0.96696 0.42474,1.24989 0.12382,0.13899 0.24377,0.21025 0.35595,0.21025 0.0579,0 0.18062,-0.0212 0.24412,-0.18803 0.0857,0.0829 0.18627,0.15205 0.29105,0.22508 0.29527,0.2039 0.63076,0.43568 0.72707,1.0541 0.0314,0.20073 0.10795,0.30197 0.2279,0.30197 0.0674,0 0.12911,-0.0363 0.18379,-0.10759 0.13794,-0.18063 0.24166,-0.60008 0.16828,-0.87031 -0.30092,-1.1116 -0.89253,-1.98755 -1.26683,-2.16182 -0.32385,-0.15063 -0.508,-0.24871 -0.53975,-0.49988 -0.0497,-0.3937 -0.14993,-0.87207 -0.49388,-1.07457 -0.37183,-0.22295 -0.5648,-0.51046 -0.57292,-0.85548 -0.013,-0.46108 -0.46813,-1.25624 -1.01317,-1.77342 -0.0857,-0.0811 -0.16263,-0.23565 -0.16863,-0.33655 -0.23283,-3.92994 0.0635,-7.2644 0.30198,-9.94374 0.14252,-1.61326 0.2667,-3.00602 0.2413,-4.15255 -0.002,-0.0688 0.0229,-0.17357 0.0448,-0.26564 0.0166,-0.0716 0.0332,-0.14076 0.0409,-0.19967 0.0106,-0.0829 0.0134,-0.1838 0.0134,-0.30092 -0.0113,-1.47814 -3.19617,-4.5907 -6.76275,-5.98241 -0.006,-0.001 -0.0116,-0.004 -0.0183,-0.006 -0.009,-0.0127 -0.0187,-0.0296 -0.031,-0.0487 -0.0275,-0.043 -0.0607,-0.0952 -0.0988,-0.14746 -0.1397,-0.18874 -0.37924,-0.41381 -0.63959,-0.60113 -0.0748,-0.0536 -0.11712,-0.1651 -0.0938,-0.24413 0.0533,-0.17744 0.11924,-0.39758 0.18098,-0.65616 0.018,-0.0773 0.10477,-0.14394 0.19791,-0.15205 0.39299,-0.0339 0.62124,-0.21025 0.7433,-0.35207 l 0.0395,-0.0462 c 0.0811,-0.0963 0.19191,-0.22719 0.27799,-0.28222 0.35136,-0.22261 0.73518,-0.44732 1.24001,-0.54469 1.8983,-0.52388 2.56293,-0.99942 3.09739,-1.38148 0.47801,-0.34149 0.82303,-0.58843 1.91946,-0.70309 0.12101,-0.0127 0.3683,-0.0497 0.5267,-0.10759 0.0381,-0.0138 0.0751,-0.0282 0.11007,-0.0423 0.0198,-0.008 0.0332,-0.01 0.0413,-0.01 0.01,0 0.0289,0 0.0335,0.0522 0.16298,1.59067 1.14018,4.17689 2.08562,6.67843 0.81562,2.15759 1.65876,4.38785 1.96462,5.9429 0.28187,1.41816 0.42263,1.55116 0.75424,1.56986 0.0681,0.003 0.127,0.007 0.20355,0.0554 0.127,0.0804 0.12559,0.0871 0.096,0.19544 -0.0399,0.13476 -0.0945,0.33972 0.0536,0.70026"
       style="fill:#8e8e8e;fill-opacity:1;fill-rule:nonzero;stroke:none;stroke-width:0.352777"
       id="path36" />
  </g>
</svg>
