<?xml version="1.0" encoding="UTF-8" standalone="no"?><!DOCTYPE svg PUBLIC "-//W3C//DTD SVG 1.1//EN" "http://www.w3.org/Graphics/SVG/1.1/DTD/svg11.dtd"><svg fill="#8e8e8e" width="1400px" height="3000px" version="1.1" xmlns="http://www.w3.org/2000/svg" xmlns:xlink="http://www.w3.org/1999/xlink" xml:space="preserve" xmlns:serif="http://www.serif.com/" style="fill-rule:evenodd;clip-rule:evenodd;stroke-linejoin:round;stroke-miterlimit:2;"><g transform="matrix(1.70642,0,0,1.70642,-2734.34,-260.429)"><path d="M2009.65,643.48C2023.06,643.563 2036.76,645.64 2049.06,650.028C2057.08,652.888 2062.74,660.032 2065.44,668.289C2074.65,696.189 2092.36,720.879 2112.15,743.285C2147.8,783.635 2193.14,814.008 2231.43,852.088C2262.17,882.648 2288.34,918.236 2304.52,958.425C2324.21,1007.32 2326.71,1061.22 2327.99,1114.69C2330.2,1207.19 2329.28,1299.84 2328.38,1392.27C2327.03,1531.04 2323.44,1669.83 2322.96,1808.45C2322.93,1816.63 2323.28,1824.92 2320.22,1832.28C2315.91,1842.63 2306.45,1850.65 2295.45,1853.23C2295.45,1853.23 2292.96,1853.74 2291.15,1854.11C2156.12,1881.05 2016.84,1888.67 1878.73,1877C1818.92,1871.94 1759.52,1863.56 1700.4,1852.66C1684.89,1849.71 1672.55,1835.3 1672.45,1819.11C1672.38,1731.32 1670.11,1644.87 1668.71,1558.01C1666.53,1421.43 1663.98,1284.47 1665.9,1148.91C1666.68,1093.83 1666,1037.58 1682.05,985.327C1697.17,936.084 1726.3,892.184 1762.57,855.008C1784.77,832.257 1809.33,811.814 1833.31,791.202C1868.9,760.549 1903.16,727.203 1923.52,684.215C1925.95,679.099 1928.09,673.827 1929.92,668.525C1930.45,667.024 1930.66,666.586 1931.1,665.655C1935.1,657.303 1943.43,651.61 1952.71,649.841C1971.29,646.352 1990.21,643.561 2008.91,643.479C2009.16,643.479 2009.41,643.479 2009.65,643.48ZM2008.96,661.429C1991.24,661.507 1973.7,664.138 1956.04,667.478C1951.83,668.275 1948.14,670.675 1946.75,674.796C1946.69,674.958 1946.64,675.12 1946.58,675.282C1937.04,702.864 1920.37,727.352 1901.45,749.664C1865.41,792.187 1818.51,824.274 1779.02,863.896C1747.91,895.104 1721.45,931.231 1705.58,972.214C1686.46,1021.6 1685.27,1076.08 1684.22,1127.65C1682.15,1229.18 1683.52,1330.84 1684.83,1432.71C1686.34,1550.31 1689.01,1667.81 1690.21,1785.58C1690.33,1796.79 1690.26,1807.96 1690.4,1819.24C1690.41,1819.42 1690.41,1819.6 1690.42,1819.79C1690.79,1826.99 1696.29,1833.56 1703.62,1835C1831.53,1859.3 1962.2,1869.94 2092.6,1861.62C2157.78,1857.46 2223.03,1849.35 2286.34,1836.76C2291.85,1835.67 2297.44,1834.04 2300.9,1829.9C2304.64,1825.44 2304.99,1819.3 2305,1812.97C2305.15,1729.6 2307.08,1646.18 2308.3,1562.65C2310.14,1434.79 2312.06,1307.07 2311.01,1179.53C2310.68,1139.42 2310.35,1099.3 2307.88,1059.31C2305.38,1018.67 2296.03,978.127 2277.27,942.114C2257.94,905 2229.3,873.321 2197.91,845.183C2166.62,817.144 2132.57,791.996 2104.14,761.191C2080.37,735.438 2058.76,706.325 2048.1,673.021C2047.75,671.93 2046.23,667.976 2042.81,666.859C2031.81,663.37 2020.43,661.421 2008.96,661.429Z"/><path d="M1685.76,1688.2C1706.65,1692.37 1727.53,1695.65 1748.48,1698.79C1863.81,1716.07 1980.7,1724.99 2097.22,1720.61C2169.52,1717.9 2241.87,1709.96 2311.69,1691.33L2314.48,1691.04C2316.88,1691.55 2317.68,1691.42 2319.66,1693.03C2324.68,1697.1 2323.92,1706.65 2315.54,1708.88C2315.01,1709.02 2314.49,1709.16 2313.97,1709.3C2230.29,1731.36 2142.86,1738.71 2056.01,1739.52C1940.62,1740.6 1825.43,1730.37 1711.27,1711.05C1701.67,1709.42 1692.08,1707.74 1682.52,1705.86L1682.25,1705.8C1679.94,1704.95 1679.14,1704.96 1677.41,1703.09C1674.26,1699.69 1674.38,1693.66 1677.91,1690.41C1679.78,1688.68 1680.59,1688.75 1682.95,1688.09C1683.88,1688.12 1684.82,1688.16 1685.76,1688.2Z"/><g transform="matrix(1.10606,0,0,1,-191.197,6)"><path d="M1831,1856L1765,1856L1765,1884.78C1765,1888.82 1766.45,1892.69 1769.03,1895.54C1771.61,1898.4 1775.11,1900 1778.76,1900C1789.69,1900 1804.97,1900 1816.17,1900C1824.36,1900 1831,1892.66 1831,1883.6L1831,1856Z"/></g><g transform="matrix(1.10606,0,0,1,192.803,6)"><path d="M1831,1856L1765,1856L1765,1884.78C1765,1888.82 1766.45,1892.69 1769.03,1895.54C1771.61,1898.4 1775.11,1900 1778.76,1900C1789.69,1900 1804.97,1900 1816.17,1900C1824.36,1900 1831,1892.66 1831,1883.6L1831,1856Z"/></g><g transform="matrix(1,0,0,1,-29,1)"><path d="M1956.95,307.94C1958.49,309.023 1960.06,310.156 1960.93,311.801C1963.28,316.229 1960.16,321.43 1958.17,326.412C1954.7,335.103 1952.91,344.842 1956.8,353.611C1961.15,363.413 1969.1,371.266 1974.73,380.204C1987.54,400.568 1992.32,427.05 1979.54,448.857C1972.09,461.577 1959.34,471.122 1954.83,485.039C1952.09,493.529 1951.99,503.131 1956.86,510.129C1965.36,522.34 1980.48,528.477 1989.73,541.542C2001,557.457 2002.02,579.842 1993.14,597.499C1986.3,611.104 1974.62,622.194 1961.1,628.987L1960.96,629.056C1958.61,629.78 1957.98,630.279 1955.47,629.843C1951.77,629.202 1948.65,625.98 1948.12,622.274C1947.85,620.397 1948.18,618.484 1949.06,616.808C1950.32,614.424 1950.97,614.028 1953.46,612.734C1971.77,603.04 1985.79,582.778 1979.8,561.724C1974.82,544.238 1953.91,535.668 1943.5,522.25C1933.21,508.987 1932.75,489.43 1940.16,473.37C1944.11,464.818 1950.32,457.563 1956.3,450.366C1962.04,443.437 1967.47,435.783 1968.72,426.534C1970.63,412.457 1965.41,398.109 1957.2,386.232C1947.74,372.544 1936.2,359.717 1936.53,341.961C1936.72,331.593 1940.31,321.567 1944.8,312.347C1944.8,312.347 1945.64,310.702 1946.56,309.754C1947.87,308.393 1949.59,307.484 1951.46,307.159C1953.29,306.839 1955.15,307.387 1956.95,307.94Z"/></g><g transform="matrix(1,0,0,1,99,-3)"><path d="M1956.95,307.942C1957.72,308.48 1958.58,308.906 1959.25,309.557C1961.3,311.547 1962.28,314.518 1961.88,317.268C1961.41,320.581 1959.41,323.297 1958.17,326.413C1954.7,335.103 1952.91,344.842 1956.8,353.611C1961.1,363.302 1968.97,371.128 1974.5,379.842C1987.58,400.441 1992.29,427.422 1979.34,449.201C1971.87,461.769 1959.29,471.279 1954.83,485.039C1951.59,495.062 1952.42,506.055 1960.11,514.037C1969.49,523.772 1982.05,530.521 1989.97,541.885C2001.02,557.75 2001.98,579.915 1993.14,597.497C1986.3,611.11 1974.62,622.201 1961.1,628.987L1960.96,629.054C1958.62,629.779 1957.98,630.278 1955.47,629.844C1950.05,628.906 1946.3,622.052 1949.06,616.812C1950.32,614.427 1950.95,614.038 1953.45,612.734C1972,602.914 1986.11,582.066 1979.58,560.979C1976.12,549.819 1965.69,542.101 1956.41,534.698C1947.55,527.577 1939.26,519.049 1936.35,507.984C1932.08,491.728 1938.04,473.737 1948.09,460.445C1956.35,449.514 1967.04,439.891 1968.76,426.213C1970.51,412.417 1965.46,398.347 1957.6,386.813C1948.1,372.888 1936.19,359.99 1936.53,341.961C1936.72,331.593 1940.31,321.568 1944.8,312.347C1944.8,312.347 1945.64,310.701 1946.56,309.752C1947.88,308.391 1949.59,307.483 1951.46,307.158C1953.29,306.839 1955.15,307.387 1956.95,307.942Z"/></g><g transform="matrix(1,0,0,1,24,-138)"><path d="M1956.95,307.94C1958.49,309.023 1960.06,310.156 1960.93,311.801C1963.28,316.229 1960.16,321.43 1958.17,326.413C1954.7,335.103 1952.91,344.842 1956.8,353.611C1961.15,363.413 1969.1,371.266 1974.73,380.203C1987.54,400.568 1992.32,427.05 1979.54,448.857C1972.09,461.577 1959.34,471.122 1954.83,485.039C1951.64,494.899 1952.25,505.668 1959.76,513.666C1969.1,523.612 1981.92,530.327 1989.97,541.884C2001.01,557.737 2001.98,579.916 1993.14,597.499C1986.3,611.111 1974.62,622.199 1961.1,628.987L1960.96,629.055C1958.61,629.779 1957.98,630.278 1955.47,629.843C1950.05,628.904 1946.3,622.049 1949.06,616.81C1950.32,614.425 1950.95,614.034 1953.46,612.734C1971.88,602.983 1985.71,582.876 1979.84,561.873C1975.61,546.731 1958.96,538.188 1948.21,527.53C1939.13,518.53 1934.19,506.244 1935.2,492.722C1936.39,476.713 1946.08,462.657 1956.3,450.366C1962.04,443.437 1967.47,435.783 1968.72,426.534C1970.63,412.457 1965.41,398.109 1957.2,386.232C1947.74,372.543 1936.2,359.717 1936.53,341.961C1936.72,331.593 1940.31,321.567 1944.8,312.347C1944.8,312.347 1945.64,310.702 1946.56,309.754C1947.87,308.393 1949.59,307.484 1951.46,307.159C1953.29,306.839 1955.15,307.387 1956.95,307.94Z"/></g></g></svg>