<?xml version="1.0" encoding="UTF-8" standalone="no"?>
<svg
   xmlns:dc="http://purl.org/dc/elements/1.1/"
   xmlns:cc="http://creativecommons.org/ns#"
   xmlns:rdf="http://www.w3.org/1999/02/22-rdf-syntax-ns#"
   xmlns:svg="http://www.w3.org/2000/svg"
   xmlns="http://www.w3.org/2000/svg"
   xmlns:sodipodi="http://sodipodi.sourceforge.net/DTD/sodipodi-0.dtd"
   xmlns:inkscape="http://www.inkscape.org/namespaces/inkscape"
   width="48.74844mm"
   height="48.74424mm"
   viewBox="0 0 48.74844 48.74424"
   version="1.1"
   id="svg1622"
   sodipodi:docname="04.svg"
   inkscape:version="1.0.1 (3bc2e813f5, 2020-09-07)">
  <defs
     id="defs1616" />
  <sodipodi:namedview
     id="base"
     pagecolor="#ffffff"
     bordercolor="#666666"
     borderopacity="1.0"
     inkscape:pageopacity="0.0"
     inkscape:pageshadow="2"
     inkscape:zoom="1.979899"
     inkscape:cx="113.94024"
     inkscape:cy="12.451106"
     inkscape:document-units="mm"
     inkscape:current-layer="layer1"
     inkscape:document-rotation="0"
     showgrid="false"
     inkscape:window-width="1500"
     inkscape:window-height="1040"
     inkscape:window-x="78"
     inkscape:window-y="0"
     inkscape:window-maximized="0" />
  <metadata
     id="metadata1619">
    <rdf:RDF>
      <cc:Work
         rdf:about="">
        <dc:format>image/svg+xml</dc:format>
        <dc:type
           rdf:resource="http://purl.org/dc/dcmitype/StillImage" />
        <dc:title></dc:title>
      </cc:Work>
    </rdf:RDF>
  </metadata>
  <g
     inkscape:label="Слой 1"
     inkscape:groupmode="layer"
     id="layer1"
     transform="translate(-8.875778,-14.169549)">
    <g
       id="g94"
       transform="matrix(0.35277777,0,0,-0.35277777,48.002777,44.227515)"
       style="fill:#8e8e8e;fill-opacity:1">
      <path
         d="m 0,0 h -83.809 c -10.614,0.366 -19.002,9.286 -18.73,19.896 -0.272,10.611 8.116,19.528 18.73,19.895 h 0.051 c 2.146,0.034 4.251,-0.356 6.248,-1.14 0.717,-0.288 1.516,-0.173 2.107,0.294 0.595,0.473 0.898,1.235 0.786,1.989 l -0.02,0.173 c -0.022,0.28 -0.024,0.563 -0.008,0.846 -0.207,8.934 3.056,17.431 9.195,23.934 6.161,6.529 14.496,10.281 23.469,10.567 l 0.076,0.003 0.075,-0.003 c 8.978,-0.28 17.319,-4.033 23.486,-10.567 6.139,-6.506 9.402,-15.009 9.195,-23.948 0.013,-0.283 0.01,-0.566 -0.009,-0.843 l -0.023,-0.188 c -0.084,-0.554 0.054,-1.106 0.384,-1.559 0.334,-0.452 0.821,-0.748 1.375,-0.832 0.373,-0.059 0.754,-0.015 1.104,0.126 2.01,0.798 4.114,1.19 6.265,1.162 H 0.003 C 10.626,39.435 19.011,30.51 18.73,19.896 19.002,9.284 10.614,0.366 0,0 M 22.932,19.94 C 23.178,32.901 12.844,43.684 -0.112,43.995 -0.913,43.992 -1.723,43.95 -2.518,43.863 l -2.428,-0.26 -0.199,2.433 c -0.764,9.321 -4.937,17.98 -11.749,24.388 -6.799,6.394 -15.68,10.029 -25.008,10.234 -9.329,-0.211 -18.207,-3.846 -25.002,-10.24 -6.808,-6.407 -10.978,-15.064 -11.742,-24.382 l -0.2,-2.433 -2.427,0.26 c -0.796,0.087 -1.606,0.129 -2.41,0.132 C -96.644,43.692 -106.986,32.91 -106.74,19.94 l 0.003,-0.044 -0.003,-0.045 c -0.246,-12.959 10.088,-23.744 23.044,-24.052 h 12.804 v -6.862 c 0,-1.159 0.944,-2.1 2.101,-2.1 1.159,0 2.1,0.941 2.1,2.1 v 6.862 h 49.571 v -6.862 c 0,-1.159 0.944,-2.1 2.1,-2.1 1.16,0 2.101,0.941 2.101,2.1 v 6.862 h 12.807 c 12.956,0.308 23.29,11.093 23.044,24.052 l -0.003,0.045 z"
         style="fill:#8e8e8e;fill-opacity:1;fill-rule:nonzero;stroke:none"
         id="path96" />
    </g>
    <g
       id="g98"
       transform="matrix(0.35277777,0,0,-0.35277777,33.960551,51.291715)"
       style="fill:#8e8e8e;fill-opacity:1">
      <path
         d="m 0,0 v -4.481 c 0,-1.16 -0.941,-2.101 -2.101,-2.101 -1.157,0 -2.1,0.941 -2.1,2.101 V 0 c 0,1.156 0.943,2.101 2.1,2.101 C -0.941,2.101 0,1.156 0,0"
         style="fill:#8e8e8e;fill-opacity:1;fill-rule:nonzero;stroke:none"
         id="path100" />
    </g>
    <g
       id="g102"
       transform="matrix(0.35277777,0,0,-0.35277777,33.960551,59.195775)"
       style="fill:#8e8e8e;fill-opacity:1">
      <path
         d="m 0,0 v -4.48 c 0,-1.161 -0.941,-2.101 -2.101,-2.101 -1.157,0 -2.1,0.94 -2.1,2.101 V 0 c 0,1.157 0.943,2.101 2.1,2.101 C -0.941,2.101 0,1.157 0,0"
         style="fill:#8e8e8e;fill-opacity:1;fill-rule:nonzero;stroke:none"
         id="path104" />
    </g>
    <g
       id="g106"
       transform="matrix(0.35277777,0,0,-0.35277777,43.445227,54.453275)"
       style="fill:#8e8e8e;fill-opacity:1">
      <path
         d="m 0,0 v -4.481 c 0,-1.16 -0.941,-2.101 -2.101,-2.101 -1.156,0 -2.1,0.941 -2.1,2.101 V 0 c 0,1.156 0.944,2.101 2.1,2.101 C -0.941,2.101 0,1.156 0,0"
         style="fill:#8e8e8e;fill-opacity:1;fill-rule:nonzero;stroke:none"
         id="path108" />
    </g>
    <g
       id="g110"
       transform="matrix(0.35277777,0,0,-0.35277777,24.475529,54.453275)"
       style="fill:#8e8e8e;fill-opacity:1">
      <path
         d="m 0,0 v -4.481 c 0,-1.16 -0.94,-2.101 -2.1,-2.101 -1.157,0 -2.1,0.941 -2.1,2.101 V 0 c 0,1.156 0.943,2.101 2.1,2.101 C -0.94,2.101 0,1.156 0,0"
         style="fill:#8e8e8e;fill-opacity:1;fill-rule:nonzero;stroke:none"
         id="path112" />
    </g>
  </g>
</svg>
