<?xml version="1.0" encoding="UTF-8" standalone="no"?>
<svg
   xmlns:dc="http://purl.org/dc/elements/1.1/"
   xmlns:cc="http://creativecommons.org/ns#"
   xmlns:rdf="http://www.w3.org/1999/02/22-rdf-syntax-ns#"
   xmlns:svg="http://www.w3.org/2000/svg"
   xmlns="http://www.w3.org/2000/svg"
   xmlns:sodipodi="http://sodipodi.sourceforge.net/DTD/sodipodi-0.dtd"
   xmlns:inkscape="http://www.inkscape.org/namespaces/inkscape"
   width="48.747871mm"
   height="47.225201mm"
   viewBox="0 0 48.74787 47.225199"
   version="1.1"
   id="svg1622"
   sodipodi:docname="05.svg"
   inkscape:version="1.0.1 (3bc2e813f5, 2020-09-07)">
  <defs
     id="defs1616" />
  <sodipodi:namedview
     id="base"
     pagecolor="#ffffff"
     bordercolor="#666666"
     borderopacity="1.0"
     inkscape:pageopacity="0.0"
     inkscape:pageshadow="2"
     inkscape:zoom="2.8"
     inkscape:cx="71.824957"
     inkscape:cy="145.30372"
     inkscape:document-units="mm"
     inkscape:current-layer="layer1"
     inkscape:document-rotation="0"
     showgrid="false"
     inkscape:window-width="1500"
     inkscape:window-height="1040"
     inkscape:window-x="78"
     inkscape:window-y="0"
     inkscape:window-maximized="0"
     scale-x="1" />
  <metadata
     id="metadata1619">
    <rdf:RDF>
      <cc:Work
         rdf:about="">
        <dc:format>image/svg+xml</dc:format>
        <dc:type
           rdf:resource="http://purl.org/dc/dcmitype/StillImage" />
        <dc:title></dc:title>
      </cc:Work>
    </rdf:RDF>
  </metadata>
  <g
     inkscape:label="Слой 1"
     inkscape:groupmode="layer"
     id="layer1"
     transform="translate(-8.6638692,-9.9597455)">
    <g
       id="g94"
       transform="matrix(0.35277777,0,0,-0.35277777,111.5447,157.52866)">
      <path
         d="m 0,0 h -83.809 c -10.614,0.366 -19.002,9.286 -18.73,19.896 -0.272,10.611 8.116,19.528 18.73,19.895 h 0.051 c 2.146,0.034 4.251,-0.356 6.248,-1.14 0.717,-0.288 1.516,-0.173 2.107,0.294 0.595,0.473 0.898,1.235 0.786,1.989 l -0.02,0.173 c -0.022,0.28 -0.024,0.563 -0.008,0.846 -0.207,8.934 3.056,17.431 9.195,23.934 6.161,6.529 14.496,10.281 23.469,10.567 l 0.076,0.003 0.075,-0.003 c 8.978,-0.28 17.319,-4.033 23.486,-10.567 6.139,-6.506 9.402,-15.009 9.195,-23.948 0.013,-0.283 0.01,-0.566 -0.009,-0.843 l -0.023,-0.188 c -0.084,-0.554 0.054,-1.106 0.384,-1.559 0.334,-0.452 0.821,-0.748 1.375,-0.832 0.373,-0.059 0.754,-0.015 1.104,0.126 2.01,0.798 4.114,1.19 6.265,1.162 H 0.003 C 10.626,39.435 19.011,30.51 18.73,19.896 19.002,9.284 10.614,0.366 0,0 M 22.932,19.94 C 23.178,32.901 12.844,43.684 -0.112,43.995 -0.913,43.992 -1.723,43.95 -2.518,43.863 l -2.428,-0.26 -0.199,2.433 c -0.764,9.321 -4.937,17.98 -11.749,24.388 -6.799,6.394 -15.68,10.029 -25.008,10.234 -9.329,-0.211 -18.207,-3.846 -25.002,-10.24 -6.808,-6.407 -10.978,-15.064 -11.742,-24.382 l -0.2,-2.433 -2.427,0.26 c -0.796,0.087 -1.606,0.129 -2.41,0.132 C -96.644,43.692 -106.986,32.91 -106.74,19.94 l 0.003,-0.044 -0.003,-0.045 c -0.246,-12.959 10.088,-23.744 23.044,-24.052 h 12.804 v -6.862 c 0,-1.159 0.944,-2.1 2.101,-2.1 1.159,0 2.1,0.941 2.1,2.1 v 6.862 h 49.571 v -6.862 c 0,-1.159 0.944,-2.1 2.1,-2.1 1.16,0 2.101,0.941 2.101,2.1 v 6.862 h 12.807 c 12.956,0.308 23.29,11.093 23.044,24.052 l -0.003,0.045 z"
         style="fill:#ffffff;fill-opacity:1;fill-rule:nonzero;stroke:none"
         id="path96" />
    </g>
    <g
       id="g98"
       transform="matrix(0.35277777,0,0,-0.35277777,97.502474,164.59286)">
      <path
         d="m 0,0 v -4.481 c 0,-1.16 -0.941,-2.101 -2.101,-2.101 -1.157,0 -2.1,0.941 -2.1,2.101 V 0 c 0,1.156 0.943,2.101 2.1,2.101 C -0.941,2.101 0,1.156 0,0"
         style="fill:#ffffff;fill-opacity:1;fill-rule:nonzero;stroke:none"
         id="path100" />
    </g>
    <g
       id="g102"
       transform="matrix(0.35277777,0,0,-0.35277777,97.502474,172.49692)">
      <path
         d="m 0,0 v -4.48 c 0,-1.161 -0.941,-2.101 -2.101,-2.101 -1.157,0 -2.1,0.94 -2.1,2.101 V 0 c 0,1.157 0.943,2.101 2.1,2.101 C -0.941,2.101 0,1.157 0,0"
         style="fill:#ffffff;fill-opacity:1;fill-rule:nonzero;stroke:none"
         id="path104" />
    </g>
    <g
       id="g106"
       transform="matrix(0.35277777,0,0,-0.35277777,106.98715,167.75442)">
      <path
         d="m 0,0 v -4.481 c 0,-1.16 -0.941,-2.101 -2.101,-2.101 -1.156,0 -2.1,0.941 -2.1,2.101 V 0 c 0,1.156 0.944,2.101 2.1,2.101 C -0.941,2.101 0,1.156 0,0"
         style="fill:#ffffff;fill-opacity:1;fill-rule:nonzero;stroke:none"
         id="path108" />
    </g>
    <g
       id="g110"
       transform="matrix(0.35277777,0,0,-0.35277777,88.017452,167.75442)">
      <path
         d="m 0,0 v -4.481 c 0,-1.16 -0.94,-2.101 -2.1,-2.101 -1.157,0 -2.1,0.941 -2.1,2.101 V 0 c 0,1.156 0.943,2.101 2.1,2.101 C -0.94,2.101 0,1.156 0,0"
         style="fill:#ffffff;fill-opacity:1;fill-rule:nonzero;stroke:none"
         id="path112" />
    </g>
    <g
       id="g114"
       transform="matrix(0.35277777,0,0,-0.35277777,47.631173,21.862625)"
       style="fill:#8e8e8e;fill-opacity:1">
      <path
         d="m 0,0 h -2.529 c 0.277,-5.321 -0.359,-10.65 -1.88,-15.756 -1.691,-5.563 -4.418,-10.755 -8.04,-15.303 3.679,-1.266 6.74,-3.885 8.558,-7.327 3.262,0.709 6.401,1.897 9.316,3.524 6.102,3.541 10.992,8.845 14.026,15.216 v 0.194 C 19.435,-8.716 10.735,-0.017 0,0"
         style="fill:#8e8e8e;fill-opacity:1;fill-rule:nonzero;stroke:none"
         id="path116" />
    </g>
    <g
       id="g118"
       transform="matrix(0.35277777,0,0,-0.35277777,50.292167,35.487992)"
       style="fill:#8e8e8e;fill-opacity:1">
      <path
         d="m 0,0 c -3.125,-1.764 -6.488,-3.066 -9.985,-3.869 0.18,-0.955 0.275,-1.924 0.28,-2.896 v -8.645 c 0.007,-1.839 -0.189,-3.673 -0.583,-5.469 2.926,-0.055 5.844,0.309 8.667,1.081 4.814,1.298 9.251,3.72 12.946,7.068 0.381,1.965 0.576,3.962 0.583,5.965 V 10.677 C 8.736,6.318 4.678,2.68 0,0"
         style="fill:#8e8e8e;fill-opacity:1;fill-rule:nonzero;stroke:none"
         id="path120" />
    </g>
    <g
       id="g122"
       transform="matrix(0.35277777,0,0,-0.35277777,46.815013,44.386002)"
       style="fill:#8e8e8e;fill-opacity:1">
      <path
         d="m 0,0 c -0.583,0 -1.167,0.064 -1.771,0.086 -2.592,-5.903 -7.09,-10.767 -12.774,-13.811 0.28,-0.215 0.54,-0.432 0.843,-0.648 2.338,-1.722 4.945,-3.044 7.716,-3.912 C 5.058,-12.73 14.481,-4.69 18.955,5.425 13.275,1.865 6.704,-0.016 0,0"
         style="fill:#8e8e8e;fill-opacity:1;fill-rule:nonzero;stroke:none"
         id="path124" />
    </g>
    <g
       id="g126"
       transform="matrix(0.35277777,0,0,-0.35277777,28.950479,45.392652)"
       style="fill:#8e8e8e;fill-opacity:1">
      <path
         d="m 0,0 c -4.274,2.024 -9.019,2.846 -13.725,2.378 4.237,-4.582 9.986,-11.952 8.17,-16.47 -2.161,-5.295 -14.934,-5.986 -23.017,-5.856 2.477,-2.716 5.476,-4.906 8.817,-6.442 11.002,-4.236 21.852,-0.885 27.795,1.773 l 3.718,9.251 C 9.831,-8.988 5.652,-3.527 0,0"
         style="fill:#8e8e8e;fill-opacity:1;fill-rule:nonzero;stroke:none"
         id="path128" />
    </g>
    <g
       id="g130"
       transform="matrix(0.35277777,0,0,-0.35277777,40.204583,49.967372)"
       style="fill:#8e8e8e;fill-opacity:1">
      <path
         d="m 0,0 c -5.206,-2.203 -10.689,-3.687 -16.297,-4.409 l -2.658,-6.613 c 9.022,0.555 17.89,2.608 26.239,6.073 -1.693,0.821 -3.307,1.798 -4.82,2.918 C 1.6,-1.404 0.778,-0.691 0,0"
         style="fill:#8e8e8e;fill-opacity:1;fill-rule:nonzero;stroke:none"
         id="path132" />
    </g>
    <g
       id="g134"
       transform="matrix(0.35277777,0,0,-0.35277777,20.182029,24.150001)"
       style="fill:#8e8e8e;fill-opacity:1">
      <path
         d="m 0,0 c 1.194,0 2.161,-0.968 2.161,-2.162 0,-1.193 -0.967,-2.161 -2.161,-2.161 -1.193,0 -2.161,0.968 -2.161,2.161 C -2.161,-0.968 -1.193,0 0,0"
         style="fill:#8e8e8e;fill-opacity:1;fill-rule:nonzero;stroke:none"
         id="path136" />
    </g>
    <g
       id="g138"
       transform="matrix(0.35277777,0,0,-0.35277777,45.214072,21.862625)"
       style="fill:#8e8e8e;fill-opacity:1">
      <path
         d="m 0,0 h -30.54 c 2.166,-4.774 3.131,-10.005 2.81,-15.237 -0.281,-6.096 -0.67,-11.067 -2.529,-15.022 h 19.711 C -3.145,-21.978 0.651,-11.088 0,0"
         style="fill:#8e8e8e;fill-opacity:1;fill-rule:nonzero;stroke:none"
         id="path140" />
    </g>
    <g
       id="g142"
       transform="matrix(0.35277777,0,0,-0.35277777,20.182029,27.19994)"
       style="fill:#8e8e8e;fill-opacity:1">
      <path
         d="m 0,0 c -3.581,0 -6.483,2.903 -6.483,6.484 0,3.581 2.902,6.484 6.483,6.484 3.581,0 6.484,-2.903 6.484,-6.484 C 6.484,2.903 3.581,0 0,0 m 35.662,-15.129 c 2.485,3.35 2.918,8.277 3.242,15.237 0.334,5.226 -0.836,10.439 -3.372,15.021 H -10.807 V 8.646 c 0.009,-13.127 10.649,-23.767 23.775,-23.775 z"
         style="fill:#8e8e8e;fill-opacity:1;fill-rule:nonzero;stroke:none"
         id="path144" />
    </g>
    <g
       id="g146"
       transform="matrix(0.35277777,0,0,-0.35277777,28.127096,34.062072)"
       style="fill:#8e8e8e;fill-opacity:1">
      <path
         d="m 0,0 h -6.139 l -7.11,-7.111 c -0.431,-0.436 -0.657,-1.032 -0.627,-1.643 0.022,-0.606 0.306,-1.174 0.778,-1.556 l 12.968,-10.806 2.767,3.328 -11.153,9.294 z"
         style="fill:#8e8e8e;fill-opacity:1;fill-rule:nonzero;stroke:none"
         id="path148" />
    </g>
    <g
       id="g150"
       transform="matrix(0.35277777,0,0,-0.35277777,33.632017,40.337312)"
       style="fill:#8e8e8e;fill-opacity:1">
      <path
         d="m 0,0 -11.152,9.294 8.515,8.494 h -6.137 l -7.112,-7.111 c -0.429,-0.436 -0.657,-1.031 -0.627,-1.643 0.023,-0.606 0.307,-1.174 0.779,-1.555 L -2.767,-3.328 Z"
         style="fill:#8e8e8e;fill-opacity:1;fill-rule:nonzero;stroke:none"
         id="path152" />
    </g>
    <g
       id="g154"
       transform="matrix(0.35277777,0,0,-0.35277777,38.206768,40.337312)"
       style="fill:#8e8e8e;fill-opacity:1">
      <path
         d="m 0,0 -11.152,9.294 8.515,8.494 h -6.137 l -7.112,-7.111 c -0.429,-0.436 -0.657,-1.031 -0.626,-1.643 0.022,-0.606 0.306,-1.174 0.778,-1.555 L -2.766,-3.328 Z"
         style="fill:#8e8e8e;fill-opacity:1;fill-rule:nonzero;stroke:none"
         id="path156" />
    </g>
    <g
       id="g158"
       transform="matrix(0.35277777,0,0,-0.35277777,42.781837,40.337312)"
       style="fill:#8e8e8e;fill-opacity:1">
      <path
         d="m 0,0 -11.152,9.294 8.515,8.494 h -6.138 l -7.111,-7.111 c -0.43,-0.436 -0.658,-1.031 -0.627,-1.643 0.023,-0.606 0.306,-1.174 0.779,-1.555 L -2.767,-3.328 Z"
         style="fill:#8e8e8e;fill-opacity:1;fill-rule:nonzero;stroke:none"
         id="path160" />
    </g>
    <g
       id="g162"
       transform="matrix(0.35277777,0,0,-0.35277777,18.657209,11.188168)"
       style="fill:#8e8e8e;fill-opacity:1">
      <path
         d="m 0,0 c -13.127,-0.008 -23.767,-10.647 -23.774,-23.774 v -2.162 c -0.007,-9.896 6.126,-18.757 15.388,-22.24 -0.809,1.825 -1.425,3.731 -1.838,5.684 -5.738,3.546 -9.23,9.811 -9.228,16.556 v 2.162 C -19.436,-13.038 -10.736,-4.339 0,-4.322 H 105.905 V 0 Z"
         style="fill:#8e8e8e;fill-opacity:1;fill-rule:nonzero;stroke:none"
         id="path164" />
    </g>
    <g
       id="g166"
       transform="matrix(0.35277777,0,0,-0.35277777,51.443501,15.762921)"
       style="fill:#8e8e8e;fill-opacity:1">
      <path
         d="M 0,0 H -82.131 C -88.1,0 -92.938,-4.838 -92.938,-10.807 v -2.161 h 4.323 v 2.161 c 0.011,3.577 2.907,6.474 6.484,6.484 H 0 Z"
         style="fill:#8e8e8e;fill-opacity:1;fill-rule:nonzero;stroke:none"
         id="path168" />
    </g>
  </g>
</svg>
