<?xml version="1.0" encoding="UTF-8" standalone="no"?>
<svg
   xmlns:dc="http://purl.org/dc/elements/1.1/"
   xmlns:cc="http://creativecommons.org/ns#"
   xmlns:rdf="http://www.w3.org/1999/02/22-rdf-syntax-ns#"
   xmlns:svg="http://www.w3.org/2000/svg"
   xmlns="http://www.w3.org/2000/svg"
   xmlns:sodipodi="http://sodipodi.sourceforge.net/DTD/sodipodi-0.dtd"
   xmlns:inkscape="http://www.inkscape.org/namespaces/inkscape"
   width="80.986366mm"
   height="79.986794mm"
   viewBox="0 0 80.986366 79.986794"
   version="1.1"
   id="svg1255"
   inkscape:version="1.0.1 (3bc2e813f5, 2020-09-07)"
   sodipodi:docname="02.svg">
  <defs
     id="defs1249" />
  <sodipodi:namedview
     id="base"
     pagecolor="#ffffff"
     bordercolor="#666666"
     borderopacity="1.0"
     inkscape:pageopacity="0.0"
     inkscape:pageshadow="2"
     inkscape:zoom="0.35"
     inkscape:cx="374.65352"
     inkscape:cy="531.79678"
     inkscape:document-units="mm"
     inkscape:current-layer="layer1"
     inkscape:document-rotation="0"
     showgrid="false"
     inkscape:window-width="1920"
     inkscape:window-height="1017"
     inkscape:window-x="-8"
     inkscape:window-y="-8"
     inkscape:window-maximized="1" />
  <metadata
     id="metadata1252">
    <rdf:RDF>
      <cc:Work
         rdf:about="">
        <dc:format>image/svg+xml</dc:format>
        <dc:type
           rdf:resource="http://purl.org/dc/dcmitype/StillImage" />
        <dc:title></dc:title>
      </cc:Work>
    </rdf:RDF>
  </metadata>
  <g
     inkscape:label="Слой 1"
     inkscape:groupmode="layer"
     id="layer1"
     transform="translate(-6.7062551,-7.4621031)">
    <path
       d="m 57.731712,57.69655 c 0.22058,2.51532 0.66193,5.01592 1.32386,7.4577 l 1.95634,7.16353"
       style="fill:none;stroke:#ffffff;stroke-width:1.32292;stroke-linecap:butt;stroke-linejoin:miter;stroke-miterlimit:10;stroke-dasharray:none;stroke-dashoffset:0;stroke-opacity:1"
       id="path861" />
    <path
       d="m 36.505894,72.31778 1.956385,-7.16353 c 0.661927,-2.44178 1.103198,-4.94238 1.323854,-7.4577"
       style="fill:none;stroke:#ffffff;stroke-width:1.32292;stroke-linecap:butt;stroke-linejoin:miter;stroke-miterlimit:10;stroke-dasharray:none;stroke-dashoffset:0;stroke-opacity:1"
       id="path863" />
    <path
       d="m 40.870192,76.00543 31.82841,-5.83084 c 0.34692,-0.0634 0.70017,-0.10716 1.06643,-0.10716 3.24934,0 5.88379,2.63449 5.88379,5.88379 0,3.24935 -2.63445,5.88384 -5.88379,5.88384 H 41.404154 c -1.6239,0 -2.941875,-1.31798 -2.941875,-2.94192 0,-1.44152 1.039945,-2.63741 2.407913,-2.88746 z"
       style="fill:none;stroke:#ffffff;stroke-width:1.32292;stroke-linecap:butt;stroke-linejoin:miter;stroke-miterlimit:10;stroke-dasharray:none;stroke-dashoffset:0;stroke-opacity:1"
       id="path865" />
    <path
       d="m 54.642692,24.46781 c 0,3.24934 -2.63445,5.88379 -5.88379,5.88379 -3.24934,0 -5.88379,-2.63445 -5.88379,-5.88379 v -4.41283 c 0,-3.24935 2.63445,-5.8838 5.88379,-5.8838 3.24934,0 5.88379,2.63445 5.88379,5.8838 z"
       style="fill:none;stroke:#ffffff;stroke-width:1.32292;stroke-linecap:butt;stroke-linejoin:miter;stroke-miterlimit:10;stroke-dasharray:none;stroke-dashoffset:0;stroke-opacity:1"
       id="path867" />
    <path
       d="m 48.758902,48.00298 v 5.8029 l 15.14197,6.56777 c 1.02669,0.44573 2.21524,0.26352 3.06543,-0.47066 0.85168,-0.73257 1.21944,-1.89168 0.94729,-2.989 l -3.63324,-14.71096 c -0.50452,-2.03727 -2.02989,-3.65529 -4.01713,-4.25839 -7.50482,-2.27848 -15.50382,-2.27848 -23.00713,0 -1.988742,0.6031 -3.515573,2.22554 -4.020097,4.26427 l -3.63178,14.70508 c -0.272277,1.09732 0.09548,2.25643 0.947295,2.989 0.850186,0.73397 2.038736,0.91639 3.065463,0.47066 l 15.141929,-6.56777 v -5.8029"
       style="fill:none;stroke:#ffffff;stroke-width:1.32292;stroke-linecap:butt;stroke-linejoin:miter;stroke-miterlimit:10;stroke-dasharray:none;stroke-dashoffset:0;stroke-opacity:1"
       id="path869" />
    <path
       d="m 48.758902,74.55949 -23.939701,-4.3849 c -0.347329,-0.0634 -0.700162,-0.10716 -1.066422,-0.10716 -3.249342,0 -5.883791,2.63449 -5.883791,5.88379 0,3.24935 2.634449,5.88384 5.883791,5.88384 h 17.651375"
       style="fill:none;stroke:#ffffff;stroke-width:1.32292;stroke-linecap:butt;stroke-linejoin:miter;stroke-miterlimit:10;stroke-dasharray:none;stroke-dashoffset:0;stroke-opacity:1"
       id="path871" />
    <path
       d="m 57.584612,45.0611 v 5.88379"
       style="fill:none;stroke:#ffffff;stroke-width:1.32292;stroke-linecap:butt;stroke-linejoin:miter;stroke-miterlimit:10;stroke-dasharray:none;stroke-dashoffset:0;stroke-opacity:1"
       id="path873" />
    <path
       d="m 39.933196,45.0611 v 5.88379"
       style="fill:none;stroke:#ffffff;stroke-width:1.32292;stroke-linecap:butt;stroke-linejoin:miter;stroke-miterlimit:10;stroke-dasharray:none;stroke-dashoffset:0;stroke-opacity:1"
       id="path875" />
    <path
       d="m 59.055572,15.77449 c 13.65037,4.35404 23.53516,17.13655 23.53516,32.22849 0,6.4722 -1.82395,12.51778 -4.97181,17.65141"
       style="fill:none;stroke:#ffffff;stroke-width:1.32292;stroke-linecap:butt;stroke-linejoin:miter;stroke-miterlimit:10;stroke-dasharray:1.32292, 1.32292000000000010;stroke-dashoffset:0;stroke-opacity:1"
       id="path1077" />
    <path
       d="m 19.89905,65.65439 c -3.147688,-5.13363 -4.97198,-11.17921 -4.97198,-17.65141 0,-15.09194 9.884793,-27.87445 23.535209,-32.22849"
       style="fill:none;stroke:#ffffff;stroke-width:1.32292;stroke-linecap:butt;stroke-linejoin:miter;stroke-miterlimit:10;stroke-dasharray:1.32292, 1.32292000000000010;stroke-dashoffset:0;stroke-opacity:1"
       id="path1079" />
    <path
       d="m 59.055572,22.02604 c 10.34074,4.08923 17.65137,14.17996 17.65137,25.97694 0,6.69282 -2.35354,12.84138 -6.29566,17.65141"
       style="fill:none;stroke:#ffffff;stroke-width:1.32292;stroke-linecap:butt;stroke-linejoin:miter;stroke-miterlimit:10;stroke-dasharray:1.32292, 1.32292000000000010;stroke-dashoffset:0;stroke-opacity:1"
       id="path1081" />
    <path
       d="M 27.106529,65.65439 C 23.164404,60.84436 20.810863,54.6958 20.810863,48.00298 c 0,-11.79698 7.310635,-21.88771 17.651416,-25.97694"
       style="fill:none;stroke:#ffffff;stroke-width:1.32292;stroke-linecap:butt;stroke-linejoin:miter;stroke-miterlimit:10;stroke-dasharray:1.32292, 1.32292000000000010;stroke-dashoffset:0;stroke-opacity:1"
       id="path1083" />
  </g>
</svg>
