<?xml version="1.0" encoding="UTF-8" standalone="no"?>
<svg
   xmlns:dc="http://purl.org/dc/elements/1.1/"
   xmlns:cc="http://creativecommons.org/ns#"
   xmlns:rdf="http://www.w3.org/1999/02/22-rdf-syntax-ns#"
   xmlns:svg="http://www.w3.org/2000/svg"
   xmlns="http://www.w3.org/2000/svg"
   width="85.649986mm"
   height="104.10417mm"
   viewBox="0 0 85.650055 104.10416"
   version="1.1"
   id="svg1595">
  <defs
     id="defs1589" />
  <metadata
     id="metadata1592">
    <rdf:RDF>
      <cc:Work
         rdf:about="">
        <dc:format>image/svg+xml</dc:format>
        <dc:type
           rdf:resource="http://purl.org/dc/dcmitype/StillImage" />
        <dc:title></dc:title>
      </cc:Work>
    </rdf:RDF>
  </metadata>
  <g
     id="layer1">
    <path
       d="m 80.470363,63.229713 c 0,13.810793 -5.793637,25.519067 -18.492518,25.519067 H 32.93278 c -12.698881,0 -18.492523,-11.708274 -18.492523,-25.519067"
       style="fill:none;stroke:#ffffff;stroke-width:1.32291667;stroke-linecap:round;stroke-linejoin:round;stroke-miterlimit:22.92560005;stroke-dasharray:none;stroke-opacity:1"
       id="path2852" />
    <path
       d="M 4.5962989,59.846486 H 80.126245"
       style="fill:none;stroke:#ffffff;stroke-width:1.32291667;stroke-linecap:round;stroke-linejoin:round;stroke-miterlimit:22.92560005;stroke-dasharray:none;stroke-opacity:1"
       id="path2854" />
    <path
       d="m 20.609719,93.398983 2.6172,-4.556123"
       style="fill:none;stroke:#ffffff;stroke-width:1.32291667;stroke-linecap:round;stroke-linejoin:round;stroke-miterlimit:22.92560005;stroke-dasharray:none;stroke-opacity:1"
       id="path2856" />
    <path
       d="M 74.29866,93.398983 71.683707,88.84286"
       style="fill:none;stroke:#ffffff;stroke-width:1.32291667;stroke-linecap:round;stroke-linejoin:round;stroke-miterlimit:22.92560005;stroke-dasharray:none;stroke-opacity:1"
       id="path2858" />
    <path
       d="m 60.911545,25.06364 c 0,-5.357183 4.324241,-9.738871 9.608441,-9.738871 v 0 c 5.284264,0 9.606259,4.390862 9.606259,9.738871 v 34.782846"
       style="fill:none;stroke:#ffffff;stroke-width:1.32291667;stroke-linecap:round;stroke-linejoin:round;stroke-miterlimit:22.92560005;stroke-dasharray:none;stroke-opacity:1"
       id="path2860" />
    <path
       d="m 48.905454,30.866181 c 1.53723,-4.283053 5.442653,-6.954747 8.770804,-5.726742 l 5.444964,2.01065 c 3.328086,1.228005 4.625359,5.818547 3.088129,10.101535"
       style="fill:none;stroke:#ffffff;stroke-width:1.32291667;stroke-linecap:round;stroke-linejoin:round;stroke-miterlimit:22.92560005;stroke-dasharray:none;stroke-opacity:1"
       id="path2862" />
    <path
       d="M 68.656737,38.699999 46.285945,30.446132"
       style="fill:none;stroke:#ffffff;stroke-width:1.32291667;stroke-linecap:round;stroke-linejoin:round;stroke-miterlimit:22.92560005;stroke-dasharray:none;stroke-opacity:1"
       id="path2864" />
    <path
       d="m 12.196757,46.297543 c -3.2297585,-2.89889 -2.8406015,-7.54077 -0.906472,-10.17398 1.950438,-2.65885 2.465429,-6.68787 -0.654803,-9.906"
       style="fill:none;stroke:#ffffff;stroke-width:1.32291667;stroke-linecap:round;stroke-linejoin:round;stroke-miterlimit:22.92560005;stroke-dasharray:none;stroke-opacity:1"
       id="path3234" />
    <path
       d="m 22.415005,44.848103 c -4.44616,-3.39054 -3.907871,-8.81544 -1.249027,-11.89373 2.684474,-3.10861 3.392874,-7.81576 -0.901815,-11.57679"
       style="fill:none;stroke:#ffffff;stroke-width:1.32291667;stroke-linecap:round;stroke-linejoin:round;stroke-miterlimit:22.92560005;stroke-dasharray:none;stroke-opacity:1"
       id="path3236" />
    <path
       d="m 30.792336,32.931053 c -3.232091,2.89889 -2.840603,7.54308 -0.90881,10.17399 1.95277,2.65884 2.46776,6.68786 -0.65481,9.906"
       style="fill:none;stroke:#ffffff;stroke-width:1.32291667;stroke-linecap:round;stroke-linejoin:round;stroke-miterlimit:22.92560005;stroke-dasharray:none;stroke-opacity:1"
       id="path3238" />
  </g>
</svg>
