<?xml version="1.0" encoding="UTF-8" standalone="no"?>
<svg
   xmlns:dc="http://purl.org/dc/elements/1.1/"
   xmlns:cc="http://creativecommons.org/ns#"
   xmlns:rdf="http://www.w3.org/1999/02/22-rdf-syntax-ns#"
   xmlns:svg="http://www.w3.org/2000/svg"
   xmlns="http://www.w3.org/2000/svg"
   xmlns:sodipodi="http://sodipodi.sourceforge.net/DTD/sodipodi-0.dtd"
   xmlns:inkscape="http://www.inkscape.org/namespaces/inkscape"
   width="85.649986mm"
   height="104.10417mm"
   viewBox="0 0 85.650055 104.10416"
   version="1.1"
   id="svg1595"
   inkscape:version="1.0.1 (0767f8302a, 2020-10-17)"
   sodipodi:docname="05.svg">
  <defs
     id="defs1589" />
  <sodipodi:namedview
     id="base"
     pagecolor="#ffffff"
     bordercolor="#666666"
     borderopacity="1.0"
     inkscape:pageopacity="0.0"
     inkscape:pageshadow="2"
     inkscape:zoom="0.35"
     inkscape:cx="400"
     inkscape:cy="560"
     inkscape:document-units="mm"
     inkscape:current-layer="layer1"
     inkscape:document-rotation="0"
     showgrid="false"
     units="mm"
     inkscape:window-width="1755"
     inkscape:window-height="720"
     inkscape:window-x="50"
     inkscape:window-y="110"
     inkscape:window-maximized="0" />
  <metadata
     id="metadata1592">
    <rdf:RDF>
      <cc:Work
         rdf:about="">
        <dc:format>image/svg+xml</dc:format>
        <dc:type
           rdf:resource="http://purl.org/dc/dcmitype/StillImage" />
        <dc:title></dc:title>
      </cc:Work>
    </rdf:RDF>
  </metadata>
  <g
     inkscape:label="Слой 1"
     inkscape:groupmode="layer"
     id="layer1">
    <path
       d="m 37.320989,32.341091 c -2.864077,-0.218077 -5.834751,1.397981 -6.903665,5.998146 l -3.66062,15.76357 c -0.937304,5.755357 2.394266,8.129168 7.148763,8.328918 l 15.243904,0.265683 3.88983,15.234838 c 3.351957,7.178293 12.025823,1.68849 9.163994,-4.434519 L 59.19168,57.786331 C 57.852696,54.08036 55.574159,52.691452 52.281191,52.337379 l -13.748339,-0.501786 3.5903,-11.499331 c 1.259539,-4.028265 0.673999,-7.582229 -4.802163,-7.995231 z m 6.935442,-16.274223 c 3.4473,2.789129 4.114474,7.77966 1.490998,11.143008 -2.623477,3.36328 -7.545885,3.830834 -10.993177,1.041643 -3.44505,-2.78913 -4.112284,-7.779661 -1.488748,-11.145259 2.623476,-3.365597 7.543627,-3.830841 10.990927,-1.039392 z"
       style="fill:none;stroke:#ffffff;stroke-width:1.32291667;stroke-linecap:round;stroke-linejoin:round;stroke-miterlimit:22.92560005;stroke-dasharray:none;stroke-opacity:1"
       id="path3230" />
    <path
       d="M 59.636459,86.687608 H 40.203204 40.1517 l -0.05142,-0.0026 -0.0515,-0.0026 -0.0515,-0.0043 v 0 l -0.04506,-0.0043 h -0.0026 l -0.04506,-0.006 h -0.0026 l -0.04506,-0.006 h -0.0026 l -0.04506,-0.006 h -0.0026 l -0.04506,-0.01287 h -0.0026 l -0.04506,-0.01287 v 0 l -0.229013,-0.0746 v 0 c -0.481202,-0.190418 -0.869241,-0.56032 -1.080313,-1.028071 v 0 l -0.03863,-0.08878 v 0 l -0.01287,-0.04506 v 0 l -0.01931,-0.04506 -0.01287,-0.04506 v 0 l -0.01287,-0.04506 h -0.0026 l -0.01287,-0.04506 -0.01287,-0.04506 -0.01287,-0.04506 v 0 l -0.006,-0.04506 -0.0068,-0.04506 v -0.0026 l -0.006,-0.05142 -0.0043,-0.0515 -0.0043,-0.04506 v 0 l -0.0026,-0.05142 v -0.0026 l -0.0026,-0.0515 -0.0026,-0.05142 V 83.545426 71.040729 c 0,-1.107448 -1.089309,-2.494107 -2.196834,-2.494107 H 23.143999 21.959348 v 0 h -0.04506 l -0.05142,-0.0026 -0.0515,-0.0026 -0.04506,-0.0043 h -0.0026 l -0.0515,-0.006 v 0 l -0.04506,-0.006 h -0.0026 l -0.04506,-0.006 v 0 l -0.04506,-0.0068 v 0 l -0.04506,-0.01287 h -0.0026 l -0.04506,-0.01287 v 0 l -0.231589,-0.07271 v -0.0026 C 20.77335,68.222752 20.38325,67.850275 20.172178,67.383108 h -0.0026 l -0.03863,-0.08878 -0.01931,-0.04506 -0.01287,-0.04506 v 0 l -0.01287,-0.04506 h -0.0026 l -0.01287,-0.04506 h -0.0026 l -0.01287,-0.04506 -0.01287,-0.04506 v -0.0026 l -0.01287,-0.04506 v 0 l -0.006,-0.04506 v -0.0026 l -0.006,-0.04506 v 0 l -0.006,-0.04506 -0.0043,-0.0515 v 0 l -0.0043,-0.04506 v -0.0026 l -0.0043,-0.04506 v 0 l -0.0026,-0.0515 v -0.0026 -0.04506 0 -1.184652 -12.872342 c 0,-1.07118 -1.264105,-2.214981 -2.335277,-2.214981 H 7.1892117"
       style="fill:none;stroke:#ffffff;stroke-width:1.32291667;stroke-linecap:round;stroke-linejoin:round;stroke-miterlimit:22.92560005;stroke-dasharray:none;stroke-opacity:1"
       id="path3232" />
    <path
       d="m 61.30906,39.730395 c -3.145452,-2.823158 -2.766485,-7.343947 -0.882813,-9.908434 1.899502,-2.58944 2.40109,-6.513306 -0.637517,-9.647375"
       style="fill:none;stroke:#ffffff;stroke-width:1.32291667;stroke-linecap:round;stroke-linejoin:round;stroke-miterlimit:22.92560005;stroke-dasharray:none;stroke-opacity:1"
       id="path3234" />
    <path
       d="M 71.260593,38.318781 C 66.930489,35.016741 67.454714,29.733513 70.044164,26.735559 72.658566,23.708086 73.348522,19.12381 69.165917,15.460931"
       style="fill:none;stroke:#ffffff;stroke-width:1.32291667;stroke-linecap:round;stroke-linejoin:round;stroke-miterlimit:22.92560005;stroke-dasharray:none;stroke-opacity:1"
       id="path3236" />
    <path
       d="m 79.41929,26.712855 c -3.14777,2.823156 -2.766486,7.346195 -0.885123,9.908432 1.901811,2.58944 2.403331,6.513307 -0.637524,9.647377"
       style="fill:none;stroke:#ffffff;stroke-width:1.32291667;stroke-linecap:round;stroke-linejoin:round;stroke-miterlimit:22.92560005;stroke-dasharray:none;stroke-opacity:1"
       id="path3238" />
  </g>
</svg>
