<?xml version="1.0" encoding="UTF-8" standalone="no"?>
<svg
   xmlns:dc="http://purl.org/dc/elements/1.1/"
   xmlns:cc="http://creativecommons.org/ns#"
   xmlns:rdf="http://www.w3.org/1999/02/22-rdf-syntax-ns#"
   xmlns:svg="http://www.w3.org/2000/svg"
   xmlns="http://www.w3.org/2000/svg"
   xmlns:sodipodi="http://sodipodi.sourceforge.net/DTD/sodipodi-0.dtd"
   xmlns:inkscape="http://www.inkscape.org/namespaces/inkscape"
   width="88.838554mm"
   height="89.609383mm"
   viewBox="0 0 88.838554 89.609383"
   version="1.1"
   id="svg1283"
   inkscape:version="1.0.1 (0767f8302a, 2020-10-17)"
   sodipodi:docname="06.svg">
  <defs
     id="defs1277" />
  <sodipodi:namedview
     id="base"
     pagecolor="#ffffff"
     bordercolor="#666666"
     borderopacity="1.0"
     inkscape:pageopacity="0.0"
     inkscape:pageshadow="2"
     inkscape:zoom="0.35"
     inkscape:cx="390.83685"
     inkscape:cy="549.8331"
     inkscape:document-units="mm"
     inkscape:current-layer="layer1"
     inkscape:document-rotation="0"
     showgrid="false"
     inkscape:window-width="1755"
     inkscape:window-height="720"
     inkscape:window-x="50"
     inkscape:window-y="110"
     inkscape:window-maximized="0" />
  <metadata
     id="metadata1280">
    <rdf:RDF>
      <cc:Work
         rdf:about="">
        <dc:format>image/svg+xml</dc:format>
        <dc:type
           rdf:resource="http://purl.org/dc/dcmitype/StillImage" />
        <dc:title></dc:title>
      </cc:Work>
    </rdf:RDF>
  </metadata>
  <g
     inkscape:label="Слой 1"
     inkscape:groupmode="layer"
     id="layer1"
     transform="translate(-2.4244158,-2.6899923)">
    <path
       d="m 54.2469,11.944003 c 0,3.066766 -2.485625,5.552443 -5.552391,5.552443 -3.066766,0 -5.552444,-2.485677 -5.552444,-5.552443 v -1.850815 c 0,-3.0667657 2.485678,-5.5523907 5.552444,-5.5523907 3.066766,0 5.552391,2.485625 5.552391,5.5523907 z"
       style="fill:none;stroke:#ffffff;stroke-width:1.32291667;stroke-linecap:butt;stroke-linejoin:miter;stroke-miterlimit:10;stroke-dasharray:none;stroke-opacity:1"
       id="path1185" />
    <path
       d="m 47.498861,61.922926 19.703688,3.69438 v 16.65723 c 0,4.08839 3.314762,7.40321 7.403204,7.40321 v -24.94329 c 0,-3.91039 -2.45787,-7.39949 -6.140979,-8.71522 l -14.282667,-5.09916 c 2.642964,-6.15043 3.766422,-12.28044 3.766422,-18.617218 h 24.060434 c 4.09028,0 7.4032,-3.312558 7.4032,-7.403206 H 4.2752208 c 0,4.090648 3.312558,7.403206 7.4032062,7.403206 h 27.762061 v 7.347488 c 0,10.62416 -4.552957,20.72899 -12.529959,27.76206 l -13.936511,12.28978 c -2.868768,2.53547 -3.4239912,6.79232 -1.295591,9.97556 l 27.040266,-19.47028 c 5.311792,-3.83095 9.661191,-8.6808 12.88157,-14.15864"
       style="fill:none;stroke:#ffffff;stroke-width:1.32291667;stroke-linecap:butt;stroke-linejoin:miter;stroke-miterlimit:10;stroke-dasharray:none;stroke-opacity:1"
       id="path1251" />
    <path
       d="m 49.54589,49.534196 4.68249,1.2767 h 0.02099"
       style="fill:none;stroke:#ffffff;stroke-width:1.32291667;stroke-linecap:butt;stroke-linejoin:miter;stroke-miterlimit:10;stroke-dasharray:none;stroke-opacity:1"
       id="path1255" />
    <path
       d="m 45.936806,48.553066 -7.162607,-1.96219"
       style="fill:none;stroke:#ffffff;stroke-width:1.32291667;stroke-linecap:butt;stroke-linejoin:miter;stroke-miterlimit:10;stroke-dasharray:none;stroke-opacity:1"
       id="path1257" />
  </g>
</svg>
